<?xml version="1.0" encoding="UTF-8" standalone="no"?>
<!DOCTYPE svg PUBLIC "-//W3C//DTD SVG 1.1//EN"
 "http://www.w3.org/Graphics/SVG/1.1/DTD/svg11.dtd">
<!-- Generated by graphviz version 2.40.1 (20161225.0304)
 -->
<!-- Title: rescale_type.hpp Pages: 1 -->
<svg width="446pt" height="140pt"
 viewBox="0.00 0.00 446.00 140.00" xmlns="http://www.w3.org/2000/svg" xmlns:xlink="http://www.w3.org/1999/xlink">
<g id="graph0" class="graph" transform="scale(1 1) rotate(0) translate(4 136)">
<title>rescale_type.hpp</title>
<polygon fill="#ffffff" stroke="transparent" points="-4,4 -4,-136 442,-136 442,4 -4,4"/>
<!-- Node1 -->
<g id="node1" class="node">
<title>Node1</title>
<g id="a_node1"><a xlink:title=" ">
<polygon fill="#bfbfbf" stroke="#000000" points="99.5,-112.5 99.5,-131.5 190.5,-131.5 190.5,-112.5 99.5,-112.5"/>
<text text-anchor="middle" x="145" y="-119.5" font-family="Helvetica,sans-Serif" font-size="10.00" fill="#000000">rescale_type.hpp</text>
</a>
</g>
</g>
<!-- Node2 -->
<g id="node2" class="node">
<title>Node2</title>
<g id="a_node2"><a xlink:href="../../d3/da6/overlay__alpha_8hpp.html" target="_top" xlink:title=" ">
<polygon fill="#ffffff" stroke="#000000" points="154,-56.5 154,-75.5 284,-75.5 284,-56.5 154,-56.5"/>
<text text-anchor="middle" x="219" y="-63.5" font-family="Helvetica,sans-Serif" font-size="10.00" fill="#000000">alpha&#45;lib/rescale_type.hpp</text>
</a>
</g>
</g>
<!-- Node1&#45;&gt;Node2 -->
<g id="edge1" class="edge">
<title>Node1&#45;&gt;Node2</title>
<path fill="none" stroke="#191970" d="M165.8657,-106.2097C178.8625,-96.3743 195.1622,-84.0394 206.2579,-75.6427"/>
<polygon fill="#191970" stroke="#191970" points="163.7518,-103.4201 157.8898,-112.2455 167.976,-109.002 163.7518,-103.4201"/>
</g>
<!-- Node6 -->
<g id="node6" class="node">
<title>Node6</title>
<g id="a_node6"><a xlink:href="../../d8/d17/rescale_8hpp.html" target="_top" xlink:title=" ">
<polygon fill="#ffffff" stroke="#000000" points="6,-56.5 6,-75.5 136,-75.5 136,-56.5 6,-56.5"/>
<text text-anchor="middle" x="71" y="-63.5" font-family="Helvetica,sans-Serif" font-size="10.00" fill="#000000">alpha&#45;lib/rescale_type.hpp</text>
</a>
</g>
</g>
<!-- Node1&#45;&gt;Node6 -->
<g id="edge5" class="edge">
<title>Node1&#45;&gt;Node6</title>
<path fill="none" stroke="#191970" d="M124.1343,-106.2097C111.1375,-96.3743 94.8378,-84.0394 83.7421,-75.6427"/>
<polygon fill="#191970" stroke="#191970" points="122.024,-109.002 132.1102,-112.2455 126.2482,-103.4201 122.024,-109.002"/>
</g>
<!-- Node3 -->
<g id="node3" class="node">
<title>Node3</title>
<g id="a_node3"><a xlink:href="../../d4/dac/src_2alpha-lib_2src_2overlay__alpha_8cpp.html" target="_top" xlink:title=" ">
<polygon fill="#ffffff" stroke="#000000" points="152,-.5 152,-19.5 286,-19.5 286,-.5 152,-.5"/>
<text text-anchor="middle" x="219" y="-7.5" font-family="Helvetica,sans-Serif" font-size="10.00" fill="#000000">alpha&#45;lib/overlay_alpha.hpp</text>
</a>
</g>
</g>
<!-- Node2&#45;&gt;Node3 -->
<g id="edge2" class="edge">
<title>Node2&#45;&gt;Node3</title>
<path fill="none" stroke="#191970" d="M219,-46.1575C219,-37.155 219,-26.9199 219,-19.6427"/>
<polygon fill="#191970" stroke="#191970" points="215.5001,-46.2455 219,-56.2455 222.5001,-46.2456 215.5001,-46.2455"/>
</g>
<!-- Node4 -->
<g id="node4" class="node">
<title>Node4</title>
<g id="a_node4"><a xlink:href="../../db/d07/test-overlay__alpha_8cpp.html" target="_top" xlink:title=" ">
<polygon fill="#ffffff" stroke="#000000" points="0,-.5 0,-19.5 134,-19.5 134,-.5 0,-.5"/>
<text text-anchor="middle" x="67" y="-7.5" font-family="Helvetica,sans-Serif" font-size="10.00" fill="#000000">alpha&#45;lib/overlay_alpha.hpp</text>
</a>
</g>
</g>
<!-- Node2&#45;&gt;Node4 -->
<g id="edge3" class="edge">
<title>Node2&#45;&gt;Node4</title>
<path fill="none" stroke="#191970" d="M183.141,-52.7888C155.3877,-42.5639 117.6181,-28.6488 92.7888,-19.5011"/>
<polygon fill="#191970" stroke="#191970" points="182.2768,-56.2003 192.8703,-56.3733 184.6968,-49.6319 182.2768,-56.2003"/>
</g>
<!-- Node5 -->
<g id="node5" class="node">
<title>Node5</title>
<g id="a_node5"><a xlink:href="../../de/d14/examples_2overlay__alpha_2overlay__alpha_8cpp.html" target="_top" xlink:title=" ">
<polygon fill="#ffffff" stroke="#000000" points="304,-.5 304,-19.5 438,-19.5 438,-.5 304,-.5"/>
<text text-anchor="middle" x="371" y="-7.5" font-family="Helvetica,sans-Serif" font-size="10.00" fill="#000000">alpha&#45;lib/overlay_alpha.hpp</text>
</a>
</g>
</g>
<!-- Node2&#45;&gt;Node5 -->
<g id="edge4" class="edge">
<title>Node2&#45;&gt;Node5</title>
<path fill="none" stroke="#191970" d="M254.859,-52.7888C282.6123,-42.5639 320.3819,-28.6488 345.2112,-19.5011"/>
<polygon fill="#191970" stroke="#191970" points="253.3032,-49.6319 245.1297,-56.3733 255.7232,-56.2003 253.3032,-49.6319"/>
</g>
<!-- Node6&#45;&gt;Node3 -->
<g id="edge6" class="edge">
<title>Node6&#45;&gt;Node3</title>
<path fill="none" stroke="#191970" d="M105.9153,-52.7888C132.9383,-42.5639 169.714,-28.6488 193.8899,-19.5011"/>
<polygon fill="#191970" stroke="#191970" points="104.5563,-49.5608 96.4421,-56.3733 107.0336,-56.1078 104.5563,-49.5608"/>
</g>
<!-- Node6&#45;&gt;Node4 -->
<g id="edge7" class="edge">
<title>Node6&#45;&gt;Node4</title>
<path fill="none" stroke="#191970" d="M69.5827,-46.1575C68.9396,-37.155 68.2086,-26.9199 67.6888,-19.6427"/>
<polygon fill="#191970" stroke="#191970" points="66.0996,-46.5204 70.3033,-56.2455 73.0818,-46.0216 66.0996,-46.5204"/>
</g>
</g>
</svg>
