<?xml version="1.0" encoding="UTF-8" standalone="no"?>
<!DOCTYPE svg PUBLIC "-//W3C//DTD SVG 1.1//EN"
 "http://www.w3.org/Graphics/SVG/1.1/DTD/svg11.dtd">
<!-- Generated by graphviz version 2.40.1 (20161225.0304)
 -->
<!-- Title: SIMD.h Pages: 1 -->
<svg width="168pt" height="140pt"
 viewBox="0.00 0.00 168.00 140.00" xmlns="http://www.w3.org/2000/svg" xmlns:xlink="http://www.w3.org/1999/xlink">
<g id="graph0" class="graph" transform="scale(1 1) rotate(0) translate(4 136)">
<title>SIMD.h</title>
<polygon fill="#ffffff" stroke="transparent" points="-4,4 -4,-136 164,-136 164,4 -4,4"/>
<!-- Node1 -->
<g id="node1" class="node">
<title>Node1</title>
<g id="a_node1"><a xlink:title=" ">
<polygon fill="#bfbfbf" stroke="#000000" points="26,-112.5 26,-131.5 76,-131.5 76,-112.5 26,-112.5"/>
<text text-anchor="middle" x="51" y="-119.5" font-family="Helvetica,sans-Serif" font-size="10.00" fill="#000000">SIMD.h</text>
</a>
</g>
</g>
<!-- Node2 -->
<g id="node2" class="node">
<title>Node2</title>
<g id="a_node2"><a xlink:href="../../d4/dac/src_2alpha-lib_2src_2overlay__alpha_8cpp.html" target="_top" xlink:title=" ">
<polygon fill="#ffffff" stroke="#000000" points="0,-.5 0,-19.5 50,-19.5 50,-.5 0,-.5"/>
<text text-anchor="middle" x="25" y="-7.5" font-family="Helvetica,sans-Serif" font-size="10.00" fill="#000000">SIMD.h</text>
</a>
</g>
</g>
<!-- Node1&#45;&gt;Node2 -->
<g id="edge1" class="edge">
<title>Node1&#45;&gt;Node2</title>
<path fill="none" stroke="#191970" d="M46.4961,-102.5987C40.87,-78.363 31.4664,-37.8551 27.2111,-19.5249"/>
<polygon fill="#191970" stroke="#191970" points="43.1125,-103.5014 48.7833,-112.4509 49.9312,-101.9185 43.1125,-103.5014"/>
</g>
<!-- Node3 -->
<g id="node3" class="node">
<title>Node3</title>
<g id="a_node3"><a xlink:href="../../d8/d17/rescale_8hpp.html" target="_top" xlink:title=" ">
<polygon fill="#ffffff" stroke="#000000" points="53,-56.5 53,-75.5 103,-75.5 103,-56.5 53,-56.5"/>
<text text-anchor="middle" x="78" y="-63.5" font-family="Helvetica,sans-Serif" font-size="10.00" fill="#000000">SIMD.h</text>
</a>
</g>
</g>
<!-- Node1&#45;&gt;Node3 -->
<g id="edge2" class="edge">
<title>Node1&#45;&gt;Node3</title>
<path fill="none" stroke="#191970" d="M60.1396,-103.0437C64.5805,-93.8331 69.7265,-83.1598 73.3509,-75.6427"/>
<polygon fill="#191970" stroke="#191970" points="56.8934,-101.7178 55.703,-112.2455 63.1988,-104.7579 56.8934,-101.7178"/>
</g>
<!-- Node3&#45;&gt;Node2 -->
<g id="edge3" class="edge">
<title>Node3&#45;&gt;Node2</title>
<path fill="none" stroke="#191970" d="M61.7104,-48.7884C52.6438,-39.2085 41.6946,-27.6396 34.1261,-19.6427"/>
<polygon fill="#191970" stroke="#191970" points="59.3522,-51.3884 68.7681,-56.2455 64.4363,-46.5767 59.3522,-51.3884"/>
</g>
<!-- Node4 -->
<g id="node4" class="node">
<title>Node4</title>
<g id="a_node4"><a xlink:href="../../db/d07/test-overlay__alpha_8cpp.html" target="_top" xlink:title=" ">
<polygon fill="#ffffff" stroke="#000000" points="68,-.5 68,-19.5 160,-19.5 160,-.5 68,-.5"/>
<text text-anchor="middle" x="114" y="-7.5" font-family="Helvetica,sans-Serif" font-size="10.00" fill="#000000">../src/rescale.hpp</text>
</a>
</g>
</g>
<!-- Node3&#45;&gt;Node4 -->
<g id="edge4" class="edge">
<title>Node3&#45;&gt;Node4</title>
<path fill="none" stroke="#191970" d="M89.8096,-47.6296C95.8144,-38.2887 102.8659,-27.3197 107.8011,-19.6427"/>
<polygon fill="#191970" stroke="#191970" points="86.7342,-45.9411 84.2707,-56.2455 92.6225,-49.7264 86.7342,-45.9411"/>
</g>
</g>
</svg>
