<?xml version="1.0" encoding="UTF-8" standalone="no"?>
<!DOCTYPE svg PUBLIC "-//W3C//DTD SVG 1.1//EN"
 "http://www.w3.org/Graphics/SVG/1.1/DTD/svg11.dtd">
<!-- Generated by graphviz version 2.40.1 (20161225.0304)
 -->
<!-- Title: overlay_alpha.hpp Pages: 1 -->
<svg width="446pt" height="84pt"
 viewBox="0.00 0.00 446.00 84.00" xmlns="http://www.w3.org/2000/svg" xmlns:xlink="http://www.w3.org/1999/xlink">
<g id="graph0" class="graph" transform="scale(1 1) rotate(0) translate(4 80)">
<title>overlay_alpha.hpp</title>
<polygon fill="#ffffff" stroke="transparent" points="-4,4 -4,-80 442,-80 442,4 -4,4"/>
<!-- Node1 -->
<g id="node1" class="node">
<title>Node1</title>
<g id="a_node1"><a xlink:title=" ">
<polygon fill="#bfbfbf" stroke="#000000" points="171.5,-56.5 171.5,-75.5 266.5,-75.5 266.5,-56.5 171.5,-56.5"/>
<text text-anchor="middle" x="219" y="-63.5" font-family="Helvetica,sans-Serif" font-size="10.00" fill="#000000">overlay_alpha.hpp</text>
</a>
</g>
</g>
<!-- Node2 -->
<g id="node2" class="node">
<title>Node2</title>
<g id="a_node2"><a xlink:href="../../d4/dac/src_2alpha-lib_2src_2overlay__alpha_8cpp.html" target="_top" xlink:title=" ">
<polygon fill="#ffffff" stroke="#000000" points="0,-.5 0,-19.5 134,-19.5 134,-.5 0,-.5"/>
<text text-anchor="middle" x="67" y="-7.5" font-family="Helvetica,sans-Serif" font-size="10.00" fill="#000000">alpha&#45;lib/overlay_alpha.hpp</text>
</a>
</g>
</g>
<!-- Node1&#45;&gt;Node2 -->
<g id="edge1" class="edge">
<title>Node1&#45;&gt;Node2</title>
<path fill="none" stroke="#191970" d="M183.141,-52.7888C155.3877,-42.5639 117.6181,-28.6488 92.7888,-19.5011"/>
<polygon fill="#191970" stroke="#191970" points="182.2768,-56.2003 192.8703,-56.3733 184.6968,-49.6319 182.2768,-56.2003"/>
</g>
<!-- Node3 -->
<g id="node3" class="node">
<title>Node3</title>
<g id="a_node3"><a xlink:href="../../db/d07/test-overlay__alpha_8cpp.html" target="_top" xlink:title=" ">
<polygon fill="#ffffff" stroke="#000000" points="152,-.5 152,-19.5 286,-19.5 286,-.5 152,-.5"/>
<text text-anchor="middle" x="219" y="-7.5" font-family="Helvetica,sans-Serif" font-size="10.00" fill="#000000">alpha&#45;lib/overlay_alpha.hpp</text>
</a>
</g>
</g>
<!-- Node1&#45;&gt;Node3 -->
<g id="edge2" class="edge">
<title>Node1&#45;&gt;Node3</title>
<path fill="none" stroke="#191970" d="M219,-46.1575C219,-37.155 219,-26.9199 219,-19.6427"/>
<polygon fill="#191970" stroke="#191970" points="215.5001,-46.2455 219,-56.2455 222.5001,-46.2456 215.5001,-46.2455"/>
</g>
<!-- Node4 -->
<g id="node4" class="node">
<title>Node4</title>
<g id="a_node4"><a xlink:href="../../de/d14/examples_2overlay__alpha_2overlay__alpha_8cpp.html" target="_top" xlink:title=" ">
<polygon fill="#ffffff" stroke="#000000" points="304,-.5 304,-19.5 438,-19.5 438,-.5 304,-.5"/>
<text text-anchor="middle" x="371" y="-7.5" font-family="Helvetica,sans-Serif" font-size="10.00" fill="#000000">alpha&#45;lib/overlay_alpha.hpp</text>
</a>
</g>
</g>
<!-- Node1&#45;&gt;Node4 -->
<g id="edge3" class="edge">
<title>Node1&#45;&gt;Node4</title>
<path fill="none" stroke="#191970" d="M254.859,-52.7888C282.6123,-42.5639 320.3819,-28.6488 345.2112,-19.5011"/>
<polygon fill="#191970" stroke="#191970" points="253.3032,-49.6319 245.1297,-56.3733 255.7232,-56.2003 253.3032,-49.6319"/>
</g>
</g>
</svg>
