<?xml version="1.0" encoding="UTF-8" standalone="no"?>
<!DOCTYPE svg PUBLIC "-//W3C//DTD SVG 1.1//EN"
 "http://www.w3.org/Graphics/SVG/1.1/DTD/svg11.dtd">
<!-- Generated by graphviz version 2.40.1 (20161225.0304)
 -->
<!-- Title: overlay_alpha.cpp Pages: 1 -->
<svg width="920pt" height="140pt"
 viewBox="0.00 0.00 920.00 140.00" xmlns="http://www.w3.org/2000/svg" xmlns:xlink="http://www.w3.org/1999/xlink">
<g id="graph0" class="graph" transform="scale(1 1) rotate(0) translate(4 136)">
<title>overlay_alpha.cpp</title>
<polygon fill="#ffffff" stroke="transparent" points="-4,4 -4,-136 916,-136 916,4 -4,4"/>
<!-- Node1 -->
<g id="node1" class="node">
<title>Node1</title>
<g id="a_node1"><a xlink:title=" ">
<polygon fill="#bfbfbf" stroke="#000000" points="253.5,-112.5 253.5,-131.5 348.5,-131.5 348.5,-112.5 253.5,-112.5"/>
<text text-anchor="middle" x="301" y="-119.5" font-family="Helvetica,sans-Serif" font-size="10.00" fill="#000000">overlay_alpha.cpp</text>
</a>
</g>
</g>
<!-- Node2 -->
<g id="node2" class="node">
<title>Node2</title>
<g id="a_node2"><a xlink:title=" ">
<polygon fill="#ffffff" stroke="#bfbfbf" points="0,-56.5 0,-75.5 56,-75.5 56,-56.5 0,-56.5"/>
<text text-anchor="middle" x="28" y="-63.5" font-family="Helvetica,sans-Serif" font-size="10.00" fill="#000000">algorithm</text>
</a>
</g>
</g>
<!-- Node1&#45;&gt;Node2 -->
<g id="edge1" class="edge">
<title>Node1&#45;&gt;Node2</title>
<path fill="none" stroke="#191970" d="M253.3253,-113.7404C207.6542,-105.5967 136.5946,-92.3242 66.1609,-76.1532"/>
<polygon fill="#191970" stroke="#191970" points="66.7612,-72.6997 56.2293,-73.8524 65.1814,-79.5191 66.7612,-72.6997"/>
</g>
<!-- Node3 -->
<g id="node3" class="node">
<title>Node3</title>
<g id="a_node3"><a xlink:title=" ">
<polygon fill="#ffffff" stroke="#bfbfbf" points="74.5,-56.5 74.5,-75.5 123.5,-75.5 123.5,-56.5 74.5,-56.5"/>
<text text-anchor="middle" x="99" y="-63.5" font-family="Helvetica,sans-Serif" font-size="10.00" fill="#000000">cassert</text>
</a>
</g>
</g>
<!-- Node1&#45;&gt;Node3 -->
<g id="edge2" class="edge">
<title>Node1&#45;&gt;Node3</title>
<path fill="none" stroke="#191970" d="M265.2235,-112.413C233.2365,-103.795 184.8336,-90.641 133.7694,-76.1831"/>
<polygon fill="#191970" stroke="#191970" points="134.4425,-72.7359 123.8668,-73.3723 132.5311,-79.4699 134.4425,-72.7359"/>
</g>
<!-- Node4 -->
<g id="node4" class="node">
<title>Node4</title>
<g id="a_node4"><a xlink:title=" ">
<polygon fill="#ffffff" stroke="#bfbfbf" points="142,-56.5 142,-75.5 188,-75.5 188,-56.5 142,-56.5"/>
<text text-anchor="middle" x="165" y="-63.5" font-family="Helvetica,sans-Serif" font-size="10.00" fill="#000000">chrono</text>
</a>
</g>
</g>
<!-- Node1&#45;&gt;Node4 -->
<g id="edge3" class="edge">
<title>Node1&#45;&gt;Node4</title>
<path fill="none" stroke="#191970" d="M277.6208,-112.3733C255.4955,-103.2629 222.0866,-89.5062 197.3981,-79.3404"/>
<polygon fill="#191970" stroke="#191970" points="198.6536,-76.0723 188.0742,-75.5011 195.9883,-82.5451 198.6536,-76.0723"/>
</g>
<!-- Node5 -->
<g id="node5" class="node">
<title>Node5</title>
<g id="a_node5"><a xlink:title=" ">
<polygon fill="#ffffff" stroke="#bfbfbf" points="206,-56.5 206,-75.5 256,-75.5 256,-56.5 206,-56.5"/>
<text text-anchor="middle" x="231" y="-63.5" font-family="Helvetica,sans-Serif" font-size="10.00" fill="#000000">iomanip</text>
</a>
</g>
</g>
<!-- Node1&#45;&gt;Node5 -->
<g id="edge4" class="edge">
<title>Node1&#45;&gt;Node5</title>
<path fill="none" stroke="#191970" d="M288.8069,-112.2455C278.3679,-103.8943 263.1345,-91.7076 250.926,-81.9408"/>
<polygon fill="#191970" stroke="#191970" points="253.0485,-79.1566 243.0533,-75.6427 248.6756,-84.6227 253.0485,-79.1566"/>
</g>
<!-- Node6 -->
<g id="node6" class="node">
<title>Node6</title>
<g id="a_node6"><a xlink:title=" ">
<polygon fill="#ffffff" stroke="#bfbfbf" points="274,-56.5 274,-75.5 328,-75.5 328,-56.5 274,-56.5"/>
<text text-anchor="middle" x="301" y="-63.5" font-family="Helvetica,sans-Serif" font-size="10.00" fill="#000000">iostream</text>
</a>
</g>
</g>
<!-- Node1&#45;&gt;Node6 -->
<g id="edge5" class="edge">
<title>Node1&#45;&gt;Node6</title>
<path fill="none" stroke="#191970" d="M301,-112.2455C301,-104.9382 301,-94.6944 301,-85.7046"/>
<polygon fill="#191970" stroke="#191970" points="304.5001,-85.6426 301,-75.6427 297.5001,-85.6427 304.5001,-85.6426"/>
</g>
<!-- Node7 -->
<g id="node7" class="node">
<title>Node7</title>
<g id="a_node7"><a xlink:title=" ">
<polygon fill="#ffffff" stroke="#bfbfbf" points="346.5,-56.5 346.5,-75.5 387.5,-75.5 387.5,-56.5 346.5,-56.5"/>
<text text-anchor="middle" x="367" y="-63.5" font-family="Helvetica,sans-Serif" font-size="10.00" fill="#000000">string</text>
</a>
</g>
</g>
<!-- Node1&#45;&gt;Node7 -->
<g id="edge6" class="edge">
<title>Node1&#45;&gt;Node7</title>
<path fill="none" stroke="#191970" d="M312.4963,-112.2455C322.2442,-103.9746 336.4259,-91.9416 347.8798,-82.2232"/>
<polygon fill="#191970" stroke="#191970" points="350.2747,-84.7813 355.6354,-75.6427 345.7459,-79.4437 350.2747,-84.7813"/>
</g>
<!-- Node8 -->
<g id="node8" class="node">
<title>Node8</title>
<g id="a_node8"><a xlink:title=" ">
<polygon fill="#ffffff" stroke="#bfbfbf" points="406,-56.5 406,-75.5 528,-75.5 528,-56.5 406,-56.5"/>
<text text-anchor="middle" x="467" y="-63.5" font-family="Helvetica,sans-Serif" font-size="10.00" fill="#000000">opencv2/imgcodecs.hpp</text>
</a>
</g>
</g>
<!-- Node1&#45;&gt;Node8 -->
<g id="edge7" class="edge">
<title>Node1&#45;&gt;Node8</title>
<path fill="none" stroke="#191970" d="M329.5364,-112.3733C357.0202,-103.1016 398.7686,-89.0178 429.0452,-78.804"/>
<polygon fill="#191970" stroke="#191970" points="430.4794,-82.0141 438.836,-75.5011 428.2418,-75.3813 430.4794,-82.0141"/>
</g>
<!-- Node9 -->
<g id="node9" class="node">
<title>Node9</title>
<g id="a_node9"><a xlink:title=" ">
<polygon fill="#ffffff" stroke="#bfbfbf" points="546,-56.5 546,-75.5 656,-75.5 656,-56.5 546,-56.5"/>
<text text-anchor="middle" x="601" y="-63.5" font-family="Helvetica,sans-Serif" font-size="10.00" fill="#000000">opencv2/imgproc.hpp</text>
</a>
</g>
</g>
<!-- Node1&#45;&gt;Node9 -->
<g id="edge8" class="edge">
<title>Node1&#45;&gt;Node9</title>
<path fill="none" stroke="#191970" d="M348.5359,-113.1266C400.3595,-103.4529 483.4396,-87.9446 540.0285,-77.3813"/>
<polygon fill="#191970" stroke="#191970" points="540.7346,-80.8101 549.9226,-75.5345 539.4501,-73.9289 540.7346,-80.8101"/>
</g>
<!-- Node10 -->
<g id="node10" class="node">
<title>Node10</title>
<g id="a_node10"><a xlink:href="../../d3/da6/overlay__alpha_8hpp.html" target="_top" xlink:title=" ">
<polygon fill="#ffffff" stroke="#000000" points="674,-56.5 674,-75.5 808,-75.5 808,-56.5 674,-56.5"/>
<text text-anchor="middle" x="741" y="-63.5" font-family="Helvetica,sans-Serif" font-size="10.00" fill="#000000">alpha&#45;lib/overlay_alpha.hpp</text>
</a>
</g>
</g>
<!-- Node1&#45;&gt;Node10 -->
<g id="edge9" class="edge">
<title>Node1&#45;&gt;Node10</title>
<path fill="none" stroke="#191970" d="M348.7087,-116.0499C416.3678,-107.5942 544.3591,-91.5344 663.813,-76.1483"/>
<polygon fill="#191970" stroke="#191970" points="664.3953,-79.6023 673.8657,-74.8524 663.5003,-72.6597 664.3953,-79.6023"/>
</g>
<!-- Node11 -->
<g id="node11" class="node">
<title>Node11</title>
<g id="a_node11"><a xlink:title=" ">
<polygon fill="#ffffff" stroke="#bfbfbf" points="650.5,-.5 650.5,-19.5 699.5,-19.5 699.5,-.5 650.5,-.5"/>
<text text-anchor="middle" x="675" y="-7.5" font-family="Helvetica,sans-Serif" font-size="10.00" fill="#000000">cstddef</text>
</a>
</g>
</g>
<!-- Node10&#45;&gt;Node11 -->
<g id="edge10" class="edge">
<title>Node10&#45;&gt;Node11</title>
<path fill="none" stroke="#191970" d="M729.5037,-56.2455C719.7558,-47.9746 705.5741,-35.9416 694.1202,-26.2232"/>
<polygon fill="#191970" stroke="#191970" points="696.2541,-23.4437 686.3646,-19.6427 691.7253,-28.7813 696.2541,-23.4437"/>
</g>
<!-- Node12 -->
<g id="node12" class="node">
<title>Node12</title>
<g id="a_node12"><a xlink:title=" ">
<polygon fill="#ffffff" stroke="#bfbfbf" points="718,-.5 718,-19.5 764,-19.5 764,-.5 718,-.5"/>
<text text-anchor="middle" x="741" y="-7.5" font-family="Helvetica,sans-Serif" font-size="10.00" fill="#000000">cstdint</text>
</a>
</g>
</g>
<!-- Node10&#45;&gt;Node12 -->
<g id="edge11" class="edge">
<title>Node10&#45;&gt;Node12</title>
<path fill="none" stroke="#191970" d="M741,-56.2455C741,-48.9382 741,-38.6944 741,-29.7046"/>
<polygon fill="#191970" stroke="#191970" points="744.5001,-29.6426 741,-19.6427 737.5001,-29.6427 744.5001,-29.6426"/>
</g>
<!-- Node13 -->
<g id="node13" class="node">
<title>Node13</title>
<g id="a_node13"><a xlink:href="../../df/d82/rescale__type_8hpp.html" target="_top" xlink:title=" ">
<polygon fill="#ffffff" stroke="#000000" points="782,-.5 782,-19.5 912,-19.5 912,-.5 782,-.5"/>
<text text-anchor="middle" x="847" y="-7.5" font-family="Helvetica,sans-Serif" font-size="10.00" fill="#000000">alpha&#45;lib/rescale_type.hpp</text>
</a>
</g>
</g>
<!-- Node10&#45;&gt;Node13 -->
<g id="edge12" class="edge">
<title>Node10&#45;&gt;Node13</title>
<path fill="none" stroke="#191970" d="M759.4638,-56.2455C776.1074,-47.4527 800.7993,-34.4079 819.7192,-24.4125"/>
<polygon fill="#191970" stroke="#191970" points="821.5408,-27.4086 828.7478,-19.6427 818.2709,-21.2193 821.5408,-27.4086"/>
</g>
</g>
</svg>
