<?xml version="1.0" encoding="UTF-8" standalone="no"?>
<!DOCTYPE svg PUBLIC "-//W3C//DTD SVG 1.1//EN"
 "http://www.w3.org/Graphics/SVG/1.1/DTD/svg11.dtd">
<!-- Generated by graphviz version 2.40.1 (20161225.0304)
 -->
<!-- Title: rescale.hpp Pages: 1 -->
<svg width="186pt" height="84pt"
 viewBox="0.00 0.00 185.50 84.00" xmlns="http://www.w3.org/2000/svg" xmlns:xlink="http://www.w3.org/1999/xlink">
<g id="graph0" class="graph" transform="scale(1 1) rotate(0) translate(4 80)">
<title>rescale.hpp</title>
<polygon fill="#ffffff" stroke="transparent" points="-4,4 -4,-80 181.5,-80 181.5,4 -4,4"/>
<!-- Node1 -->
<g id="node1" class="node">
<title>Node1</title>
<g id="a_node1"><a xlink:title=" ">
<polygon fill="#bfbfbf" stroke="#000000" points="49,-56.5 49,-75.5 116,-75.5 116,-56.5 49,-56.5"/>
<text text-anchor="middle" x="82.5" y="-63.5" font-family="Helvetica,sans-Serif" font-size="10.00" fill="#000000">rescale.hpp</text>
</a>
</g>
</g>
<!-- Node2 -->
<g id="node2" class="node">
<title>Node2</title>
<g id="a_node2"><a xlink:href="../../d4/dac/src_2alpha-lib_2src_2overlay__alpha_8cpp.html" target="_top" xlink:title=" ">
<polygon fill="#ffffff" stroke="#000000" points="0,-.5 0,-19.5 67,-19.5 67,-.5 0,-.5"/>
<text text-anchor="middle" x="33.5" y="-7.5" font-family="Helvetica,sans-Serif" font-size="10.00" fill="#000000">rescale.hpp</text>
</a>
</g>
</g>
<!-- Node1&#45;&gt;Node2 -->
<g id="edge1" class="edge">
<title>Node1&#45;&gt;Node2</title>
<path fill="none" stroke="#191970" d="M67.1878,-48.5004C58.8553,-38.9775 48.8647,-27.5596 41.9373,-19.6427"/>
<polygon fill="#191970" stroke="#191970" points="64.7457,-51.0245 73.9649,-56.2455 70.0138,-46.415 64.7457,-51.0245"/>
</g>
<!-- Node3 -->
<g id="node3" class="node">
<title>Node3</title>
<g id="a_node3"><a xlink:href="../../db/d07/test-overlay__alpha_8cpp.html" target="_top" xlink:title=" ">
<polygon fill="#ffffff" stroke="#000000" points="85.5,-.5 85.5,-19.5 177.5,-19.5 177.5,-.5 85.5,-.5"/>
<text text-anchor="middle" x="131.5" y="-7.5" font-family="Helvetica,sans-Serif" font-size="10.00" fill="#000000">../src/rescale.hpp</text>
</a>
</g>
</g>
<!-- Node1&#45;&gt;Node3 -->
<g id="edge2" class="edge">
<title>Node1&#45;&gt;Node3</title>
<path fill="none" stroke="#191970" d="M97.8122,-48.5004C106.1447,-38.9775 116.1353,-27.5596 123.0627,-19.6427"/>
<polygon fill="#191970" stroke="#191970" points="94.9862,-46.415 91.0351,-56.2455 100.2543,-51.0245 94.9862,-46.415"/>
</g>
</g>
</svg>
