<?xml version="1.0" encoding="utf-8" standalone="no"?>
<!DOCTYPE svg PUBLIC "-//W3C//DTD SVG 1.1//EN"
  "http://www.w3.org/Graphics/SVG/1.1/DTD/svg11.dtd">
<!-- Created with matplotlib (https://matplotlib.org/) -->
<svg height="324pt" version="1.1" viewBox="0 0 432 324" width="432pt" xmlns="http://www.w3.org/2000/svg" xmlns:xlink="http://www.w3.org/1999/xlink">
 <defs>
  <style type="text/css">
*{stroke-linecap:butt;stroke-linejoin:round;}
  </style>
 </defs>
 <g id="figure_1">
  <g id="patch_1">
   <path d="M 0 324 
L 432 324 
L 432 0 
L 0 0 
z
" style="fill:#ffffff;"/>
  </g>
  <g id="axes_1">
   <g id="patch_2">
    <path d="M 68.431781 277.458056 
L 418.426368 277.458056 
L 418.426368 44.065817 
L 68.431781 44.065817 
z
" style="fill:#ffffff;"/>
   </g>
   <g id="matplotlib.axis_1">
    <g id="xtick_1">
     <g id="line2d_1">
      <defs>
       <path d="M 0 0 
L 0 3.5 
" id="mf1b8596873" style="stroke:#000000;stroke-width:0.8;"/>
      </defs>
      <g>
       <use style="stroke:#000000;stroke-width:0.8;" x="68.431781" xlink:href="#mf1b8596873" y="277.458056"/>
      </g>
     </g>
     <g id="text_1">
      <!-- $0$ -->
      <defs>
       <path d="M 42 31.640625 
C 42 37.75 41.90625 48.125 37.703125 56.109375 
C 34 63.109375 28.09375 65.59375 22.90625 65.59375 
C 18.09375 65.59375 12 63.40625 8.203125 56.203125 
C 4.203125 48.71875 3.796875 39.4375 3.796875 31.640625 
C 3.796875 25.953125 3.90625 17.28125 7 9.671875 
C 11.296875 -0.609375 19 -2 22.90625 -2 
C 27.5 -2 34.5 -0.109375 38.59375 9.375 
C 41.59375 16.28125 42 24.359375 42 31.640625 
z
M 22.90625 -0.40625 
C 16.5 -0.40625 12.703125 5.078125 11.296875 12.6875 
C 10.203125 18.5625 10.203125 27.15625 10.203125 32.75 
C 10.203125 40.4375 10.203125 46.828125 11.5 52.921875 
C 13.40625 61.390625 19 64 22.90625 64 
C 27 64 32.296875 61.296875 34.203125 53.125 
C 35.5 47.4375 35.59375 40.734375 35.59375 32.75 
C 35.59375 26.25 35.59375 18.265625 34.40625 12.375 
C 32.296875 1.484375 26.40625 -0.40625 22.90625 -0.40625 
z
" id="CMR17-48"/>
      </defs>
      <g transform="translate(65.505286 292.760236)scale(0.12 -0.12)">
       <use transform="scale(0.996264)" xlink:href="#CMR17-48"/>
      </g>
     </g>
    </g>
    <g id="xtick_2">
     <g id="line2d_2">
      <g>
       <use style="stroke:#000000;stroke-width:0.8;" x="111.114047" xlink:href="#mf1b8596873" y="277.458056"/>
      </g>
     </g>
     <g id="text_2">
      <!-- $25$ -->
      <defs>
       <path d="M 41.703125 15.453125 
L 39.90625 15.453125 
C 38.90625 8.375 38.09375 7.171875 37.703125 6.5625 
C 37.203125 5.765625 30 5.765625 28.59375 5.765625 
L 9.40625 5.765625 
C 13 9.671875 20 16.75 28.5 24.953125 
C 34.59375 30.734375 41.703125 37.53125 41.703125 47.421875 
C 41.703125 59.21875 32.296875 66 21.796875 66 
C 10.796875 66 4.09375 56.3125 4.09375 47.34375 
C 4.09375 43.4375 7 42.9375 8.203125 42.9375 
C 9.203125 42.9375 12.203125 43.546875 12.203125 47.03125 
C 12.203125 50.109375 9.59375 51 8.203125 51 
C 7.59375 51 7 50.90625 6.59375 50.703125 
C 8.5 59.21875 14.296875 63.40625 20.40625 63.40625 
C 29.09375 63.40625 34.796875 56.515625 34.796875 47.421875 
C 34.796875 38.734375 29.703125 31.25 24 24.75 
L 4.09375 2.28125 
L 4.09375 0 
L 39.296875 0 
z
" id="CMR17-50"/>
       <path d="M 11.40625 57.6875 
C 12.40625 57.28125 16.5 56 20.703125 56 
C 30 56 35.09375 61.109375 38 64.0625 
C 38 64.953125 38 65.5 37.40625 65.5 
C 37.296875 65.5 37.09375 65.5 36.296875 65.046875 
C 32.796875 63.40625 28.703125 62.078125 23.703125 62.078125 
C 20.703125 62.078125 16.203125 62.484375 11.296875 64.671875 
C 10.203125 65.171875 10 65.171875 9.90625 65.171875 
C 9.40625 65.171875 9.296875 65.0625 9.296875 63.078125 
L 9.296875 34.421875 
C 9.296875 32.640625 9.296875 32.140625 10.296875 32.140625 
C 10.796875 32.140625 11 32.34375 11.5 33.03125 
C 14.703125 37.515625 19.09375 39.40625 24.09375 39.40625 
C 27.59375 39.40625 35.09375 37.21875 35.09375 20.140625 
C 35.09375 16.953125 35.09375 11.171875 32.09375 6.578125 
C 29.59375 2.484375 25.703125 0.390625 21.40625 0.390625 
C 14.796875 0.390625 8.09375 5 6.296875 12.71875 
C 6.703125 12.609375 7.5 12.421875 7.90625 12.421875 
C 9.203125 12.421875 11.703125 13.125 11.703125 16.21875 
C 11.703125 18.90625 9.796875 20 7.90625 20 
C 5.59375 20 4.09375 18.59375 4.09375 15.796875 
C 4.09375 7.09375 11 -2 21.59375 -2 
C 31.90625 -2 41.703125 6.875 41.703125 19.75 
C 41.703125 31.71875 33.90625 41 24.203125 41 
C 19.09375 41 14.796875 39.109375 11.40625 35.53125 
z
" id="CMR17-53"/>
      </defs>
      <g transform="translate(105.261057 292.760236)scale(0.12 -0.12)">
       <use transform="scale(0.996264)" xlink:href="#CMR17-50"/>
       <use transform="translate(45.690477 0)scale(0.996264)" xlink:href="#CMR17-53"/>
      </g>
     </g>
    </g>
    <g id="xtick_3">
     <g id="line2d_3">
      <g>
       <use style="stroke:#000000;stroke-width:0.8;" x="153.796314" xlink:href="#mf1b8596873" y="277.458056"/>
      </g>
     </g>
     <g id="text_3">
      <!-- $50$ -->
      <g transform="translate(147.943324 292.760236)scale(0.12 -0.12)">
       <use transform="scale(0.996264)" xlink:href="#CMR17-53"/>
       <use transform="translate(45.690477 0)scale(0.996264)" xlink:href="#CMR17-48"/>
      </g>
     </g>
    </g>
    <g id="xtick_4">
     <g id="line2d_4">
      <g>
       <use style="stroke:#000000;stroke-width:0.8;" x="196.478581" xlink:href="#mf1b8596873" y="277.458056"/>
      </g>
     </g>
     <g id="text_4">
      <!-- $75$ -->
      <defs>
       <path d="M 45.09375 61.578125 
L 45.09375 63.765625 
L 21.59375 63.765625 
C 9.90625 63.765625 9.703125 65.078125 9.296875 67 
L 7.5 67 
L 4.59375 48.34375 
L 6.40625 48.34375 
C 6.703125 50.234375 7.40625 55.3125 8.59375 57.203125 
C 9.203125 58 16.59375 58 18.296875 58 
L 40.296875 58 
L 29.203125 41.578125 
C 21.796875 30.53125 16.703125 15.609375 16.703125 2.578125 
C 16.703125 1.390625 16.703125 -2 20.296875 -2 
C 23.90625 -2 23.90625 1.390625 23.90625 2.671875 
L 23.90625 7.265625 
C 23.90625 23.5625 26.703125 34.3125 31.296875 41.1875 
z
" id="CMR17-55"/>
      </defs>
      <g transform="translate(190.625591 292.760236)scale(0.12 -0.12)">
       <use transform="scale(0.996264)" xlink:href="#CMR17-55"/>
       <use transform="translate(45.690477 0)scale(0.996264)" xlink:href="#CMR17-53"/>
      </g>
     </g>
    </g>
    <g id="xtick_5">
     <g id="line2d_5">
      <g>
       <use style="stroke:#000000;stroke-width:0.8;" x="239.160848" xlink:href="#mf1b8596873" y="277.458056"/>
      </g>
     </g>
     <g id="text_5">
      <!-- $100$ -->
      <defs>
       <path d="M 26.59375 63.40625 
C 26.59375 65.5 26.5 65.5 25.09375 65.5 
C 21.203125 61.1875 15.296875 59.796875 9.703125 59.796875 
C 9.40625 59.796875 8.90625 59.796875 8.796875 59.5 
C 8.703125 59.296875 8.703125 59.09375 8.703125 57 
C 11.796875 57 17 57.59375 21 59.984375 
L 21 7.203125 
C 21 3.6875 20.796875 2.5 12.203125 2.5 
L 9.203125 2.5 
L 9.203125 0 
C 14 0 19 0 23.796875 0 
C 28.59375 0 33.59375 0 38.40625 0 
L 38.40625 2.5 
L 35.40625 2.5 
C 26.796875 2.5 26.59375 3.59375 26.59375 7.15625 
z
" id="CMR17-49"/>
      </defs>
      <g transform="translate(230.381362 292.760236)scale(0.12 -0.12)">
       <use transform="scale(0.996264)" xlink:href="#CMR17-49"/>
       <use transform="translate(45.690477 0)scale(0.996264)" xlink:href="#CMR17-48"/>
       <use transform="translate(91.380954 0)scale(0.996264)" xlink:href="#CMR17-48"/>
      </g>
     </g>
    </g>
    <g id="xtick_6">
     <g id="line2d_6">
      <g>
       <use style="stroke:#000000;stroke-width:0.8;" x="281.843115" xlink:href="#mf1b8596873" y="277.458056"/>
      </g>
     </g>
     <g id="text_6">
      <!-- $125$ -->
      <g transform="translate(273.063629 292.760236)scale(0.12 -0.12)">
       <use transform="scale(0.996264)" xlink:href="#CMR17-49"/>
       <use transform="translate(45.690477 0)scale(0.996264)" xlink:href="#CMR17-50"/>
       <use transform="translate(91.380954 0)scale(0.996264)" xlink:href="#CMR17-53"/>
      </g>
     </g>
    </g>
    <g id="xtick_7">
     <g id="line2d_7">
      <g>
       <use style="stroke:#000000;stroke-width:0.8;" x="324.525381" xlink:href="#mf1b8596873" y="277.458056"/>
      </g>
     </g>
     <g id="text_7">
      <!-- $150$ -->
      <g transform="translate(315.745896 292.760236)scale(0.12 -0.12)">
       <use transform="scale(0.996264)" xlink:href="#CMR17-49"/>
       <use transform="translate(45.690477 0)scale(0.996264)" xlink:href="#CMR17-53"/>
       <use transform="translate(91.380954 0)scale(0.996264)" xlink:href="#CMR17-48"/>
      </g>
     </g>
    </g>
    <g id="xtick_8">
     <g id="line2d_8">
      <g>
       <use style="stroke:#000000;stroke-width:0.8;" x="367.207648" xlink:href="#mf1b8596873" y="277.458056"/>
      </g>
     </g>
     <g id="text_8">
      <!-- $175$ -->
      <g transform="translate(358.428163 292.760236)scale(0.12 -0.12)">
       <use transform="scale(0.996264)" xlink:href="#CMR17-49"/>
       <use transform="translate(45.690477 0)scale(0.996264)" xlink:href="#CMR17-55"/>
       <use transform="translate(91.380954 0)scale(0.996264)" xlink:href="#CMR17-53"/>
      </g>
     </g>
    </g>
    <g id="xtick_9">
     <g id="line2d_9">
      <g>
       <use style="stroke:#000000;stroke-width:0.8;" x="409.889915" xlink:href="#mf1b8596873" y="277.458056"/>
      </g>
     </g>
     <g id="text_9">
      <!-- $200$ -->
      <g transform="translate(401.11043 292.760236)scale(0.12 -0.12)">
       <use transform="scale(0.996264)" xlink:href="#CMR17-50"/>
       <use transform="translate(45.690477 0)scale(0.996264)" xlink:href="#CMR17-48"/>
       <use transform="translate(91.380954 0)scale(0.996264)" xlink:href="#CMR17-48"/>
      </g>
     </g>
    </g>
    <g id="text_10">
     <!-- Image size [pixels] -->
     <defs>
      <path d="M 19.703125 61.015625 
C 19.703125 65.5 20.90625 65.5 28.09375 65.5 
L 28.09375 68 
C 24.90625 68 19.796875 68 16.40625 68 
C 13 68 7.90625 68 4.703125 68 
L 4.703125 65.5 
C 11.90625 65.5 13.09375 65.5 13.09375 61.015625 
L 13.09375 6.984375 
C 13.09375 2.5 11.90625 2.5 4.703125 2.5 
L 4.703125 0 
C 7.90625 0 13 0 16.40625 0 
C 19.796875 0 24.90625 0 28.09375 0 
L 28.09375 2.5 
C 20.90625 2.5 19.703125 2.5 19.703125 6.984375 
z
" id="CMR17-73"/>
      <path d="M 67.59375 30.203125 
C 67.59375 35.1875 66.703125 43.59375 54.796875 43.59375 
C 48 43.59375 43.296875 39 41.5 33.609375 
L 41.40625 33.609375 
C 40.203125 41.8125 34.296875 43.59375 28.703125 43.59375 
C 20.796875 43.59375 16.703125 37.5 15.203125 33.5 
L 15.09375 33.5 
L 15.09375 43.59375 
L 3.296875 42.5 
L 3.296875 39.90625 
C 9.203125 39.90625 10.09375 39.296875 10.09375 34.5 
L 10.09375 6.6875 
C 10.09375 2.875 9.703125 2.390625 3.296875 2.390625 
L 3.296875 -0.203125 
C 5.703125 0 10.09375 0 12.703125 0 
C 15.296875 0 19.796875 0 22.203125 -0.203125 
L 22.203125 2.390625 
C 15.796875 2.390625 15.40625 2.78125 15.40625 6.6875 
L 15.40625 25.90625 
C 15.40625 35.109375 21 42 28 42 
C 35.40625 42 36.203125 35.40625 36.203125 30.59375 
L 36.203125 6.6875 
C 36.203125 2.875 35.796875 2.390625 29.40625 2.390625 
L 29.40625 -0.203125 
C 31.796875 0 36.203125 0 38.796875 0 
C 41.40625 0 45.90625 0 48.296875 -0.203125 
L 48.296875 2.390625 
C 41.90625 2.390625 41.5 2.78125 41.5 6.6875 
L 41.5 25.90625 
C 41.5 35.109375 47.09375 42 54.09375 42 
C 61.5 42 62.296875 35.40625 62.296875 30.59375 
L 62.296875 6.6875 
C 62.296875 2.875 61.90625 2.390625 55.5 2.390625 
L 55.5 -0.203125 
C 57.90625 0 62.296875 0 64.90625 0 
C 67.5 0 72 0 74.40625 -0.203125 
L 74.40625 2.390625 
C 68 2.390625 67.59375 2.78125 67.59375 6.6875 
z
" id="CMR17-109"/>
      <path d="M 36 25.828125 
C 36 32.375 36 35.84375 31.796875 39.734375 
C 28.09375 43 23.796875 44 20.40625 44 
C 12.5 44 6.796875 37.609375 6.796875 30.796875 
C 6.796875 27 9.796875 27 10.40625 27 
C 11.703125 27 14 27.78125 14 30.53125 
C 14 33 12.09375 34.078125 10.40625 34.078125 
C 10 34.078125 9.5 33.96875 9.203125 33.875 
C 11.296875 40.5 16.703125 42.40625 20.203125 42.40625 
C 25.203125 42.40625 30.703125 37.953125 30.703125 29.453125 
L 30.703125 25 
C 24.796875 25 17.703125 24.203125 12.09375 21.203125 
C 5.796875 17.703125 4 12.703125 4 8.90625 
C 4 1.203125 13 -1 18.296875 -1 
C 23.796875 -1 28.90625 2.171875 31.09375 7.984375 
C 31.296875 3.640625 34.09375 -0.28125 38.5 -0.28125 
C 40.59375 -0.28125 45.90625 1.09375 45.90625 8.859375 
L 45.90625 14.375 
L 44.09375 14.375 
L 44.09375 8.78125 
C 44.09375 2.78125 41.40625 2 40.09375 2 
C 36 2 36 7.15625 36 11.53125 
z
M 30.703125 13.59375 
C 30.703125 4.953125 24.5 0.59375 19 0.59375 
C 14 0.59375 10.09375 4.296875 10.09375 8.90625 
C 10.09375 11.890625 11.40625 17.1875 17.203125 20.390625 
C 22 23.09375 27.5 23.5 30.703125 23.5 
z
" id="CMR17-97"/>
      <path d="M 11.09375 18.1875 
C 13 16.6875 16.296875 15 20.296875 15 
C 28.203125 15 35 21.203125 35 29.5 
C 35 32.09375 34.203125 36.09375 31.203125 39.203125 
C 34 42.0625 38.09375 43 40.40625 43 
C 40.796875 43 41.40625 43 41.90625 42.71875 
C 41.5 42.625 40.59375 42.234375 40.59375 40.703125 
C 40.59375 39.484375 41.5 38.609375 42.796875 38.609375 
C 44.296875 38.609375 45.09375 39.578125 45.09375 40.84375 
C 45.09375 42.671875 43.59375 44.59375 40.40625 44.59375 
C 36.40625 44.59375 32.90625 42.78125 30.09375 40.3125 
C 27.09375 43.015625 23.5 44 20.296875 44 
C 12.40625 44 5.59375 37.796875 5.59375 29.5 
C 5.59375 23.78125 8.90625 20.1875 9.90625 19.1875 
C 6.90625 15.6875 6.90625 11.609375 6.90625 11.109375 
C 6.90625 8.515625 7.90625 4.71875 11.296875 2.625 
C 6.09375 1.328125 2 -2.640625 2 -7.59375 
C 2 -14.734375 11.5 -20 22.90625 -20 
C 33.90625 -20 43.796875 -14.9375 43.796875 -7.484375 
C 43.796875 6 29 6 21.296875 6 
C 19 6 14.90625 6 14.40625 6.109375 
C 11.296875 6.609375 9.203125 9.40625 9.203125 12.90625 
C 9.203125 13.796875 9.203125 16 11.09375 18.1875 
z
M 20.296875 16.6875 
C 11.5 16.6875 11.5 27.5 11.5 29.515625 
C 11.5 31.5 11.5 42.3125 20.296875 42.3125 
C 29.09375 42.3125 29.09375 31.5 29.09375 29.515625 
C 29.09375 27.5 29.09375 16.6875 20.296875 16.6875 
z
M 22.90625 -18.296875 
C 12.90625 -18.296875 6 -13.046875 6 -7.59375 
C 6 -4.515625 7.703125 -1.640625 9.90625 -0.0625 
C 12.40625 1.625 13.40625 1.625 20.203125 1.625 
C 28.40625 1.625 39.796875 1.625 39.796875 -7.59375 
C 39.796875 -13.046875 32.90625 -18.296875 22.90625 -18.296875 
z
" id="CMR17-103"/>
      <path d="M 38.09375 23 
C 38.5 23.40625 38.5 23.609375 38.5 24.625 
C 38.5 34.96875 33.09375 44 21.703125 44 
C 11.09375 44 2.703125 33.890625 2.703125 21.609375 
C 2.703125 8.609375 12.203125 -1 22.796875 -1 
C 34 -1 38.40625 9.484375 38.40625 11.5625 
C 38.40625 12.25 37.796875 12.25 37.59375 12.25 
C 36.90625 12.25 36.796875 12.046875 36.40625 10.875 
C 34.203125 4.140625 28.703125 0.796875 23.5 0.796875 
C 19.203125 0.796875 14.90625 3.171875 12.203125 7.5 
C 9.09375 12.546875 9.09375 18.375 9.09375 23 
z
M 9.203125 24.5 
C 9.90625 39.140625 17.59375 42.40625 21.59375 42.40625 
C 28.40625 42.40625 33 35.890625 33.09375 24.5 
z
" id="CMR17-101"/>
      <path d="M 30.90625 42.140625 
C 30.90625 43.953125 30.796875 44.046875 30.203125 44.046875 
C 29.796875 44.046875 29.703125 43.953125 28.5 42.453125 
C 28.203125 42.046875 27.296875 41.03125 27 40.640625 
C 23.796875 44.046875 19.296875 44.046875 17.59375 44.046875 
C 6.5 44.046875 2.5 38.234375 2.5 32.4375 
C 2.5 23.40625 12.703125 21.328125 15.59375 20.703125 
C 21.90625 19.421875 24.09375 19.015625 26.203125 17.203125 
C 27.5 16.015625 29.703125 13.8125 29.703125 10.21875 
C 29.703125 6 27.296875 0.59375 18.09375 0.59375 
C 9.40625 0.59375 6.296875 7.1875 4.5 15.953125 
C 4.203125 17.34375 4.203125 17.453125 3.40625 17.453125 
C 2.59375 17.453125 2.5 17.34375 2.5 15.359375 
L 2.5 0.984375 
C 2.5 -0.796875 2.59375 -0.90625 3.203125 -0.90625 
C 3.703125 -0.90625 3.796875 -0.796875 4.296875 0 
C 4.90625 0.890625 6.40625 3.296875 7 4.3125 
C 9 1.609375 12.5 -1 18.09375 -1 
C 28 -1 33.296875 4.421875 33.296875 12.25 
C 33.296875 17.375 30.59375 20.078125 29.296875 21.28125 
C 26.296875 24.390625 22.796875 25.09375 18.59375 25.890625 
C 13.09375 27.109375 6.09375 28.515625 6.09375 34.640625 
C 6.09375 37.234375 7.5 42.765625 17.59375 42.765625 
C 28.296875 42.765625 28.90625 32.71875 29.09375 29.5 
C 29.203125 29 29.703125 28.890625 30 28.890625 
C 30.90625 28.890625 30.90625 29.203125 30.90625 30.90625 
z
" id="CMR17-115"/>
      <path d="M 15.5 61.078125 
C 15.5 63.265625 13.703125 65.15625 11.40625 65.15625 
C 9.203125 65.15625 7.296875 63.375 7.296875 61.078125 
C 7.296875 58.890625 9.09375 57 11.40625 57 
C 13.59375 57 15.5 58.796875 15.5 61.078125 
z
M 3.796875 42.28125 
L 3.796875 39.703125 
C 9.40625 39.703125 10.203125 39.09375 10.203125 34.328125 
L 10.203125 6.671875 
C 10.203125 2.875 9.796875 2.390625 3.40625 2.390625 
L 3.40625 -0.203125 
C 5.796875 0 10.09375 0 12.59375 0 
C 15 0 19.09375 0 21.40625 -0.203125 
L 21.40625 2.390625 
C 15.5 2.390625 15.296875 2.984375 15.296875 6.5625 
L 15.296875 43.375 
z
" id="CMR17-105"/>
      <path d="M 36.09375 40.703125 
C 36.90625 41.71875 36.90625 41.90625 36.90625 42.109375 
C 36.90625 43 36.5 43 34.703125 43 
L 4.296875 43 
L 3.296875 27.5 
L 5.09375 27.5 
C 5.796875 37.203125 6.90625 41.40625 18.40625 41.40625 
L 30.59375 41.40625 
L 2 1.5 
C 2 0 2.09375 0 4.203125 0 
L 35.796875 0 
L 37.203125 18 
L 35.40625 18 
C 34.59375 6.90625 33.296875 1.796875 21.09375 1.796875 
L 8.296875 1.796875 
z
" id="CMR17-122"/>
      <path d="M 23.5 -25 
L 23.5 -21.515625 
L 14.09375 -21.515625 
L 14.09375 71 
L 23.5 71 
L 23.5 74.484375 
L 10.59375 74.484375 
L 10.59375 -25 
z
" id="CMR17-91"/>
      <path d="M 22 -16.609375 
C 15.59375 -16.609375 15.203125 -16.203125 15.203125 -12.328125 
L 15.203125 6.28125 
C 18.09375 2.09375 22.296875 -0.59375 27.59375 -0.59375 
C 37.59375 -0.59375 47.703125 8.171875 47.703125 21.6875 
C 47.703125 34.234375 39 43.78125 28.703125 43.78125 
C 22.703125 43.78125 17.796875 40.5 15 36.53125 
L 15 43.78125 
L 3.09375 42.6875 
L 3.09375 40.109375 
C 9 40.109375 9.90625 39.5 9.90625 34.734375 
L 9.90625 -12.328125 
C 9.90625 -16.109375 9.5 -16.609375 3.09375 -16.609375 
L 3.09375 -19.1875 
C 5.5 -19 9.90625 -19 12.5 -19 
C 15.09375 -19 19.59375 -19 22 -19.1875 
z
M 15.203125 31.4375 
C 15.203125 32.84375 15.203125 34.921875 19.09375 38.609375 
C 19.59375 39.015625 23 42 28 42 
C 35.296875 42 41.296875 32.9375 41.296875 21.59375 
C 41.296875 10.25 34.90625 1 27 1 
C 23.40625 1 19.5 2.6875 16.5 7.375 
C 15.203125 9.5625 15.203125 10.15625 15.203125 11.75 
z
" id="CMR17-112"/>
      <path d="M 26 23.078125 
C 29 26.96875 32.40625 31.34375 35.203125 34.625 
C 38.5 38.40625 42.296875 40 46.703125 40 
L 46.703125 42.59375 
C 45 42.59375 41.5 42.59375 39.703125 42.59375 
C 37 42.59375 33.90625 42.59375 31.59375 42.6875 
L 31.59375 40.09375 
C 33 39.890625 33.796875 38.890625 33.796875 37.5 
C 33.796875 35.703125 32.796875 34.609375 32.296875 33.921875 
L 24.90625 24.578125 
L 16.09375 36.03125 
C 15.203125 37.125 15.203125 37.3125 15.203125 37.8125 
C 15.203125 39.015625 16.203125 40 17.90625 40 
L 17.90625 42.6875 
C 15.5 42.59375 11.203125 42.59375 8.703125 42.59375 
C 6 42.59375 2.796875 42.59375 0.59375 42.6875 
L 0.59375 40 
C 6 40 7.203125 39.59375 9.59375 36.609375 
L 21.09375 21.796875 
C 21.296875 21.59375 21.796875 21 21.796875 20.703125 
C 21.796875 20.296875 13.09375 9.671875 12 8.28125 
C 7.5 2.890625 2.796875 2.5 0.09375 2.5 
L 0.09375 0 
C 1.796875 0 5.296875 0 7.09375 0 
C 9.09375 0 13.5 0 15.296875 -0.09375 
L 15.296875 2.5 
C 14.703125 2.59375 13.09375 2.796875 13.09375 5.078125 
C 13.09375 6.875 13.90625 7.96875 14.796875 9.15625 
L 23.09375 19.3125 
L 31.796875 8 
C 32.59375 6.90625 33.796875 5.40625 33.796875 4.703125 
C 33.796875 3.296875 32.59375 2.5 31 2.5 
L 31 -0.09375 
C 33.40625 0 37.703125 0 40.203125 0 
C 42.90625 0 46.09375 0 48.296875 -0.09375 
L 48.296875 2.5 
C 43.296875 2.5 41.796875 2.6875 39.40625 5.78125 
z
" id="CMR17-120"/>
      <path d="M 15.296875 68.6875 
L 3.40625 67.59375 
L 3.40625 65 
C 9.296875 65 10.203125 64.40625 10.203125 59.640625 
L 10.203125 6.65625 
C 10.203125 2.875 9.796875 2.390625 3.40625 2.390625 
L 3.40625 -0.203125 
C 5.796875 0 10.203125 0 12.703125 0 
C 15.296875 0 19.703125 0 22.09375 -0.203125 
L 22.09375 2.390625 
C 15.703125 2.390625 15.296875 2.78125 15.296875 6.65625 
z
" id="CMR17-108"/>
      <path d="M 14.296875 74.484375 
L 1.40625 74.484375 
L 1.40625 71 
L 10.796875 71 
L 10.796875 -21.515625 
L 1.40625 -21.515625 
L 1.40625 -25 
L 14.296875 -25 
z
" id="CMR17-93"/>
     </defs>
     <g transform="translate(197.192527 308.051208)scale(0.12 -0.12)">
      <use transform="scale(0.996264)" xlink:href="#CMR17-73"/>
      <use transform="translate(32.638409 0)scale(0.996264)" xlink:href="#CMR17-109"/>
      <use transform="translate(109.557999 0)scale(0.996264)" xlink:href="#CMR17-97"/>
      <use transform="translate(155.248476 0)scale(0.996264)" xlink:href="#CMR17-103"/>
      <use transform="translate(200.938953 0)scale(0.996264)" xlink:href="#CMR17-101"/>
      <use transform="translate(271.50058 0)scale(0.996264)" xlink:href="#CMR17-115"/>
      <use transform="translate(307.301918 0)scale(0.996264)" xlink:href="#CMR17-105"/>
      <use transform="translate(332.172976 0)scale(0.996264)" xlink:href="#CMR17-122"/>
      <use transform="translate(372.658637 0)scale(0.996264)" xlink:href="#CMR17-101"/>
      <use transform="translate(443.220263 0)scale(0.996264)" xlink:href="#CMR17-91"/>
      <use transform="translate(468.091322 0)scale(0.996264)" xlink:href="#CMR17-112"/>
      <use transform="translate(518.986692 0)scale(0.996264)" xlink:href="#CMR17-105"/>
      <use transform="translate(543.85775 0)scale(0.996264)" xlink:href="#CMR17-120"/>
      <use transform="translate(592.150666 0)scale(0.996264)" xlink:href="#CMR17-101"/>
      <use transform="translate(632.636327 0)scale(0.996264)" xlink:href="#CMR17-108"/>
      <use transform="translate(657.507385 0)scale(0.996264)" xlink:href="#CMR17-115"/>
      <use transform="translate(693.308723 0)scale(0.996264)" xlink:href="#CMR17-93"/>
     </g>
    </g>
   </g>
   <g id="matplotlib.axis_2">
    <g id="ytick_1">
     <g id="line2d_10">
      <defs>
       <path d="M 0 0 
L -3.5 0 
" id="m5c4d568338" style="stroke:#000000;stroke-width:0.8;"/>
      </defs>
      <g>
       <use style="stroke:#000000;stroke-width:0.8;" x="68.431781" xlink:href="#m5c4d568338" y="277.458056"/>
      </g>
     </g>
     <g id="text_11">
      <!-- $0.0000$ -->
      <defs>
       <path d="M 18.40625 4.796875 
C 18.40625 7.6875 16 9.671875 13.59375 9.671875 
C 10.703125 9.671875 8.703125 7.28125 8.703125 4.890625 
C 8.703125 2 11.09375 0 13.5 0 
C 16.40625 0 18.40625 2.390625 18.40625 4.796875 
z
" id="CMMI12-58"/>
      </defs>
      <g transform="translate(28.915168 281.609146)scale(0.12 -0.12)">
       <use transform="scale(0.996264)" xlink:href="#CMR17-48"/>
       <use transform="translate(45.690477 0)scale(0.996264)" xlink:href="#CMMI12-58"/>
       <use transform="translate(72.787654 0)scale(0.996264)" xlink:href="#CMR17-48"/>
       <use transform="translate(118.478131 0)scale(0.996264)" xlink:href="#CMR17-48"/>
       <use transform="translate(164.168608 0)scale(0.996264)" xlink:href="#CMR17-48"/>
       <use transform="translate(209.859086 0)scale(0.996264)" xlink:href="#CMR17-48"/>
      </g>
     </g>
    </g>
    <g id="ytick_2">
     <g id="line2d_11">
      <g>
       <use style="stroke:#000000;stroke-width:0.8;" x="68.431781" xlink:href="#m5c4d568338" y="227.053027"/>
      </g>
     </g>
     <g id="text_12">
      <!-- $0.0001$ -->
      <g transform="translate(28.915168 231.204117)scale(0.12 -0.12)">
       <use transform="scale(0.996264)" xlink:href="#CMR17-48"/>
       <use transform="translate(45.690477 0)scale(0.996264)" xlink:href="#CMMI12-58"/>
       <use transform="translate(72.787654 0)scale(0.996264)" xlink:href="#CMR17-48"/>
       <use transform="translate(118.478131 0)scale(0.996264)" xlink:href="#CMR17-48"/>
       <use transform="translate(164.168608 0)scale(0.996264)" xlink:href="#CMR17-48"/>
       <use transform="translate(209.859086 0)scale(0.996264)" xlink:href="#CMR17-49"/>
      </g>
     </g>
    </g>
    <g id="ytick_3">
     <g id="line2d_12">
      <g>
       <use style="stroke:#000000;stroke-width:0.8;" x="68.431781" xlink:href="#m5c4d568338" y="176.647997"/>
      </g>
     </g>
     <g id="text_13">
      <!-- $0.0002$ -->
      <g transform="translate(28.915168 180.799087)scale(0.12 -0.12)">
       <use transform="scale(0.996264)" xlink:href="#CMR17-48"/>
       <use transform="translate(45.690477 0)scale(0.996264)" xlink:href="#CMMI12-58"/>
       <use transform="translate(72.787654 0)scale(0.996264)" xlink:href="#CMR17-48"/>
       <use transform="translate(118.478131 0)scale(0.996264)" xlink:href="#CMR17-48"/>
       <use transform="translate(164.168608 0)scale(0.996264)" xlink:href="#CMR17-48"/>
       <use transform="translate(209.859086 0)scale(0.996264)" xlink:href="#CMR17-50"/>
      </g>
     </g>
    </g>
    <g id="ytick_4">
     <g id="line2d_13">
      <g>
       <use style="stroke:#000000;stroke-width:0.8;" x="68.431781" xlink:href="#m5c4d568338" y="126.242968"/>
      </g>
     </g>
     <g id="text_14">
      <!-- $0.0003$ -->
      <defs>
       <path d="M 22.09375 33.703125 
C 31 33.703125 34.90625 25.96875 34.90625 17.03125 
C 34.90625 5 28.5 0.390625 22.703125 0.390625 
C 17.40625 0.390625 8.796875 3.03125 6.09375 10.828125 
C 6.59375 10.625 7.09375 10.625 7.59375 10.625 
C 10 10.625 11.796875 12.21875 11.796875 14.8125 
C 11.796875 17.703125 9.59375 19 7.59375 19 
C 5.90625 19 3.296875 18.203125 3.296875 14.46875 
C 3.296875 5.234375 12.296875 -2 22.90625 -2 
C 34 -2 42.5 6.71875 42.5 16.953125 
C 42.5 26.671875 34.5 33.703125 25 34.796875 
C 32.59375 36.375 39.90625 43.0625 39.90625 52.015625 
C 39.90625 59.6875 32 65.296875 23 65.296875 
C 13.90625 65.296875 5.90625 59.828125 5.90625 52.015625 
C 5.90625 48.59375 8.5 48 9.796875 48 
C 11.90625 48 13.703125 49.296875 13.703125 51.890625 
C 13.703125 54.46875 11.90625 55.765625 9.796875 55.765625 
C 9.40625 55.765625 8.90625 55.765625 8.5 55.578125 
C 11.40625 61.859375 19.296875 63 22.796875 63 
C 26.296875 63 32.90625 61.328125 32.90625 51.875 
C 32.90625 49.109375 32.5 44.1875 29.09375 39.84375 
C 26.09375 36 22.703125 36 19.40625 35.6875 
C 18.90625 35.6875 16.59375 35.453125 16.203125 35.453125 
C 15.5 35.359375 15.09375 35.265625 15.09375 34.5 
C 15.09375 33.796875 15.203125 33.703125 17.203125 33.703125 
z
" id="CMR17-51"/>
      </defs>
      <g transform="translate(28.915168 130.394058)scale(0.12 -0.12)">
       <use transform="scale(0.996264)" xlink:href="#CMR17-48"/>
       <use transform="translate(45.690477 0)scale(0.996264)" xlink:href="#CMMI12-58"/>
       <use transform="translate(72.787654 0)scale(0.996264)" xlink:href="#CMR17-48"/>
       <use transform="translate(118.478131 0)scale(0.996264)" xlink:href="#CMR17-48"/>
       <use transform="translate(164.168608 0)scale(0.996264)" xlink:href="#CMR17-48"/>
       <use transform="translate(209.859086 0)scale(0.996264)" xlink:href="#CMR17-51"/>
      </g>
     </g>
    </g>
    <g id="ytick_5">
     <g id="line2d_14">
      <g>
       <use style="stroke:#000000;stroke-width:0.8;" x="68.431781" xlink:href="#m5c4d568338" y="75.837938"/>
      </g>
     </g>
     <g id="text_15">
      <!-- $0.0004$ -->
      <defs>
       <path d="M 33.59375 64.40625 
C 33.59375 66.5 33.5 66.5 31.703125 66.5 
L 2 19.59375 
L 2 17 
L 27.796875 17 
L 27.796875 7.140625 
C 27.796875 3.5 27.59375 2.5 20.59375 2.5 
L 18.703125 2.5 
L 18.703125 0 
C 21.90625 0 27.296875 0 30.703125 0 
C 34.09375 0 39.5 0 42.703125 0 
L 42.703125 2.5 
L 40.796875 2.5 
C 33.796875 2.5 33.59375 3.5 33.59375 7.140625 
L 33.59375 17 
L 43.796875 17 
L 43.796875 19.59375 
L 33.59375 19.59375 
z
M 28.09375 57.859375 
L 28.09375 19.59375 
L 4 19.59375 
z
" id="CMR17-52"/>
      </defs>
      <g transform="translate(28.915168 79.989028)scale(0.12 -0.12)">
       <use transform="scale(0.996264)" xlink:href="#CMR17-48"/>
       <use transform="translate(45.690477 0)scale(0.996264)" xlink:href="#CMMI12-58"/>
       <use transform="translate(72.787654 0)scale(0.996264)" xlink:href="#CMR17-48"/>
       <use transform="translate(118.478131 0)scale(0.996264)" xlink:href="#CMR17-48"/>
       <use transform="translate(164.168608 0)scale(0.996264)" xlink:href="#CMR17-48"/>
       <use transform="translate(209.859086 0)scale(0.996264)" xlink:href="#CMR17-52"/>
      </g>
     </g>
    </g>
    <g id="text_16">
     <!-- Time [s] -->
     <defs>
      <path d="M 62.203125 67.59375 
L 4.5 67.59375 
L 2.796875 45.59375 
L 4.59375 45.59375 
C 5.90625 62.125 7.296875 65 22.703125 65 
C 24.5 65 27.40625 65 28.203125 64.90625 
C 30.09375 64.609375 30.09375 63.40625 30.09375 61.125 
L 30.09375 7.171875 
C 30.09375 3.59375 29.796875 2.5 21.5 2.5 
L 18.703125 2.5 
L 18.703125 0 
C 23.5 0 28.5 0 33.40625 0 
C 38.296875 0 43.296875 0 48.09375 0 
L 48.09375 2.5 
L 45.296875 2.5 
C 37 2.5 36.703125 3.59375 36.703125 7.171875 
L 36.703125 61.125 
C 36.703125 63.3125 36.703125 64.515625 38.5 64.90625 
C 39.296875 65 42.203125 65 44 65 
C 59.296875 65 60.796875 62.125 62.09375 45.59375 
L 63.90625 45.59375 
z
" id="CMR17-84"/>
     </defs>
     <g transform="translate(21.926376 181.605085)rotate(-90)scale(0.12 -0.12)">
      <use transform="scale(0.996264)" xlink:href="#CMR17-84"/>
      <use transform="translate(66.509881 0)scale(0.996264)" xlink:href="#CMR17-105"/>
      <use transform="translate(91.380939 0)scale(0.996264)" xlink:href="#CMR17-109"/>
      <use transform="translate(168.300529 0)scale(0.996264)" xlink:href="#CMR17-101"/>
      <use transform="translate(238.862156 0)scale(0.996264)" xlink:href="#CMR17-91"/>
      <use transform="translate(263.733214 0)scale(0.996264)" xlink:href="#CMR17-115"/>
      <use transform="translate(299.534552 0)scale(0.996264)" xlink:href="#CMR17-93"/>
     </g>
    </g>
   </g>
   <g id="line2d_15">
    <path clip-path="url(#p78106a72c2)" d="M 70.139071 267.007325 
L 71.846362 265.377793 
L 73.553653 265.289378 
L 75.260943 265.441376 
L 76.968234 265.26217 
L 78.675525 265.350632 
L 80.382815 265.210889 
L 82.090106 265.18563 
L 83.797397 264.593865 
L 88.919269 264.533619 
L 90.626559 264.292976 
L 94.041141 264.334937 
L 95.748431 264.143348 
L 97.455722 263.198953 
L 99.163013 263.011412 
L 100.870303 263.017724 
L 102.577594 263.223412 
L 104.284885 262.732975 
L 105.992175 262.910076 
L 109.406757 262.693166 
L 111.114047 261.306483 
L 116.235919 261.398631 
L 117.94321 260.670076 
L 119.650501 260.719297 
L 121.357791 260.646599 
L 123.065082 260.320165 
L 124.772373 258.328266 
L 126.479663 258.75459 
L 129.894245 258.620064 
L 131.601535 257.929646 
L 135.016117 257.856488 
L 136.723407 257.462979 
L 138.430698 255.451375 
L 140.137989 255.55491 
L 143.55257 255.507966 
L 145.259861 254.564356 
L 148.674442 254.629729 
L 150.381733 253.91368 
L 152.089024 251.641984 
L 153.796314 251.533167 
L 155.503605 251.729439 
L 157.210896 251.710561 
L 158.918186 250.553972 
L 162.332768 250.61583 
L 164.040058 249.8384 
L 165.747349 246.998342 
L 169.16193 247.15522 
L 170.869221 247.218615 
L 172.576512 245.821999 
L 174.283802 245.926156 
L 175.991093 245.86777 
L 177.698384 244.982879 
L 179.405674 241.874148 
L 181.112965 241.993867 
L 182.820256 241.939611 
L 184.527546 241.999158 
L 186.234837 240.231451 
L 187.942128 240.433798 
L 189.649418 240.483696 
L 191.356709 239.48407 
L 193.064 236.059097 
L 194.77129 236.249619 
L 196.478581 236.276824 
L 198.185872 234.515386 
L 199.893162 234.712703 
L 201.600453 234.536686 
L 203.307744 234.662719 
L 205.015034 233.410071 
L 206.722325 229.427551 
L 208.429616 229.842058 
L 211.844197 229.946881 
L 213.551488 228.072215 
L 216.966069 227.994025 
L 218.67336 226.774015 
L 220.38065 222.572695 
L 225.502522 223.04091 
L 227.209813 220.910126 
L 230.624394 221.070978 
L 232.331685 219.539548 
L 234.038976 215.080523 
L 235.746266 214.74505 
L 237.453557 215.25886 
L 239.160848 215.36725 
L 240.868138 213.02816 
L 242.575429 213.013827 
L 244.28272 213.270416 
L 245.99001 211.722173 
L 247.697301 206.832028 
L 249.404592 206.803469 
L 251.111882 207.122524 
L 252.819173 207.109718 
L 254.526464 204.738691 
L 256.233754 204.464426 
L 257.941045 204.58923 
L 259.648336 203.097028 
L 261.355627 197.899422 
L 263.062917 198.115647 
L 264.770208 198.034152 
L 266.477499 198.227911 
L 268.184789 195.587702 
L 269.89208 195.770646 
L 271.599371 195.610577 
L 273.306661 193.422129 
L 275.013952 188.297456 
L 276.721243 188.581317 
L 278.428533 188.392253 
L 280.135824 188.729503 
L 281.843115 185.834193 
L 283.550405 185.250759 
L 285.257696 185.919822 
L 286.964987 183.809778 
L 288.672277 178.079536 
L 290.379568 178.401103 
L 292.086859 178.100933 
L 293.794149 178.073775 
L 295.50144 175.661119 
L 297.208731 175.755758 
L 298.916021 175.572891 
L 300.623312 173.534985 
L 302.330603 167.789968 
L 304.037893 167.833108 
L 307.452475 167.65013 
L 309.159765 164.711884 
L 310.867056 164.85288 
L 312.574347 164.761871 
L 314.281637 162.710819 
L 315.988928 156.108507 
L 319.403509 156.316319 
L 321.1108 155.997541 
L 322.818091 153.167075 
L 326.232672 152.938217 
L 327.939963 149.794497 
L 329.647253 144.019155 
L 331.354544 144.22074 
L 333.061835 143.949421 
L 334.769125 144.171265 
L 336.476416 140.259693 
L 338.183707 140.005402 
L 339.890997 140.651707 
L 341.598288 137.763403 
L 343.305579 130.895121 
L 345.012869 131.136391 
L 346.72016 130.411718 
L 348.427451 130.338347 
L 350.134741 127.440325 
L 351.842032 127.138694 
L 353.549323 127.759714 
L 355.256613 122.896127 
L 356.963904 117.156658 
L 358.671195 117.326895 
L 360.378485 116.984087 
L 362.085776 114.623961 
L 365.500357 112.515224 
L 367.207648 111.542374 
L 368.914939 108.932981 
L 370.622229 100.408501 
L 372.32952 101.593557 
L 374.036811 100.644524 
L 375.744101 100.539992 
L 377.451392 95.804083 
L 379.158683 95.248074 
L 380.865974 96.253638 
L 382.573264 91.460808 
L 384.280555 85.320804 
L 385.987846 83.369819 
L 387.695136 85.378505 
L 389.402427 84.01311 
L 391.109718 79.326407 
L 392.817008 78.604355 
L 394.524299 76.863944 
L 396.23159 75.457956 
L 397.93888 65.096826 
L 399.646171 67.828354 
L 401.353462 65.67182 
L 403.060752 63.878398 
L 404.768043 59.581711 
L 406.475334 60.982047 
L 409.889915 54.682079 
L 409.889915 54.682079 
" style="fill:none;stroke:#1f77b4;stroke-linecap:square;stroke-width:1.5;"/>
   </g>
   <g id="line2d_16">
    <path clip-path="url(#p78106a72c2)" d="M 70.139071 266.179659 
L 71.846362 265.562394 
L 73.553653 265.543497 
L 75.260943 265.657504 
L 80.382815 265.602365 
L 82.090106 265.720015 
L 83.797397 265.478482 
L 90.626559 265.184009 
L 92.33385 265.358164 
L 94.041141 265.295746 
L 95.748431 265.487633 
L 97.455722 265.029782 
L 100.870303 264.867646 
L 102.577594 264.970114 
L 104.284885 264.802037 
L 107.699466 264.840242 
L 109.406757 265.06189 
L 111.114047 264.51076 
L 112.821338 264.63874 
L 114.528629 264.494013 
L 116.235919 264.530313 
L 117.94321 264.358178 
L 121.357791 264.287764 
L 123.065082 264.547999 
L 124.772373 263.832115 
L 126.479663 263.858349 
L 128.186954 262.928647 
L 129.894245 263.837196 
L 131.601535 263.630581 
L 133.308826 263.799902 
L 135.016117 263.440414 
L 136.723407 263.946502 
L 138.430698 263.06562 
L 140.137989 263.197351 
L 141.84528 262.829197 
L 143.55257 263.027121 
L 145.259861 262.704237 
L 146.967152 262.9383 
L 148.674442 262.764722 
L 150.381733 263.093995 
L 152.089024 261.935287 
L 153.796314 262.099183 
L 155.503605 261.99907 
L 157.210896 262.206596 
L 158.918186 261.653662 
L 160.625477 261.811736 
L 162.332768 261.644867 
L 164.040058 262.153317 
L 165.747349 260.873748 
L 167.45464 261.035091 
L 169.16193 260.757221 
L 170.869221 261.106047 
L 172.576512 260.405146 
L 174.283802 260.739378 
L 175.991093 260.401445 
L 177.698384 260.945944 
L 179.405674 259.436929 
L 181.112965 259.766909 
L 182.820256 259.454907 
L 184.527546 259.730474 
L 186.234837 258.826086 
L 187.942128 259.107077 
L 189.649418 258.840314 
L 191.356709 259.86088 
L 193.064 257.869865 
L 194.77129 258.406632 
L 196.478581 257.817106 
L 198.185872 258.364005 
L 199.893162 257.466707 
L 201.600453 258.001026 
L 203.307744 257.409508 
L 205.015034 258.492622 
L 206.722325 256.358123 
L 208.429616 256.832152 
L 210.136906 256.345691 
L 211.844197 256.923665 
L 213.551488 255.646976 
L 215.258778 256.301649 
L 216.966069 255.785634 
L 218.67336 257.030945 
L 220.38065 254.47099 
L 222.087941 255.094853 
L 223.795232 254.395168 
L 225.502522 255.301154 
L 227.209813 254.088198 
L 228.917104 254.701583 
L 230.624394 254.022759 
L 232.331685 255.386095 
L 234.038976 252.784404 
L 235.746266 253.498994 
L 237.453557 252.830084 
L 239.160848 253.429369 
L 240.868138 252.218138 
L 242.575429 252.969443 
L 244.28272 252.178498 
L 245.99001 253.618002 
L 247.697301 250.762191 
L 249.404592 251.372605 
L 251.111882 250.645129 
L 252.819173 251.622183 
L 254.526464 250.041023 
L 256.233754 250.936464 
L 257.941045 249.62387 
L 259.648336 251.706516 
L 261.355627 248.472751 
L 263.062917 249.700546 
L 264.770208 248.127045 
L 266.477499 249.520831 
L 268.184789 247.950283 
L 269.89208 249.060118 
L 271.599371 247.962136 
L 273.306661 249.741276 
L 275.013952 246.366066 
L 276.721243 247.522314 
L 278.428533 246.367627 
L 280.135824 247.638621 
L 281.843115 245.657507 
L 283.550405 246.78002 
L 285.257696 245.663517 
L 286.964987 247.313197 
L 288.672277 243.994374 
L 290.379568 244.95803 
L 292.086859 243.943747 
L 293.794149 245.005846 
L 295.50144 243.184272 
L 297.208731 244.681665 
L 298.916021 243.290868 
L 300.623312 245.489902 
L 302.330603 241.535474 
L 304.037893 242.442156 
L 305.745184 241.327637 
L 307.452475 243.101769 
L 309.159765 240.608163 
L 310.867056 242.333596 
L 312.574347 240.668647 
L 314.281637 242.983518 
L 315.988928 238.76013 
L 317.696219 240.2274 
L 319.403509 238.56897 
L 321.1108 240.635209 
L 322.818091 237.997057 
L 324.525381 239.633193 
L 326.232672 237.715089 
L 327.939963 240.701767 
L 329.647253 235.689657 
L 331.354544 237.356047 
L 333.061835 235.590784 
L 334.769125 238.049743 
L 336.476416 235.096938 
L 338.183707 237.189321 
L 339.890997 234.575089 
L 341.598288 236.234351 
L 343.305579 232.515227 
L 345.012869 234.847239 
L 346.72016 231.865629 
L 348.427451 234.418942 
L 350.134741 232.024024 
L 351.842032 233.708547 
L 353.549323 230.95547 
L 355.256613 233.17054 
L 356.963904 228.772179 
L 358.671195 230.52293 
L 360.378485 228.745863 
L 362.085776 231.701584 
L 363.793067 227.013032 
L 365.500357 229.658664 
L 367.207648 226.848835 
L 368.914939 230.202874 
L 370.622229 224.728374 
L 372.32952 226.667427 
L 374.036811 224.749566 
L 375.744101 227.589213 
L 377.451392 222.907592 
L 379.158683 225.979261 
L 380.865974 221.639092 
L 382.573264 224.983866 
L 384.280555 219.95782 
L 385.987846 223.3157 
L 387.695136 220.843286 
L 389.402427 222.513369 
L 391.109718 218.423926 
L 392.817008 218.366023 
L 394.524299 216.083827 
L 396.23159 218.638346 
L 397.93888 213.097171 
L 399.646171 217.337539 
L 401.353462 213.537293 
L 403.060752 216.721276 
L 404.768043 211.140706 
L 406.475334 212.189461 
L 408.182624 208.130623 
L 409.889915 213.258857 
L 409.889915 213.258857 
" style="fill:none;stroke:#ff7f0e;stroke-linecap:square;stroke-width:1.5;"/>
   </g>
   <g id="patch_3">
    <path d="M 68.431781 277.458056 
L 68.431781 44.065817 
" style="fill:none;stroke:#000000;stroke-linecap:square;stroke-linejoin:miter;stroke-width:0.8;"/>
   </g>
   <g id="patch_4">
    <path d="M 418.426368 277.458056 
L 418.426368 44.065817 
" style="fill:none;stroke:#000000;stroke-linecap:square;stroke-linejoin:miter;stroke-width:0.8;"/>
   </g>
   <g id="patch_5">
    <path d="M 68.431781 277.458056 
L 418.426368 277.458056 
" style="fill:none;stroke:#000000;stroke-linecap:square;stroke-linejoin:miter;stroke-width:0.8;"/>
   </g>
   <g id="patch_6">
    <path d="M 68.431781 44.065817 
L 418.426368 44.065817 
" style="fill:none;stroke:#000000;stroke-linecap:square;stroke-linejoin:miter;stroke-width:0.8;"/>
   </g>
   <g id="text_17">
    <!-- Comparison of \verb|alpha_overlay_stride| -->
    <defs>
     <path d="M 62.09375 67.015625 
C 62.09375 68.796875 62 68.90625 61.40625 68.90625 
C 61 68.90625 60.90625 68.796875 60.203125 67.609375 
L 55.796875 59.25 
C 50.90625 65.421875 44.90625 69 37.203125 69 
C 20.09375 69 4.59375 54 4.59375 33.5625 
C 4.59375 12.90625 20.09375 -2 37.296875 -2 
C 52.59375 -2 62.09375 11.40625 62.09375 22.828125 
C 62.09375 23.8125 62.09375 24.21875 61.203125 24.21875 
C 60.40625 24.21875 60.40625 23.921875 60.296875 23.03125 
C 59.5 9.140625 49.5 0.59375 38.703125 0.59375 
C 28.5 0.59375 12.203125 7.734375 12.203125 33.546875 
C 12.203125 59.453125 28.796875 66.40625 38.5 66.40625 
C 49.796875 66.40625 58 56.6875 59.90625 42.890625 
C 60.09375 41.6875 60.09375 41.484375 61 41.484375 
C 62.09375 41.484375 62.09375 41.6875 62.09375 43.484375 
z
" id="CMR17-67"/>
     <path d="M 43.09375 21.1875 
C 43.09375 34 33.796875 44 22.90625 44 
C 12 44 2.703125 34 2.703125 21.1875 
C 2.703125 8.609375 12 -1 22.90625 -1 
C 33.796875 -1 43.09375 8.609375 43.09375 21.1875 
z
M 22.90625 0.796875 
C 18.203125 0.796875 14.203125 3.59375 11.90625 7.5 
C 9.40625 11.984375 9.09375 17.59375 9.09375 22 
C 9.09375 26.203125 9.296875 31.40625 11.90625 35.90625 
C 13.90625 39.203125 17.796875 42.40625 22.90625 42.40625 
C 27.40625 42.40625 31.203125 39.90625 33.59375 36.40625 
C 36.703125 31.703125 36.703125 25.109375 36.703125 22 
C 36.703125 18.09375 36.5 12.109375 33.796875 7.296875 
C 31 2.703125 26.703125 0.796875 22.90625 0.796875 
z
" id="CMR17-111"/>
     <path d="M 15 23.390625 
C 15 33 19.09375 42 26.59375 42 
C 27.296875 42 28 41.90625 28.703125 41.59375 
C 28.703125 41.59375 26.5 40.890625 26.5 38.3125 
C 26.5 35.90625 28.40625 34.90625 29.90625 34.90625 
C 31.09375 34.90625 33.296875 35.609375 33.296875 38.40625 
C 33.296875 41.609375 30.09375 43.59375 26.703125 43.59375 
C 19.09375 43.59375 15.796875 36.203125 14.796875 32.703125 
L 14.703125 32.703125 
L 14.703125 43.59375 
L 3.09375 42.5 
L 3.09375 39.90625 
C 9 39.90625 9.90625 39.296875 9.90625 34.5 
L 9.90625 6.6875 
C 9.90625 2.875 9.5 2.390625 3.09375 2.390625 
L 3.09375 -0.203125 
C 5.5 0 10.09375 0 12.703125 0 
C 15.59375 0 20.703125 0 23.40625 -0.203125 
L 23.40625 2.390625 
C 16.203125 2.390625 15 2.390625 15 6.875 
z
" id="CMR17-114"/>
     <path d="M 41.5 30.203125 
C 41.5 35.296875 40.5 43.59375 28.703125 43.59375 
C 20.796875 43.59375 16.703125 37.5 15.203125 33.5 
L 15.09375 33.5 
L 15.09375 43.59375 
L 3.296875 42.5 
L 3.296875 39.90625 
C 9.203125 39.90625 10.09375 39.296875 10.09375 34.5 
L 10.09375 6.6875 
C 10.09375 2.875 9.703125 2.390625 3.296875 2.390625 
L 3.296875 -0.203125 
C 5.703125 0 10.09375 0 12.703125 0 
C 15.296875 0 19.796875 0 22.203125 -0.203125 
L 22.203125 2.390625 
C 15.796875 2.390625 15.40625 2.78125 15.40625 6.6875 
L 15.40625 25.90625 
C 15.40625 35.109375 21 42 28 42 
C 35.40625 42 36.203125 35.40625 36.203125 30.59375 
L 36.203125 6.6875 
C 36.203125 2.875 35.796875 2.390625 29.40625 2.390625 
L 29.40625 -0.203125 
C 31.796875 0 36.203125 0 38.796875 0 
C 41.40625 0 45.90625 0 48.296875 -0.203125 
L 48.296875 2.390625 
C 41.90625 2.390625 41.5 2.78125 41.5 6.6875 
z
" id="CMR17-110"/>
     <path d="M 15.296875 40 
L 26.703125 40 
L 26.703125 42.578125 
L 15.09375 42.578125 
L 15.09375 54.59375 
C 15.09375 62.84375 19.296875 68 23.59375 68 
C 24.90625 68 26.40625 67.609375 27.40625 66.90625 
C 26.59375 66.703125 24.5 66.015625 24.5 63.546875 
C 24.5 60.953125 26.5 60.15625 27.90625 60.15625 
C 29.296875 60.15625 31.296875 60.953125 31.296875 63.546875 
C 31.296875 67.3125 27.703125 69.59375 23.703125 69.59375 
C 18 69.59375 10.203125 64.9375 10.203125 54.390625 
L 10.203125 42.578125 
L 2.203125 42.578125 
L 2.203125 40 
L 10.203125 40 
L 10.203125 6.671875 
C 10.203125 2.875 9.796875 2.390625 3.40625 2.390625 
L 3.40625 -0.203125 
C 5.796875 0 10.40625 0 13 0 
C 15.90625 0 21 0 23.703125 -0.203125 
L 23.703125 2.390625 
C 16.5 2.390625 15.296875 2.390625 15.296875 6.859375 
z
" id="CMR17-102"/>
     <path d="M 41.40625 28.375 
C 41.40625 35.984375 35.703125 44 22.203125 44 
C 18 44 8.296875 44 8.296875 37.1875 
C 8.296875 34.53125 10.203125 33.046875 12.40625 33.046875 
C 13 33.046875 16.296875 33.046875 16.40625 37.3125 
C 16.40625 37.796875 16.5 37.90625 18.59375 38.09375 
C 19.796875 38.203125 21.09375 38.203125 22.296875 38.203125 
C 24.59375 38.203125 28 38.203125 31.296875 35.65625 
C 34.90625 32.8125 34.90625 29.9375 34.90625 27 
C 29 27 23.203125 27 17 24.984375 
C 12 23.265625 5.59375 19.625 5.59375 12.75 
C 5.59375 5.5625 11.90625 -0.5 21.203125 -0.5 
C 24.40625 -0.5 30.59375 0 35.796875 3.53125 
C 37.796875 0 42.796875 0 46.59375 0 
C 49 0 51.40625 0 51.40625 2.859375 
C 51.40625 5.703125 48.796875 5.703125 47.40625 5.703125 
C 44.796875 5.703125 42.796875 5.90625 41.40625 6.515625 
z
M 34.90625 13.296875 
C 34.90625 11 34.90625 8.890625 30.796875 7 
C 27.296875 5.296875 22.59375 5.296875 22.296875 5.296875 
C 16.40625 5.296875 12.09375 8.5 12.09375 12.59375 
C 12.09375 18.5 22.796875 21.890625 34.90625 21.890625 
z
" id="CMTT12-97"/>
     <path d="M 29 56.90625 
C 29 60 28.40625 61 25 61 
L 10.296875 61 
C 8.90625 61 6.296875 61 6.296875 58.109375 
C 6.296875 55.203125 8.90625 55.203125 10.296875 55.203125 
L 22.5 55.203125 
L 22.5 5.796875 
L 10.296875 5.796875 
C 8.90625 5.796875 6.296875 5.796875 6.296875 2.90625 
C 6.296875 0 8.90625 0 10.296875 0 
L 41.203125 0 
C 42.59375 0 45.203125 0 45.203125 2.90625 
C 45.203125 5.796875 42.59375 5.796875 41.203125 5.796875 
L 29 5.796875 
z
" id="CMTT12-108"/>
     <path d="M 20.203125 -22 
C 21.59375 -22 24.203125 -22 24.203125 -19.09375 
C 24.203125 -16.203125 21.59375 -16.203125 20.203125 -16.203125 
L 16.09375 -16.203125 
L 16.09375 5.09375 
C 18.5 2.390625 22.203125 -0.5 27.796875 -0.5 
C 38.40625 -0.5 47.703125 9.046875 47.703125 21.796875 
C 47.703125 34.15625 39.296875 44 28.90625 44 
C 21.59375 44 17 39.578125 16.09375 38.578125 
C 16.09375 41.625 16.09375 43 12.09375 43 
L 5.5 43 
C 4.09375 43 1.5 43 1.5 40.109375 
C 1.5 37.203125 4.09375 37.203125 5.5 37.203125 
L 9.59375 37.203125 
L 9.59375 -16.203125 
L 5.5 -16.203125 
C 4.09375 -16.203125 1.5 -16.203125 1.5 -19.09375 
C 1.5 -22 4.09375 -22 5.5 -22 
z
M 16.09375 26.828125 
C 16.09375 32.5625 21.703125 38.203125 28.203125 38.203125 
C 35.40625 38.203125 41.203125 30.84375 41.203125 21.796875 
C 41.203125 12.140625 34.40625 5.296875 27.296875 5.296875 
C 19.796875 5.296875 16.09375 13.84375 16.09375 18.875 
z
" id="CMTT12-112"/>
     <path d="M 41.796875 29.359375 
C 41.796875 39.171875 37.203125 43.796875 29 43.796875 
C 22.203125 43.796875 17.796875 40 16.09375 38.09375 
L 16.09375 56.9375 
C 16.09375 60.015625 15.5 61 12.09375 61 
L 5.5 61 
C 4.09375 61 1.5 61 1.5 58.109375 
C 1.5 55.203125 4.09375 55.203125 5.5 55.203125 
L 9.59375 55.203125 
L 9.59375 5.796875 
L 5.5 5.796875 
C 4.09375 5.796875 1.5 5.796875 1.5 2.90625 
C 1.5 0 4.09375 0 5.5 0 
L 20.203125 0 
C 21.59375 0 24.203125 0 24.203125 2.90625 
C 24.203125 5.796875 21.59375 5.796875 20.203125 5.796875 
L 16.09375 5.796875 
L 16.09375 23.953125 
C 16.09375 33.671875 22.90625 38 28.296875 38 
C 34.09375 38 35.296875 34.671875 35.296875 28.96875 
L 35.296875 5.796875 
L 31.203125 5.796875 
C 29.796875 5.796875 27.203125 5.796875 27.203125 2.90625 
C 27.203125 0 29.796875 0 31.203125 0 
L 45.90625 0 
C 47.296875 0 49.90625 0 49.90625 2.90625 
C 49.90625 5.796875 47.296875 5.796875 45.90625 5.796875 
L 41.796875 5.796875 
z
" id="CMTT12-104"/>
     <path d="M 41.40625 -9 
C 42.703125 -9 45.90625 -9 45.90625 -5.796875 
C 45.90625 -2.5 42.796875 -2.5 41.40625 -2.5 
L 10 -2.5 
C 8.703125 -2.5 5.5 -2.5 5.5 -5.703125 
C 5.5 -9 8.59375 -9 10 -9 
z
" id="CMTT12-95"/>
     <path d="M 45.59375 21.640625 
C 45.59375 34.109375 36.5 44 25.703125 44 
C 14.90625 44 5.796875 34.109375 5.796875 21.640625 
C 5.796875 9.078125 15 -0.5 25.703125 -0.5 
C 36.40625 -0.5 45.59375 9.078125 45.59375 21.640625 
z
M 25.703125 5.296875 
C 18.5 5.296875 12.296875 12.875 12.296875 22.34375 
C 12.296875 31.609375 18.703125 38.203125 25.703125 38.203125 
C 32.703125 38.203125 39.09375 31.609375 39.09375 22.34375 
C 39.09375 12.78125 32.90625 5.296875 25.703125 5.296875 
z
" id="CMTT12-111"/>
     <path d="M 42.40625 37.203125 
L 45 37.203125 
C 46.40625 37.203125 49.09375 37.203125 49.09375 40.109375 
C 49.09375 43 46.40625 43 45 43 
L 34 43 
C 32.59375 43 29.90625 43 29.90625 40.109375 
C 29.90625 37.203125 32.59375 37.203125 34 37.203125 
L 36.5 37.203125 
L 25.703125 5.078125 
L 14.90625 37.203125 
L 17.40625 37.203125 
C 18.796875 37.203125 21.5 37.203125 21.5 40.109375 
C 21.5 43 18.796875 43 17.40625 43 
L 6.40625 43 
C 5 43 2.296875 43 2.296875 40.109375 
C 2.296875 37.203125 5 37.203125 6.40625 37.203125 
L 9 37.203125 
L 20.5 2.890625 
C 21.59375 -0.5 23.796875 -0.5 25.703125 -0.5 
C 27.59375 -0.5 29.796875 -0.5 30.90625 2.890625 
z
" id="CMTT12-118"/>
     <path d="M 41.59375 19.5 
C 43.703125 19.5 45.59375 19.5 45.59375 23.15625 
C 45.59375 34.703125 39 44 26.5 44 
C 14.90625 44 5.59375 34.015625 5.59375 21.84375 
C 5.59375 9.28125 15.703125 -0.5 28 -0.5 
C 40.90625 -0.5 45.59375 8.453125 45.59375 11.078125 
C 45.59375 11.6875 45.40625 13.921875 42.296875 13.921875 
C 40.40625 13.921875 39.796875 13.203125 39.203125 11.6875 
C 36.703125 5.796875 30.203125 5.296875 28.296875 5.296875 
C 20 5.296875 13.40625 11.6875 12.296875 19.5 
z
M 12.40625 25 
C 13.703125 33.3125 20.203125 38.203125 26.5 38.203125 
C 36.5 38.203125 38.59375 29.890625 39 25 
z
" id="CMTT12-101"/>
     <path d="M 21.59375 18.9375 
C 21.59375 30.875 30 38 38.5 38 
C 39 38 39.59375 38 40.09375 37.890625 
C 40.40625 34.140625 43.203125 33.828125 43.90625 33.828125 
C 46.203125 33.828125 47.796875 35.546875 47.796875 37.78125 
C 47.796875 42.15625 43.59375 43.796875 38.59375 43.796875 
C 31.90625 43.796875 26.203125 40.734375 21.59375 35.015625 
L 21.59375 38.921875 
C 21.59375 42 21 43 17.59375 43 
L 7.5 43 
C 6.09375 43 3.5 43 3.5 40.109375 
C 3.5 37.203125 6.09375 37.203125 7.5 37.203125 
L 15.09375 37.203125 
L 15.09375 5.796875 
L 7.5 5.796875 
C 6.09375 5.796875 3.5 5.796875 3.5 2.90625 
C 3.5 0 6.09375 0 7.5 0 
L 32.09375 0 
C 33.5 0 36.09375 0 36.09375 2.90625 
C 36.09375 5.796875 33.5 5.796875 32.09375 5.796875 
L 21.59375 5.796875 
z
" id="CMTT12-114"/>
     <path d="M 42.40625 37.203125 
L 45 37.203125 
C 46.40625 37.203125 49.09375 37.203125 49.09375 40.109375 
C 49.09375 43 46.40625 43 45 43 
L 34 43 
C 32.59375 43 29.90625 43 29.90625 40.109375 
C 29.90625 37.203125 32.59375 37.203125 34 37.203125 
L 36.5 37.203125 
C 33.703125 29.0625 28 12.515625 26.59375 6.859375 
L 26.5 6.859375 
C 26 9.046875 25.59375 10.125 24.59375 12.8125 
L 15.296875 37.203125 
L 17.59375 37.203125 
C 19 37.203125 21.703125 37.203125 21.703125 40.109375 
C 21.703125 43 19 43 17.59375 43 
L 6.59375 43 
C 5.203125 43 2.5 43 2.5 40.109375 
C 2.5 37.203125 5.203125 37.203125 6.59375 37.203125 
L 9.296875 37.203125 
L 23.296875 1.46875 
C 23.703125 0.46875 23.703125 0.265625 23.703125 0.171875 
C 23.703125 -0.03125 21.09375 -8.671875 19.59375 -11.4375 
C 19 -12.4375 16.5 -17.109375 11.703125 -16.609375 
C 11.796875 -16.296875 12.09375 -15.703125 12.09375 -14.609375 
C 12.09375 -12.296875 10.5 -10.703125 8.203125 -10.703125 
C 5.703125 -10.703125 4.203125 -12.40625 4.203125 -14.703125 
C 4.203125 -18.5 7.40625 -22.5 12.40625 -22.5 
C 22.09375 -22.5 26.40625 -9.6875 26.703125 -8.890625 
z
" id="CMTT12-121"/>
     <path d="M 42 40.203125 
C 42 41.796875 42 44 39.203125 44 
C 36.796875 44 36.203125 41.703125 36.203125 41.59375 
C 32.203125 44 27.59375 44 25.59375 44 
C 9.296875 44 7.09375 35.71875 7.09375 32.328125 
C 7.09375 28.234375 9.5 25.453125 12.90625 23.546875 
C 16.09375 21.75 19 21.265625 27.203125 19.96875 
C 31.09375 19.265625 39.09375 17.96875 39.09375 12.484375 
C 39.09375 8.78125 35.703125 5.296875 26.40625 5.296875 
C 20 5.296875 15.796875 7.796875 13.703125 15 
C 13.203125 16.390625 12.90625 17.5 10.40625 17.5 
C 7.09375 17.5 7.09375 15.59375 7.09375 13.59375 
L 7.09375 3.296875 
C 7.09375 1.6875 7.09375 -0.5 9.90625 -0.5 
C 11.09375 -0.5 12 -0.5 13.5 3.59375 
C 18.09375 -0.5 23.296875 -0.5 26.40625 -0.5 
C 44.90625 -0.5 44.90625 11.46875 44.90625 12.46875 
C 44.90625 22.828125 32.5 24.9375 27.703125 25.625 
C 18.90625 27.125 12.90625 28.125 12.90625 32.3125 
C 12.90625 35.015625 16 38.203125 25.40625 38.203125 
C 34.90625 38.203125 35.296875 33.703125 35.5 31.09375 
C 35.703125 29.09375 37.5 28.796875 38.703125 28.796875 
C 42 28.796875 42 30.59375 42 32.59375 
z
" id="CMTT12-115"/>
     <path d="M 21.59375 37.203125 
L 37.796875 37.203125 
C 39.203125 37.203125 41.796875 37.203125 41.796875 40.109375 
C 41.796875 43 39.203125 43 37.796875 43 
L 21.59375 43 
L 21.59375 51.328125 
C 21.59375 53.15625 21.59375 55.5 18.40625 55.5 
C 15.09375 55.5 15.09375 53.15625 15.09375 51.328125 
L 15.09375 43 
L 6.59375 43 
C 5.203125 43 2.5 43 2.5 40.109375 
C 2.5 37.203125 5.09375 37.203125 6.5 37.203125 
L 15.09375 37.203125 
L 15.09375 12.125 
C 15.09375 2.875 21.5 -0.5 28.703125 -0.5 
C 34.09375 -0.5 44 2.171875 44 12.34375 
C 44 14.34375 44 16.53125 40.703125 16.53125 
C 37.5 16.53125 37.5 14.34375 37.5 12.265625 
C 37.40625 6.296875 31.703125 5.296875 29.40625 5.296875 
C 21.59375 5.296875 21.59375 10.265625 21.59375 12.640625 
z
" id="CMTT12-116"/>
     <path d="M 30.203125 56.5 
C 30.203125 59 28.203125 61 25.703125 61 
C 23.203125 61 21.203125 59 21.203125 56.5 
C 21.203125 54 23.203125 52 25.703125 52 
C 28.203125 52 30.203125 54 30.203125 56.5 
z
M 13 43 
C 11.59375 43 9 43 9 40.109375 
C 9 37.203125 11.59375 37.203125 13 37.203125 
L 23.703125 37.203125 
L 23.703125 5.796875 
L 12.296875 5.796875 
C 10.90625 5.796875 8.203125 5.796875 8.203125 2.90625 
C 8.203125 0 10.90625 0 12.296875 0 
L 40.09375 0 
C 41.5 0 44.09375 0 44.09375 2.90625 
C 44.09375 5.796875 41.5 5.796875 40.09375 5.796875 
L 30.203125 5.796875 
L 30.203125 38.921875 
C 30.203125 42 29.59375 43 26.203125 43 
z
" id="CMTT12-105"/>
     <path d="M 41.796875 56.90625 
C 41.796875 60 41.203125 61 37.796875 61 
L 31.203125 61 
C 29.796875 61 27.203125 61 27.203125 58.109375 
C 27.203125 55.203125 29.796875 55.203125 31.203125 55.203125 
L 35.296875 55.203125 
L 35.296875 38.796875 
C 33.703125 40.390625 29.59375 43.796875 23.5 43.796875 
C 12.90625 43.796875 3.703125 34.1875 3.703125 21.59375 
C 3.703125 9.296875 12.296875 -0.5 22.59375 -0.5 
C 29.09375 -0.5 33.40625 3.359375 35.296875 5.546875 
C 35.296875 1.3125 35.296875 0 39.296875 0 
L 45.90625 0 
C 47.296875 0 49.90625 0 49.90625 2.90625 
C 49.90625 5.796875 47.296875 5.796875 45.90625 5.796875 
L 41.796875 5.796875 
z
M 35.296875 19.09375 
C 35.296875 13.5 30.703125 5.296875 23.203125 5.296875 
C 16 5.296875 10.203125 12.59375 10.203125 21.59375 
C 10.203125 31.1875 17 38 24.09375 38 
C 30.59375 38 35.296875 32.09375 35.296875 26.890625 
z
" id="CMTT12-100"/>
    </defs>
    <g transform="translate(122.548089 22.922625)scale(0.144 -0.144)">
     <use transform="scale(0.996264)" xlink:href="#CMR17-67"/>
     <use transform="translate(66.509881 0)scale(0.996264)" xlink:href="#CMR17-111"/>
     <use transform="translate(112.200358 0)scale(0.996264)" xlink:href="#CMR17-109"/>
     <use transform="translate(189.119948 0)scale(0.996264)" xlink:href="#CMR17-112"/>
     <use transform="translate(240.015317 0)scale(0.996264)" xlink:href="#CMR17-97"/>
     <use transform="translate(285.705794 0)scale(0.996264)" xlink:href="#CMR17-114"/>
     <use transform="translate(320.986562 0)scale(0.996264)" xlink:href="#CMR17-105"/>
     <use transform="translate(345.857621 0)scale(0.996264)" xlink:href="#CMR17-115"/>
     <use transform="translate(381.658958 0)scale(0.996264)" xlink:href="#CMR17-111"/>
     <use transform="translate(427.349435 0)scale(0.996264)" xlink:href="#CMR17-110"/>
     <use transform="translate(508.320772 0)scale(0.996264)" xlink:href="#CMR17-111"/>
     <use transform="translate(554.011249 0)scale(0.996264)" xlink:href="#CMR17-102"/>
     <use transform="translate(611.560727 0)scale(0.996264)" xlink:href="#CMTT12-97"/>
     <use transform="translate(662.826838 0)scale(0.996264)" xlink:href="#CMTT12-108"/>
     <use transform="translate(714.092949 0)scale(0.996264)" xlink:href="#CMTT12-112"/>
     <use transform="translate(765.35906 0)scale(0.996264)" xlink:href="#CMTT12-104"/>
     <use transform="translate(816.625171 0)scale(0.996264)" xlink:href="#CMTT12-97"/>
     <use transform="translate(867.891282 0)scale(0.996264)" xlink:href="#CMTT12-95"/>
     <use transform="translate(919.157393 0)scale(0.996264)" xlink:href="#CMTT12-111"/>
     <use transform="translate(970.423503 0)scale(0.996264)" xlink:href="#CMTT12-118"/>
     <use transform="translate(1021.689614 0)scale(0.996264)" xlink:href="#CMTT12-101"/>
     <use transform="translate(1072.955725 0)scale(0.996264)" xlink:href="#CMTT12-114"/>
     <use transform="translate(1124.221836 0)scale(0.996264)" xlink:href="#CMTT12-108"/>
     <use transform="translate(1175.487947 0)scale(0.996264)" xlink:href="#CMTT12-97"/>
     <use transform="translate(1226.754058 0)scale(0.996264)" xlink:href="#CMTT12-121"/>
     <use transform="translate(1278.020169 0)scale(0.996264)" xlink:href="#CMTT12-95"/>
     <use transform="translate(1329.286279 0)scale(0.996264)" xlink:href="#CMTT12-115"/>
     <use transform="translate(1380.55239 0)scale(0.996264)" xlink:href="#CMTT12-116"/>
     <use transform="translate(1431.818501 0)scale(0.996264)" xlink:href="#CMTT12-114"/>
     <use transform="translate(1483.084612 0)scale(0.996264)" xlink:href="#CMTT12-105"/>
     <use transform="translate(1534.350723 0)scale(0.996264)" xlink:href="#CMTT12-100"/>
     <use transform="translate(1585.616834 0)scale(0.996264)" xlink:href="#CMTT12-101"/>
    </g>
    <!-- with and without SIMD intrinsics -->
    <defs>
     <path d="M 58.203125 34.109375 
C 60.203125 40 64.203125 40 65.703125 40 
L 65.703125 42.6875 
C 63.703125 42.6875 61.703125 42.6875 59.703125 42.6875 
C 57.796875 42.6875 53.5 42.6875 51.796875 42.78125 
L 51.796875 40 
C 54.90625 40 56.59375 38.203125 56.59375 35.71875 
C 56.59375 35.015625 56.40625 34.125 56.203125 33.4375 
L 46.796875 6.359375 
L 36.59375 35.546875 
C 36.40625 36.234375 36.09375 37.03125 36.09375 37.421875 
C 36.09375 40 39.5 40 41.09375 40 
L 41.09375 42.78125 
C 38.796875 42.6875 34.59375 42.6875 32.203125 42.6875 
C 29.703125 42.6875 27.09375 42.6875 24.796875 42.78125 
L 24.796875 40 
C 30.296875 40 30.296875 39.796875 32.40625 33.578125 
L 23.203125 7.046875 
L 13.296875 35.640625 
C 12.796875 36.921875 12.796875 37.125 12.796875 37.421875 
C 12.796875 40 16.203125 40 17.796875 40 
L 17.796875 42.78125 
C 15.40625 42.6875 11.203125 42.6875 8.703125 42.6875 
C 6.5 42.6875 3.09375 42.6875 1 42.78125 
L 1 40 
C 5.40625 40 6.5 39.703125 7.59375 36.421875 
L 19.90625 0.765625 
C 20.296875 -0.515625 20.59375 -0.8125 21.40625 -0.8125 
C 22.09375 -0.8125 22.5 -0.609375 23 0.875 
L 33.296875 30.9375 
L 43.703125 0.875 
C 44.203125 -0.609375 44.59375 -0.8125 45.296875 -0.8125 
C 46.09375 -0.8125 46.40625 -0.515625 46.796875 0.78125 
z
" id="CMR17-119"/>
     <path d="M 15.09375 40 
L 29.09375 40 
L 29.09375 42.578125 
L 15.09375 42.578125 
L 15.09375 61 
L 13.296875 61 
C 13.09375 50.703125 9.59375 41.6875 1.09375 41.6875 
L 1.09375 40 
L 9.796875 40 
L 9.796875 12.046875 
C 9.796875 10.15625 9.796875 -1 21.40625 -1 
C 27.296875 -1 30.703125 4.78125 30.703125 12.140625 
L 30.703125 17.8125 
L 28.90625 17.8125 
L 28.90625 12.234375 
C 28.90625 5.375 26.203125 0.796875 22 0.796875 
C 19.09375 0.796875 15.09375 2.78125 15.09375 11.84375 
z
" id="CMR17-116"/>
     <path d="M 41.5 30.203125 
C 41.5 35.296875 40.5 43.59375 28.703125 43.59375 
C 20.5 43.59375 16.5 37 15.296875 33.703125 
L 15.203125 33.703125 
L 15.203125 68.6875 
L 3.296875 67.59375 
L 3.296875 65 
C 9.203125 65 10.09375 64.40625 10.09375 59.640625 
L 10.09375 6.65625 
C 10.09375 2.875 9.703125 2.390625 3.296875 2.390625 
L 3.296875 -0.203125 
C 5.703125 0 10.09375 0 12.703125 0 
C 15.296875 0 19.796875 0 22.203125 -0.203125 
L 22.203125 2.390625 
C 15.796875 2.390625 15.40625 2.78125 15.40625 6.6875 
L 15.40625 25.90625 
C 15.40625 35.109375 21 42 28 42 
C 35.40625 42 36.203125 35.40625 36.203125 30.59375 
L 36.203125 6.6875 
C 36.203125 2.875 35.796875 2.390625 29.40625 2.390625 
L 29.40625 -0.203125 
C 31.796875 0 36.203125 0 38.796875 0 
C 41.40625 0 45.90625 0 48.296875 -0.203125 
L 48.296875 2.390625 
C 41.90625 2.390625 41.5 2.78125 41.5 6.6875 
z
" id="CMR17-104"/>
     <path d="M 29.203125 67.59375 
L 29.203125 65 
C 35.09375 65 36 64.40625 36 59.6875 
L 36 36.640625 
C 35.59375 37.140625 31.5 43.59375 23.40625 43.59375 
C 13.203125 43.59375 3.296875 34.5 3.296875 21.3125 
C 3.296875 8.203125 12.59375 -1 22.40625 -1 
C 30.90625 -1 35.296875 5.265625 35.796875 5.9375 
L 35.796875 -0.984375 
L 47.90625 -0.984375 
L 47.90625 2 
C 42 2 41.09375 2.59375 41.09375 7.390625 
L 41.09375 68.6875 
z
M 35.796875 11.796875 
C 35.796875 8.796875 34 6.09375 31.703125 4.09375 
C 28.296875 1.09375 24.90625 0.59375 23 0.59375 
C 20.09375 0.59375 9.703125 2.09375 9.703125 21.1875 
C 9.703125 40.8125 21.296875 42 23.90625 42 
C 28.5 42 32.203125 39.40625 34.5 35.796875 
C 35.796875 33.703125 35.796875 33.40625 35.796875 31.609375 
z
" id="CMR17-100"/>
     <path d="M 29.40625 42.078125 
L 29.40625 39.5 
C 35.296875 39.5 36.203125 38.890625 36.203125 34.15625 
L 36.203125 16.125 
C 36.203125 7.8125 31.703125 0.59375 24.296875 0.59375 
C 16.09375 0.59375 15.40625 5.4375 15.40625 10.59375 
L 15.40625 43.171875 
L 3.296875 42.078125 
L 3.296875 39.5 
C 7.296875 39.5 10 39.5 10.09375 35.53125 
L 10.09375 16.53125 
C 10.09375 9.890625 10.09375 5.640625 12.703125 2.859375 
C 14 1.578125 16.5 -1 23.703125 -1 
C 32.203125 -1 35.5 5.890625 36.296875 7.90625 
L 36.40625 7.90625 
L 36.40625 -0.984375 
L 48.296875 -0.984375 
L 48.296875 2 
C 42.40625 2 41.5 2.59375 41.5 7.390625 
L 41.5 43.171875 
z
" id="CMR17-117"/>
     <path d="M 43.796875 67.03125 
C 43.796875 68.8125 43.703125 68.921875 43.09375 68.921875 
C 42.5 68.921875 42.296875 68.515625 41.90625 67.625 
L 38.90625 61.046875 
C 35.09375 66.515625 29.296875 69 23 69 
C 12.796875 69 4.59375 60.953125 4.59375 50.828125 
C 4.59375 47.75 5.296875 43.375 8.703125 39.21875 
C 12.40625 34.65625 15.90625 33.859375 23.90625 31.765625 
C 26.90625 30.96875 31.90625 29.671875 32.90625 29.28125 
C 38.59375 26.90625 41.59375 20.953125 41.59375 15.390625 
C 41.59375 8.234375 36.5 0.59375 27.796875 0.59375 
C 17.09375 0.59375 7.09375 6.546875 6.40625 20.484375 
C 6.296875 22.078125 6.203125 22.171875 5.5 22.171875 
C 4.703125 22.171875 4.59375 22.078125 4.59375 20.078125 
L 4.59375 -0.015625 
C 4.59375 -1.796875 4.703125 -1.90625 5.296875 -1.90625 
C 6 -1.90625 6.203125 -1.40625 7.59375 1.6875 
C 7.703125 1.984375 7.703125 2.1875 9.59375 5.953125 
C 14.59375 -0.609375 23 -2 27.796875 -2 
C 38.703125 -2 46.40625 7.046875 46.40625 17.5625 
C 46.40625 22.71875 44.5 26.6875 43.40625 28.484375 
C 39.203125 34.84375 34.703125 36.03125 29.90625 37.21875 
C 29.203125 37.53125 29 37.53125 23.40625 38.90625 
C 18 40.296875 15.703125 41 13.203125 43.6875 
C 10.40625 46.75 9.40625 49.9375 9.40625 53.109375 
C 9.40625 59.5625 14.59375 66.609375 23.09375 66.609375 
C 33.703125 66.609375 40.296875 59.15625 41.796875 46.765625 
C 42.09375 44.96875 42.203125 44.875 42.90625 44.875 
C 43.796875 44.875 43.796875 45.171875 43.796875 46.859375 
z
" id="CMR17-83"/>
     <path d="M 20.90625 66 
C 20.296875 67.5 20.203125 67.5 18.09375 67.5 
L 5.296875 67.5 
L 5.296875 65 
C 12.203125 65 13.296875 65 13.296875 60.546875 
L 13.296875 9.53125 
C 13.296875 7.046875 13.296875 2.390625 5.296875 2.390625 
L 5.296875 -0.203125 
C 7.59375 0 11.796875 0 14.296875 0 
C 16.796875 0 21 0 23.296875 -0.203125 
L 23.296875 2.390625 
C 15.296875 2.390625 15.296875 7.046875 15.296875 9.53125 
L 15.296875 64.609375 
L 15.40625 64.609375 
L 38.90625 1.390625 
C 39.296875 0.390625 39.5 -0.203125 40.296875 -0.203125 
C 41.09375 -0.203125 41.296875 0.390625 41.703125 1.390625 
L 65.40625 65.09375 
L 65.5 65.09375 
L 65.5 6.84375 
C 65.5 2.390625 64.40625 2.390625 57.5 2.390625 
L 57.5 -0.203125 
C 60.203125 0 65.59375 0 68.5 0 
C 71.40625 0 76.90625 0 79.59375 -0.203125 
L 79.59375 2.390625 
C 72.703125 2.390625 71.59375 2.390625 71.59375 6.84375 
L 71.59375 60.546875 
C 71.59375 65 72.703125 65 79.59375 65 
L 79.59375 67.5 
L 66.90625 67.5 
C 64.796875 67.5 64.703125 67.40625 64.09375 65.90625 
L 42.5 7.84375 
z
" id="CMR17-77"/>
     <path d="M 5.203125 68 
L 5.203125 65.40625 
C 12.09375 65.40625 13.203125 65.40625 13.203125 60.9375 
L 13.203125 7.0625 
C 13.203125 2.59375 12.09375 2.59375 5.203125 2.59375 
L 5.203125 0 
L 37 0 
C 53.09375 0 66 14.734375 66 33.453125 
C 66 52.28125 53.296875 68 37 68 
z
M 23.796875 2.59375 
C 19.796875 2.59375 19.59375 3.078125 19.59375 6.46875 
L 19.59375 61.53125 
C 19.59375 64.921875 19.796875 65.40625 23.796875 65.40625 
L 35 65.40625 
C 43.296875 65.40625 58.59375 60.53125 58.59375 33.453125 
C 58.59375 19.40625 54.5 13.734375 52.59375 11.046875 
C 50.203125 7.96875 44.5 2.59375 35 2.59375 
z
" id="CMR17-68"/>
     <path d="M 34.90625 35 
C 33 35 30.203125 35 30.203125 31.515625 
C 30.203125 28.71875 32.5 27.921875 33.796875 27.921875 
C 34.5 27.921875 37.40625 28.234375 37.40625 31.625 
C 37.40625 38.546875 30.59375 43.796875 22.90625 43.796875 
C 12.296875 43.796875 3.296875 34.03125 3.296875 21.296875 
C 3.296875 8.0625 12.703125 -1 22.90625 -1 
C 35.296875 -1 38.40625 10.578125 38.40625 11.6875 
C 38.40625 12.09375 38.296875 12.390625 37.59375 12.390625 
C 36.90625 12.390625 36.796875 12.296875 36.40625 10.984375 
C 33.796875 2.8125 28.09375 0.796875 23.796875 0.796875 
C 17.40625 0.796875 9.703125 6.671875 9.703125 21.390625 
C 9.703125 36.53125 17.09375 42 23 42 
C 26.90625 42 32.703125 40.203125 34.90625 35 
z
" id="CMR17-99"/>
    </defs>
    <g transform="translate(139.466897 38.065817)scale(0.144 -0.144)">
     <use transform="scale(0.996264)" xlink:href="#CMR17-119"/>
     <use transform="translate(66.509881 0)scale(0.996264)" xlink:href="#CMR17-105"/>
     <use transform="translate(91.380939 0)scale(0.996264)" xlink:href="#CMR17-116"/>
     <use transform="translate(126.661707 0)scale(0.996264)" xlink:href="#CMR17-104"/>
     <use transform="translate(207.633043 0)scale(0.996264)" xlink:href="#CMR17-97"/>
     <use transform="translate(253.32352 0)scale(0.996264)" xlink:href="#CMR17-110"/>
     <use transform="translate(304.21889 0)scale(0.996264)" xlink:href="#CMR17-100"/>
     <use transform="translate(385.190226 0)scale(0.996264)" xlink:href="#CMR17-119"/>
     <use transform="translate(451.700107 0)scale(0.996264)" xlink:href="#CMR17-105"/>
     <use transform="translate(476.571165 0)scale(0.996264)" xlink:href="#CMR17-116"/>
     <use transform="translate(511.851933 0)scale(0.996264)" xlink:href="#CMR17-104"/>
     <use transform="translate(562.747303 0)scale(0.996264)" xlink:href="#CMR17-111"/>
     <use transform="translate(608.43778 0)scale(0.996264)" xlink:href="#CMR17-117"/>
     <use transform="translate(659.333149 0)scale(0.996264)" xlink:href="#CMR17-116"/>
     <use transform="translate(724.689884 0)scale(0.996264)" xlink:href="#CMR17-83"/>
     <use transform="translate(775.585253 0)scale(0.996264)" xlink:href="#CMR17-73"/>
     <use transform="translate(808.223663 0)scale(0.996264)" xlink:href="#CMR17-77"/>
     <use transform="translate(892.910603 0)scale(0.996264)" xlink:href="#CMR17-68"/>
     <use transform="translate(993.380125 0)scale(0.996264)" xlink:href="#CMR17-105"/>
     <use transform="translate(1018.251184 0)scale(0.996264)" xlink:href="#CMR17-110"/>
     <use transform="translate(1066.5441 0)scale(0.996264)" xlink:href="#CMR17-116"/>
     <use transform="translate(1101.824868 0)scale(0.996264)" xlink:href="#CMR17-114"/>
     <use transform="translate(1137.105635 0)scale(0.996264)" xlink:href="#CMR17-105"/>
     <use transform="translate(1161.976694 0)scale(0.996264)" xlink:href="#CMR17-110"/>
     <use transform="translate(1212.872064 0)scale(0.996264)" xlink:href="#CMR17-115"/>
     <use transform="translate(1248.673401 0)scale(0.996264)" xlink:href="#CMR17-105"/>
     <use transform="translate(1273.54446 0)scale(0.996264)" xlink:href="#CMR17-99"/>
     <use transform="translate(1314.03012 0)scale(0.996264)" xlink:href="#CMR17-115"/>
    </g>
   </g>
   <g id="legend_1">
    <g id="patch_7">
     <path d="M 76.831781 87.115008 
L 242.649867 87.115008 
Q 245.049867 87.115008 245.049867 84.715008 
L 245.049867 52.465817 
Q 245.049867 50.065817 242.649867 50.065817 
L 76.831781 50.065817 
Q 74.431781 50.065817 74.431781 52.465817 
L 74.431781 84.715008 
Q 74.431781 87.115008 76.831781 87.115008 
z
" style="fill:#ffffff;opacity:0.8;stroke:#cccccc;stroke-linejoin:miter;"/>
    </g>
    <g id="line2d_17">
     <path d="M 79.231781 59.065817 
L 103.231781 59.065817 
" style="fill:none;stroke:#1f77b4;stroke-linecap:square;stroke-width:1.5;"/>
    </g>
    <g id="line2d_18"/>
    <g id="text_18">
     <!-- Without SIMD intrinsics -->
     <defs>
      <path d="M 86.296875 58.8125 
C 87.203125 61.5 88.703125 65 94.5 65 
L 94.5 67.59375 
C 92.796875 67.59375 89.296875 67.59375 87.5 67.59375 
C 85 67.59375 80.59375 67.59375 78.203125 67.6875 
L 78.203125 65 
C 82.703125 65 84.59375 62.5 84.59375 60.109375 
C 84.59375 59.40625 84.5 59.015625 84.09375 57.921875 
L 68.59375 8.671875 
L 52.296875 60.515625 
C 52 61.515625 51.90625 61.921875 51.90625 62.3125 
C 51.90625 65 56.296875 65 58.203125 65 
L 58.203125 67.59375 
C 55.296875 67.59375 50.296875 67.59375 47.203125 67.59375 
C 44.703125 67.59375 40.203125 67.59375 37.90625 67.6875 
L 37.90625 65 
C 42.5 65 43.703125 64.703125 44.703125 62.921875 
C 45.09375 62.015625 46.703125 56.84375 46.703125 56.546875 
C 46.703125 56.140625 46.5 55.546875 46.40625 55.25 
L 31.703125 8.765625 
L 15.40625 60.421875 
C 14.90625 61.828125 14.90625 62.015625 14.90625 62.21875 
C 14.90625 65 19.296875 65 21.296875 65 
L 21.296875 67.59375 
C 18.40625 67.59375 13.40625 67.59375 10.296875 67.59375 
C 7.703125 67.59375 3.296875 67.59375 0.90625 67.6875 
L 0.90625 65 
C 6.90625 65 7.296875 64.40625 8.296875 61.21875 
L 27.796875 -0.3125 
C 28.296875 -1.796875 28.296875 -2 29.203125 -2 
C 30 -2 30.296875 -1.796875 30.703125 -0.40625 
L 47.703125 53.640625 
L 64.703125 -0.40625 
C 65.09375 -1.796875 65.40625 -2 66.203125 -2 
C 67.09375 -2 67.09375 -1.796875 67.59375 -0.3125 
z
" id="CMR17-87"/>
     </defs>
     <g transform="translate(112.831781 63.265817)scale(0.12 -0.12)">
      <use transform="scale(0.996264)" xlink:href="#CMR17-87"/>
      <use transform="translate(95.09665 0)scale(0.996264)" xlink:href="#CMR17-105"/>
      <use transform="translate(119.967708 0)scale(0.996264)" xlink:href="#CMR17-116"/>
      <use transform="translate(155.248476 0)scale(0.996264)" xlink:href="#CMR17-104"/>
      <use transform="translate(206.143846 0)scale(0.996264)" xlink:href="#CMR17-111"/>
      <use transform="translate(251.834323 0)scale(0.996264)" xlink:href="#CMR17-117"/>
      <use transform="translate(302.729693 0)scale(0.996264)" xlink:href="#CMR17-116"/>
      <use transform="translate(368.086427 0)scale(0.996264)" xlink:href="#CMR17-83"/>
      <use transform="translate(418.981797 0)scale(0.996264)" xlink:href="#CMR17-73"/>
      <use transform="translate(451.620206 0)scale(0.996264)" xlink:href="#CMR17-77"/>
      <use transform="translate(536.307147 0)scale(0.996264)" xlink:href="#CMR17-68"/>
      <use transform="translate(636.776669 0)scale(0.996264)" xlink:href="#CMR17-105"/>
      <use transform="translate(661.647727 0)scale(0.996264)" xlink:href="#CMR17-110"/>
      <use transform="translate(709.940643 0)scale(0.996264)" xlink:href="#CMR17-116"/>
      <use transform="translate(745.221411 0)scale(0.996264)" xlink:href="#CMR17-114"/>
      <use transform="translate(780.502179 0)scale(0.996264)" xlink:href="#CMR17-105"/>
      <use transform="translate(805.373237 0)scale(0.996264)" xlink:href="#CMR17-110"/>
      <use transform="translate(856.268607 0)scale(0.996264)" xlink:href="#CMR17-115"/>
      <use transform="translate(892.069945 0)scale(0.996264)" xlink:href="#CMR17-105"/>
      <use transform="translate(916.941003 0)scale(0.996264)" xlink:href="#CMR17-99"/>
      <use transform="translate(957.426664 0)scale(0.996264)" xlink:href="#CMR17-115"/>
     </g>
    </g>
    <g id="line2d_19">
     <path d="M 79.231781 75.790412 
L 103.231781 75.790412 
" style="fill:none;stroke:#ff7f0e;stroke-linecap:square;stroke-width:1.5;"/>
    </g>
    <g id="line2d_20"/>
    <g id="text_19">
     <!-- With SIMD intrinsics -->
     <g transform="translate(112.831781 79.990412)scale(0.12 -0.12)">
      <use transform="scale(0.996264)" xlink:href="#CMR17-87"/>
      <use transform="translate(95.09665 0)scale(0.996264)" xlink:href="#CMR17-105"/>
      <use transform="translate(119.967708 0)scale(0.996264)" xlink:href="#CMR17-116"/>
      <use transform="translate(155.248476 0)scale(0.996264)" xlink:href="#CMR17-104"/>
      <use transform="translate(236.219812 0)scale(0.996264)" xlink:href="#CMR17-83"/>
      <use transform="translate(287.115182 0)scale(0.996264)" xlink:href="#CMR17-73"/>
      <use transform="translate(319.753591 0)scale(0.996264)" xlink:href="#CMR17-77"/>
      <use transform="translate(404.440532 0)scale(0.996264)" xlink:href="#CMR17-68"/>
      <use transform="translate(504.910054 0)scale(0.996264)" xlink:href="#CMR17-105"/>
      <use transform="translate(529.781113 0)scale(0.996264)" xlink:href="#CMR17-110"/>
      <use transform="translate(578.074028 0)scale(0.996264)" xlink:href="#CMR17-116"/>
      <use transform="translate(613.354796 0)scale(0.996264)" xlink:href="#CMR17-114"/>
      <use transform="translate(648.635564 0)scale(0.996264)" xlink:href="#CMR17-105"/>
      <use transform="translate(673.506623 0)scale(0.996264)" xlink:href="#CMR17-110"/>
      <use transform="translate(724.401992 0)scale(0.996264)" xlink:href="#CMR17-115"/>
      <use transform="translate(760.20333 0)scale(0.996264)" xlink:href="#CMR17-105"/>
      <use transform="translate(785.074388 0)scale(0.996264)" xlink:href="#CMR17-99"/>
      <use transform="translate(825.560049 0)scale(0.996264)" xlink:href="#CMR17-115"/>
     </g>
    </g>
   </g>
  </g>
 </g>
 <defs>
  <clipPath id="p78106a72c2">
   <rect height="233.39224" width="349.994588" x="68.431781" y="44.065817"/>
  </clipPath>
 </defs>
</svg>
