<?xml version="1.0" encoding="UTF-8" standalone="no"?>
<!DOCTYPE svg PUBLIC "-//W3C//DTD SVG 1.1//EN"
 "http://www.w3.org/Graphics/SVG/1.1/DTD/svg11.dtd">
<!-- Generated by graphviz version 2.40.1 (20161225.0304)
 -->
<!-- Title: rescale.hpp Pages: 1 -->
<svg width="215pt" height="140pt"
 viewBox="0.00 0.00 215.00 140.00" xmlns="http://www.w3.org/2000/svg" xmlns:xlink="http://www.w3.org/1999/xlink">
<g id="graph0" class="graph" transform="scale(1 1) rotate(0) translate(4 136)">
<title>rescale.hpp</title>
<polygon fill="#ffffff" stroke="transparent" points="-4,4 -4,-136 211,-136 211,4 -4,4"/>
<!-- Node1 -->
<g id="node1" class="node">
<title>Node1</title>
<g id="a_node1"><a xlink:title=" ">
<polygon fill="#bfbfbf" stroke="#000000" points="85.5,-112.5 85.5,-131.5 152.5,-131.5 152.5,-112.5 85.5,-112.5"/>
<text text-anchor="middle" x="119" y="-119.5" font-family="Helvetica,sans-Serif" font-size="10.00" fill="#000000">rescale.hpp</text>
</a>
</g>
</g>
<!-- Node2 -->
<g id="node2" class="node">
<title>Node2</title>
<g id="a_node2"><a xlink:href="../../df/d82/rescale__type_8hpp.html" target="_top" xlink:title=" ">
<polygon fill="#ffffff" stroke="#000000" points="0,-56.5 0,-75.5 130,-75.5 130,-56.5 0,-56.5"/>
<text text-anchor="middle" x="65" y="-63.5" font-family="Helvetica,sans-Serif" font-size="10.00" fill="#000000">alpha&#45;lib/rescale_type.hpp</text>
</a>
</g>
</g>
<!-- Node1&#45;&gt;Node2 -->
<g id="edge1" class="edge">
<title>Node1&#45;&gt;Node2</title>
<path fill="none" stroke="#191970" d="M109.5939,-112.2455C101.8507,-104.2155 90.688,-92.6394 81.4682,-83.0781"/>
<polygon fill="#191970" stroke="#191970" points="83.7591,-80.4117 74.2983,-75.6427 78.7202,-85.2706 83.7591,-80.4117"/>
</g>
<!-- Node3 -->
<g id="node3" class="node">
<title>Node3</title>
<g id="a_node3"><a xlink:href="../../d6/dec/SIMD_8h.html" target="_top" xlink:title=" ">
<polygon fill="#ffffff" stroke="#000000" points="148,-56.5 148,-75.5 198,-75.5 198,-56.5 148,-56.5"/>
<text text-anchor="middle" x="173" y="-63.5" font-family="Helvetica,sans-Serif" font-size="10.00" fill="#000000">SIMD.h</text>
</a>
</g>
</g>
<!-- Node1&#45;&gt;Node3 -->
<g id="edge2" class="edge">
<title>Node1&#45;&gt;Node3</title>
<path fill="none" stroke="#191970" d="M128.4061,-112.2455C136.1493,-104.2155 147.312,-92.6394 156.5318,-83.0781"/>
<polygon fill="#191970" stroke="#191970" points="159.2798,-85.2706 163.7017,-75.6427 154.2409,-80.4117 159.2798,-85.2706"/>
</g>
<!-- Node4 -->
<g id="node4" class="node">
<title>Node4</title>
<g id="a_node4"><a xlink:title=" ">
<polygon fill="#ffffff" stroke="#bfbfbf" points="139,-.5 139,-19.5 207,-19.5 207,-.5 139,-.5"/>
<text text-anchor="middle" x="173" y="-7.5" font-family="Helvetica,sans-Serif" font-size="10.00" fill="#000000">arm_neon.h</text>
</a>
</g>
</g>
<!-- Node3&#45;&gt;Node4 -->
<g id="edge3" class="edge">
<title>Node3&#45;&gt;Node4</title>
<path fill="none" stroke="#191970" d="M173,-56.2455C173,-48.9382 173,-38.6944 173,-29.7046"/>
<polygon fill="#191970" stroke="#191970" points="176.5001,-29.6426 173,-19.6427 169.5001,-29.6427 176.5001,-29.6426"/>
</g>
</g>
</svg>
