<?xml version="1.0" encoding="UTF-8" standalone="no"?>
<!DOCTYPE svg PUBLIC "-//W3C//DTD SVG 1.1//EN"
 "http://www.w3.org/Graphics/SVG/1.1/DTD/svg11.dtd">
<!-- Generated by graphviz version 2.40.1 (20161225.0304)
 -->
<!-- Title: overlay_alpha.cpp Pages: 1 -->
<svg width="599pt" height="196pt"
 viewBox="0.00 0.00 599.00 196.00" xmlns="http://www.w3.org/2000/svg" xmlns:xlink="http://www.w3.org/1999/xlink">
<g id="graph0" class="graph" transform="scale(1 1) rotate(0) translate(4 192)">
<title>overlay_alpha.cpp</title>
<polygon fill="#ffffff" stroke="transparent" points="-4,4 -4,-192 595,-192 595,4 -4,4"/>
<!-- Node1 -->
<g id="node1" class="node">
<title>Node1</title>
<g id="a_node1"><a xlink:title=" ">
<polygon fill="#bfbfbf" stroke="#000000" points="339.5,-168.5 339.5,-187.5 434.5,-187.5 434.5,-168.5 339.5,-168.5"/>
<text text-anchor="middle" x="387" y="-175.5" font-family="Helvetica,sans-Serif" font-size="10.00" fill="#000000">overlay_alpha.cpp</text>
</a>
</g>
</g>
<!-- Node2 -->
<g id="node2" class="node">
<title>Node2</title>
<g id="a_node2"><a xlink:href="../../de/d71/overlay__alpha_8h.html" target="_top" xlink:title=" ">
<polygon fill="#ffffff" stroke="#000000" points="21,-112.5 21,-131.5 145,-131.5 145,-112.5 21,-112.5"/>
<text text-anchor="middle" x="83" y="-119.5" font-family="Helvetica,sans-Serif" font-size="10.00" fill="#000000">alpha&#45;lib/overlay_alpha.h</text>
</a>
</g>
</g>
<!-- Node1&#45;&gt;Node2 -->
<g id="edge1" class="edge">
<title>Node1&#45;&gt;Node2</title>
<path fill="none" stroke="#191970" d="M339.1656,-169.1884C286.639,-159.5125 202.1355,-143.946 144.6674,-133.3598"/>
<polygon fill="#191970" stroke="#191970" points="145.0899,-129.8788 134.6212,-131.5092 143.8217,-136.763 145.0899,-129.8788"/>
</g>
<!-- Node5 -->
<g id="node5" class="node">
<title>Node5</title>
<g id="a_node5"><a xlink:href="../../d3/da6/overlay__alpha_8hpp.html" target="_top" xlink:title=" ">
<polygon fill="#ffffff" stroke="#000000" points="201,-112.5 201,-131.5 335,-131.5 335,-112.5 201,-112.5"/>
<text text-anchor="middle" x="268" y="-119.5" font-family="Helvetica,sans-Serif" font-size="10.00" fill="#000000">alpha&#45;lib/overlay_alpha.hpp</text>
</a>
</g>
</g>
<!-- Node1&#45;&gt;Node5 -->
<g id="edge4" class="edge">
<title>Node1&#45;&gt;Node5</title>
<path fill="none" stroke="#191970" d="M366.5432,-168.3733C347.5262,-159.4241 318.9825,-145.9917 297.5024,-135.8835"/>
<polygon fill="#191970" stroke="#191970" points="298.7284,-132.5923 288.1899,-131.5011 295.7478,-138.926 298.7284,-132.5923"/>
</g>
<!-- Node6 -->
<g id="node6" class="node">
<title>Node6</title>
<g id="a_node6"><a xlink:title=" ">
<polygon fill="#ffffff" stroke="#bfbfbf" points="148.5,-56.5 148.5,-75.5 197.5,-75.5 197.5,-56.5 148.5,-56.5"/>
<text text-anchor="middle" x="173" y="-63.5" font-family="Helvetica,sans-Serif" font-size="10.00" fill="#000000">cstddef</text>
</a>
</g>
</g>
<!-- Node1&#45;&gt;Node6 -->
<g id="edge14" class="edge">
<title>Node1&#45;&gt;Node6</title>
<path fill="none" stroke="#191970" d="M339.3936,-172.3244C288.6905,-165.3422 212.9047,-151.9119 192,-132 179.4782,-120.0729 175.0462,-100.4769 173.5567,-85.7293"/>
<polygon fill="#191970" stroke="#191970" points="177.0402,-85.3591 172.906,-75.6042 170.0546,-85.8081 177.0402,-85.3591"/>
</g>
<!-- Node9 -->
<g id="node9" class="node">
<title>Node9</title>
<g id="a_node9"><a xlink:href="../../d6/dec/SIMD_8h.html" target="_top" xlink:title=" ">
<polygon fill="#ffffff" stroke="#000000" points="428,-56.5 428,-75.5 478,-75.5 478,-56.5 428,-56.5"/>
<text text-anchor="middle" x="453" y="-63.5" font-family="Helvetica,sans-Serif" font-size="10.00" fill="#000000">SIMD.h</text>
</a>
</g>
</g>
<!-- Node1&#45;&gt;Node9 -->
<g id="edge8" class="edge">
<title>Node1&#45;&gt;Node9</title>
<path fill="none" stroke="#191970" d="M397.9482,-168.3551C407.2768,-159.6418 420.4873,-146.0615 429,-132 437.7689,-117.5153 444.0867,-99.3231 448.0322,-85.7086"/>
<polygon fill="#191970" stroke="#191970" points="451.4447,-86.4975 450.6894,-75.9296 444.6896,-84.662 451.4447,-86.4975"/>
</g>
<!-- Node11 -->
<g id="node11" class="node">
<title>Node11</title>
<g id="a_node11"><a xlink:href="../../d8/d17/rescale_8hpp.html" target="_top" xlink:title=" ">
<polygon fill="#ffffff" stroke="#000000" points="353.5,-112.5 353.5,-131.5 420.5,-131.5 420.5,-112.5 353.5,-112.5"/>
<text text-anchor="middle" x="387" y="-119.5" font-family="Helvetica,sans-Serif" font-size="10.00" fill="#000000">rescale.hpp</text>
</a>
</g>
</g>
<!-- Node1&#45;&gt;Node11 -->
<g id="edge10" class="edge">
<title>Node1&#45;&gt;Node11</title>
<path fill="none" stroke="#191970" d="M387,-168.2455C387,-160.9382 387,-150.6944 387,-141.7046"/>
<polygon fill="#191970" stroke="#191970" points="390.5001,-141.6426 387,-131.6427 383.5001,-141.6427 390.5001,-141.6426"/>
</g>
<!-- Node12 -->
<g id="node12" class="node">
<title>Node12</title>
<g id="a_node12"><a xlink:title=" ">
<polygon fill="#ffffff" stroke="#bfbfbf" points="477.5,-112.5 477.5,-131.5 526.5,-131.5 526.5,-112.5 477.5,-112.5"/>
<text text-anchor="middle" x="502" y="-119.5" font-family="Helvetica,sans-Serif" font-size="10.00" fill="#000000">cassert</text>
</a>
</g>
</g>
<!-- Node1&#45;&gt;Node12 -->
<g id="edge13" class="edge">
<title>Node1&#45;&gt;Node12</title>
<path fill="none" stroke="#191970" d="M406.7692,-168.3733C425.1469,-159.4241 452.7312,-145.9917 473.4893,-135.8835"/>
<polygon fill="#191970" stroke="#191970" points="475.0304,-139.026 482.4888,-131.5011 471.9657,-132.7325 475.0304,-139.026"/>
</g>
<!-- Node13 -->
<g id="node13" class="node">
<title>Node13</title>
<g id="a_node13"><a xlink:title=" ">
<polygon fill="#ffffff" stroke="#bfbfbf" points="545,-112.5 545,-131.5 591,-131.5 591,-112.5 545,-112.5"/>
<text text-anchor="middle" x="568" y="-119.5" font-family="Helvetica,sans-Serif" font-size="10.00" fill="#000000">cstring</text>
</a>
</g>
</g>
<!-- Node1&#45;&gt;Node13 -->
<g id="edge15" class="edge">
<title>Node1&#45;&gt;Node13</title>
<path fill="none" stroke="#191970" d="M418.1158,-168.4279C446.3226,-159.7432 489.2892,-146.4953 535.367,-132.19"/>
<polygon fill="#191970" stroke="#191970" points="536.4192,-135.5282 544.9309,-129.2195 534.3428,-128.8433 536.4192,-135.5282"/>
</g>
<!-- Node3 -->
<g id="node3" class="node">
<title>Node3</title>
<g id="a_node3"><a xlink:title=" ">
<polygon fill="#ffffff" stroke="#bfbfbf" points="0,-56.5 0,-75.5 52,-75.5 52,-56.5 0,-56.5"/>
<text text-anchor="middle" x="26" y="-63.5" font-family="Helvetica,sans-Serif" font-size="10.00" fill="#000000">stddef.h</text>
</a>
</g>
</g>
<!-- Node2&#45;&gt;Node3 -->
<g id="edge2" class="edge">
<title>Node2&#45;&gt;Node3</title>
<path fill="none" stroke="#191970" d="M73.0714,-112.2455C64.8162,-104.1352 52.8791,-92.4075 43.0918,-82.7919"/>
<polygon fill="#191970" stroke="#191970" points="45.4011,-80.1542 35.8149,-75.6427 40.4954,-85.1476 45.4011,-80.1542"/>
</g>
<!-- Node4 -->
<g id="node4" class="node">
<title>Node4</title>
<g id="a_node4"><a xlink:title=" ">
<polygon fill="#ffffff" stroke="#bfbfbf" points="70.5,-56.5 70.5,-75.5 119.5,-75.5 119.5,-56.5 70.5,-56.5"/>
<text text-anchor="middle" x="95" y="-63.5" font-family="Helvetica,sans-Serif" font-size="10.00" fill="#000000">stdint.h</text>
</a>
</g>
</g>
<!-- Node2&#45;&gt;Node4 -->
<g id="edge3" class="edge">
<title>Node2&#45;&gt;Node4</title>
<path fill="none" stroke="#191970" d="M85.0902,-112.2455C86.6561,-104.9382 88.8512,-94.6944 90.7776,-85.7046"/>
<polygon fill="#191970" stroke="#191970" points="94.2607,-86.1541 92.9337,-75.6427 87.416,-84.6873 94.2607,-86.1541"/>
</g>
<!-- Node5&#45;&gt;Node6 -->
<g id="edge5" class="edge">
<title>Node5&#45;&gt;Node6</title>
<path fill="none" stroke="#191970" d="M251.4523,-112.2455C236.7401,-103.5731 215.0112,-90.7645 198.1495,-80.825"/>
<polygon fill="#191970" stroke="#191970" points="199.7502,-77.7057 189.3581,-75.6427 196.1954,-83.736 199.7502,-77.7057"/>
</g>
<!-- Node7 -->
<g id="node7" class="node">
<title>Node7</title>
<g id="a_node7"><a xlink:title=" ">
<polygon fill="#ffffff" stroke="#bfbfbf" points="216,-56.5 216,-75.5 262,-75.5 262,-56.5 216,-56.5"/>
<text text-anchor="middle" x="239" y="-63.5" font-family="Helvetica,sans-Serif" font-size="10.00" fill="#000000">cstdint</text>
</a>
</g>
</g>
<!-- Node5&#45;&gt;Node7 -->
<g id="edge6" class="edge">
<title>Node5&#45;&gt;Node7</title>
<path fill="none" stroke="#191970" d="M262.9486,-112.2455C258.9981,-104.617 253.3903,-93.7881 248.5942,-84.5267"/>
<polygon fill="#191970" stroke="#191970" points="251.7001,-82.9131 243.9935,-75.6427 245.4841,-86.1321 251.7001,-82.9131"/>
</g>
<!-- Node8 -->
<g id="node8" class="node">
<title>Node8</title>
<g id="a_node8"><a xlink:href="../../df/d82/rescale__type_8hpp.html" target="_top" xlink:title=" ">
<polygon fill="#ffffff" stroke="#000000" points="280,-56.5 280,-75.5 410,-75.5 410,-56.5 280,-56.5"/>
<text text-anchor="middle" x="345" y="-63.5" font-family="Helvetica,sans-Serif" font-size="10.00" fill="#000000">alpha&#45;lib/rescale_type.hpp</text>
</a>
</g>
</g>
<!-- Node5&#45;&gt;Node8 -->
<g id="edge7" class="edge">
<title>Node5&#45;&gt;Node8</title>
<path fill="none" stroke="#191970" d="M281.4124,-112.2455C293.0057,-103.814 309.9748,-91.4729 323.4678,-81.6598"/>
<polygon fill="#191970" stroke="#191970" points="325.7126,-84.355 331.7413,-75.6427 321.5953,-78.6938 325.7126,-84.355"/>
</g>
<!-- Node10 -->
<g id="node10" class="node">
<title>Node10</title>
<g id="a_node10"><a xlink:title=" ">
<polygon fill="#ffffff" stroke="#bfbfbf" points="419,-.5 419,-19.5 487,-19.5 487,-.5 419,-.5"/>
<text text-anchor="middle" x="453" y="-7.5" font-family="Helvetica,sans-Serif" font-size="10.00" fill="#000000">arm_neon.h</text>
</a>
</g>
</g>
<!-- Node9&#45;&gt;Node10 -->
<g id="edge9" class="edge">
<title>Node9&#45;&gt;Node10</title>
<path fill="none" stroke="#191970" d="M453,-56.2455C453,-48.9382 453,-38.6944 453,-29.7046"/>
<polygon fill="#191970" stroke="#191970" points="456.5001,-29.6426 453,-19.6427 449.5001,-29.6427 456.5001,-29.6426"/>
</g>
<!-- Node11&#45;&gt;Node8 -->
<g id="edge11" class="edge">
<title>Node11&#45;&gt;Node8</title>
<path fill="none" stroke="#191970" d="M379.6842,-112.2455C373.7821,-104.3761 365.3258,-93.101 358.2406,-83.6542"/>
<polygon fill="#191970" stroke="#191970" points="361.0321,-81.5427 352.232,-75.6427 355.432,-85.7427 361.0321,-81.5427"/>
</g>
<!-- Node11&#45;&gt;Node9 -->
<g id="edge12" class="edge">
<title>Node11&#45;&gt;Node9</title>
<path fill="none" stroke="#191970" d="M398.4963,-112.2455C408.2442,-103.9746 422.4259,-91.9416 433.8798,-82.2232"/>
<polygon fill="#191970" stroke="#191970" points="436.2747,-84.7813 441.6354,-75.6427 431.7459,-79.4437 436.2747,-84.7813"/>
</g>
</g>
</svg>
