<?xml version="1.0" encoding="UTF-8" standalone="no"?>
<!DOCTYPE svg PUBLIC "-//W3C//DTD SVG 1.1//EN"
 "http://www.w3.org/Graphics/SVG/1.1/DTD/svg11.dtd">
<!-- Generated by graphviz version 2.40.1 (20161225.0304)
 -->
<!-- Title: examples Pages: 1 -->
<svg width="268pt" height="132pt"
 viewBox="0.00 0.00 268.00 132.00" xmlns="http://www.w3.org/2000/svg" xmlns:xlink="http://www.w3.org/1999/xlink">
<g id="graph0" class="graph" transform="scale(1 1) rotate(0) translate(4 128)">
<title>examples</title>
<polygon fill="#ffffff" stroke="transparent" points="-4,4 -4,-128 264,-128 264,4 -4,4"/>
<g id="clust1" class="cluster">
<title>clusterdir_d28a4824dc47e487b107a5db32ef43c4</title>
<g id="a_clust1"><a xlink:href="dir_d28a4824dc47e487b107a5db32ef43c4.html" target="_top">
<polygon fill="#eeeeff" stroke="#000000" points="8,-64 8,-116 252,-116 252,-64 8,-64"/>
</a>
</g>
</g>
<!-- dir_d28a4824dc47e487b107a5db32ef43c4 -->
<g id="node1" class="node">
<title>dir_d28a4824dc47e487b107a5db32ef43c4</title>
<text text-anchor="middle" x="214" y="-87.5" font-family="Helvetica,sans-Serif" font-size="10.00" fill="#000000">examples</text>
</g>
<!-- dir_3c04f67c99df5e2d7829886e27b87c88 -->
<g id="node2" class="node">
<title>dir_3c04f67c99df5e2d7829886e27b87c88</title>
<g id="a_node2"><a xlink:href="dir_3c04f67c99df5e2d7829886e27b87c88.html" target="_top" xlink:title="overlay_alpha">
<polygon fill="#ffffff" stroke="#000000" points="166.5,-108 89.5,-108 89.5,-72 166.5,-72 166.5,-108"/>
<text text-anchor="middle" x="128" y="-87.5" font-family="Helvetica,sans-Serif" font-size="10.00" fill="#000000">overlay_alpha</text>
</a>
</g>
</g>
<!-- dir_68267d1309a1af8e8297ef4c3efbcdba -->
<g id="node4" class="node">
<title>dir_68267d1309a1af8e8297ef4c3efbcdba</title>
<g id="a_node4"><a xlink:href="dir_68267d1309a1af8e8297ef4c3efbcdba.html" target="_top" xlink:title="src">
<polygon fill="#ffffff" stroke="#ff0000" points="155,-36 101,-36 101,0 155,0 155,-36"/>
<text text-anchor="middle" x="128" y="-15.5" font-family="Helvetica,sans-Serif" font-size="10.00" fill="#000000">src</text>
</a>
</g>
</g>
<!-- dir_3c04f67c99df5e2d7829886e27b87c88&#45;&gt;dir_68267d1309a1af8e8297ef4c3efbcdba -->
<g id="edge1" class="edge">
<title>dir_3c04f67c99df5e2d7829886e27b87c88&#45;&gt;dir_68267d1309a1af8e8297ef4c3efbcdba</title>
<path fill="none" stroke="#000000" d="M128,-71.8314C128,-64.131 128,-54.9743 128,-46.4166"/>
<polygon fill="#000000" stroke="#000000" points="131.5001,-46.4132 128,-36.4133 124.5001,-46.4133 131.5001,-46.4132"/>
<g id="a_edge1&#45;headlabel"><a xlink:href="dir_000007_000000.html" target="_top" xlink:title="1">
<text text-anchor="middle" x="134.3393" y="-47.5079" font-family="Helvetica,sans-Serif" font-size="10.00" fill="#000000">1</text>
</a>
</g>
</g>
<!-- dir_14a6432025694f4c6552cd7deb5d2ad7 -->
<g id="node3" class="node">
<title>dir_14a6432025694f4c6552cd7deb5d2ad7</title>
<g id="a_node3"><a xlink:href="dir_14a6432025694f4c6552cd7deb5d2ad7.html" target="_top" xlink:title="perf_test">
<polygon fill="#ffffff" stroke="#ff0000" points="71.5,-108 16.5,-108 16.5,-72 71.5,-72 71.5,-108"/>
<text text-anchor="middle" x="44" y="-87.5" font-family="Helvetica,sans-Serif" font-size="10.00" fill="#000000">perf_test</text>
</a>
</g>
</g>
</g>
</svg>
