<?xml version="1.0" encoding="UTF-8" standalone="no"?>
<!DOCTYPE svg PUBLIC "-//W3C//DTD SVG 1.1//EN"
 "http://www.w3.org/Graphics/SVG/1.1/DTD/svg11.dtd">
<!-- Generated by graphviz version 2.40.1 (20161225.0304)
 -->
<!-- Title: alpha&#45;lib Pages: 1 -->
<svg width="182pt" height="255pt"
 viewBox="0.00 0.00 182.00 255.00" xmlns="http://www.w3.org/2000/svg" xmlns:xlink="http://www.w3.org/1999/xlink">
<g id="graph0" class="graph" transform="scale(1 1) rotate(0) translate(4 251)">
<title>alpha&#45;lib</title>
<polygon fill="#ffffff" stroke="transparent" points="-4,4 -4,-251 178,-251 178,4 -4,4"/>
<g id="clust1" class="cluster">
<title>clusterdir_68267d1309a1af8e8297ef4c3efbcdba</title>
<g id="a_clust1"><a xlink:href="dir_68267d1309a1af8e8297ef4c3efbcdba.html" target="_top" xlink:title="src">
<polygon fill="#ddddee" stroke="#000000" points="8,-8 8,-239 166,-239 166,-8 8,-8"/>
<text text-anchor="middle" x="87" y="-227" font-family="Helvetica,sans-Serif" font-size="10.00" fill="#000000">src</text>
</a>
</g>
</g>
<g id="clust2" class="cluster">
<title>clusterdir_ee4a7651d28c69f3e59012ffc29f9af3</title>
<g id="a_clust2"><a xlink:href="dir_ee4a7651d28c69f3e59012ffc29f9af3.html" target="_top">
<polygon fill="#eeeeff" stroke="#000000" points="16,-16 16,-212 158,-212 158,-16 16,-16"/>
</a>
</g>
</g>
<!-- dir_ee4a7651d28c69f3e59012ffc29f9af3 -->
<g id="node1" class="node">
<title>dir_ee4a7651d28c69f3e59012ffc29f9af3</title>
<text text-anchor="middle" x="123" y="-183.5" font-family="Helvetica,sans-Serif" font-size="10.00" fill="#000000">alpha&#45;lib</text>
</g>
<!-- dir_02944bc74e87424800bd3eeee3e7ee51 -->
<g id="node2" class="node">
<title>dir_02944bc74e87424800bd3eeee3e7ee51</title>
<g id="a_node2"><a xlink:href="dir_02944bc74e87424800bd3eeee3e7ee51.html" target="_top" xlink:title="include">
<polygon fill="#ffffff" stroke="#ff0000" points="94,-60 40,-60 40,-24 94,-24 94,-60"/>
<text text-anchor="middle" x="67" y="-39.5" font-family="Helvetica,sans-Serif" font-size="10.00" fill="#000000">include</text>
</a>
</g>
</g>
<!-- dir_8ec3e9416f1a096279da42bd0c04ab6d -->
<g id="node3" class="node">
<title>dir_8ec3e9416f1a096279da42bd0c04ab6d</title>
<g id="a_node3"><a xlink:href="dir_8ec3e9416f1a096279da42bd0c04ab6d.html" target="_top" xlink:title="src">
<polygon fill="#ffffff" stroke="#000000" points="111,-132 57,-132 57,-96 111,-96 111,-132"/>
<text text-anchor="middle" x="84" y="-111.5" font-family="Helvetica,sans-Serif" font-size="10.00" fill="#000000">src</text>
</a>
</g>
</g>
<!-- dir_8ec3e9416f1a096279da42bd0c04ab6d&#45;&gt;dir_02944bc74e87424800bd3eeee3e7ee51 -->
<g id="edge3" class="edge">
<title>dir_8ec3e9416f1a096279da42bd0c04ab6d&#45;&gt;dir_02944bc74e87424800bd3eeee3e7ee51</title>
<path fill="none" stroke="#000000" d="M79.7102,-95.8314C77.892,-88.131 75.7301,-78.9743 73.7095,-70.4166"/>
<polygon fill="#000000" stroke="#000000" points="77.0519,-69.3414 71.3476,-60.4133 70.2392,-70.95 77.0519,-69.3414"/>
<g id="a_edge3&#45;headlabel"><a xlink:href="dir_000006_000008.html" target="_top" xlink:title="3">
<text text-anchor="middle" x="80.6412" y="-69.6874" font-family="Helvetica,sans-Serif" font-size="10.00" fill="#000000">3</text>
</a>
</g>
</g>
<!-- dir_10af9090249a87327141b074d0f02391 -->
<g id="node4" class="node">
<title>dir_10af9090249a87327141b074d0f02391</title>
<g id="a_node4"><a xlink:href="dir_10af9090249a87327141b074d0f02391.html" target="_top" xlink:title="test">
<polygon fill="#ffffff" stroke="#000000" points="78,-204 24,-204 24,-168 78,-168 78,-204"/>
<text text-anchor="middle" x="51" y="-183.5" font-family="Helvetica,sans-Serif" font-size="10.00" fill="#000000">test</text>
</a>
</g>
</g>
<!-- dir_10af9090249a87327141b074d0f02391&#45;&gt;dir_02944bc74e87424800bd3eeee3e7ee51 -->
<g id="edge2" class="edge">
<title>dir_10af9090249a87327141b074d0f02391&#45;&gt;dir_02944bc74e87424800bd3eeee3e7ee51</title>
<path fill="none" stroke="#000000" d="M48.2742,-167.9255C46.0134,-149.6489 43.7888,-120.6568 48,-96 49.4988,-87.2245 52.2751,-77.9785 55.2513,-69.6659"/>
<polygon fill="#000000" stroke="#000000" points="58.6126,-70.6742 58.9083,-60.0835 52.0727,-68.1782 58.6126,-70.6742"/>
<g id="a_edge2&#45;headlabel"><a xlink:href="dir_000010_000008.html" target="_top" xlink:title="1">
<text text-anchor="middle" x="59.9837" y="-72.5449" font-family="Helvetica,sans-Serif" font-size="10.00" fill="#000000">1</text>
</a>
</g>
</g>
<!-- dir_10af9090249a87327141b074d0f02391&#45;&gt;dir_8ec3e9416f1a096279da42bd0c04ab6d -->
<g id="edge1" class="edge">
<title>dir_10af9090249a87327141b074d0f02391&#45;&gt;dir_8ec3e9416f1a096279da42bd0c04ab6d</title>
<path fill="none" stroke="#000000" d="M59.3273,-167.8314C62.973,-159.8771 67.3309,-150.369 71.3627,-141.5723"/>
<polygon fill="#000000" stroke="#000000" points="74.5757,-142.9622 75.5606,-132.4133 68.2123,-140.0456 74.5757,-142.9622"/>
<g id="a_edge1&#45;headlabel"><a xlink:href="dir_000010_000006.html" target="_top" xlink:title="1">
<text text-anchor="middle" x="75.6591" y="-144.9129" font-family="Helvetica,sans-Serif" font-size="10.00" fill="#000000">1</text>
</a>
</g>
</g>
</g>
</svg>
