<?xml version="1.0" encoding="utf-8" standalone="no"?>
<!DOCTYPE svg PUBLIC "-//W3C//DTD SVG 1.1//EN"
  "http://www.w3.org/Graphics/SVG/1.1/DTD/svg11.dtd">
<!-- Created with matplotlib (https://matplotlib.org/) -->
<svg height="324pt" version="1.1" viewBox="0 0 432 324" width="432pt" xmlns="http://www.w3.org/2000/svg" xmlns:xlink="http://www.w3.org/1999/xlink">
 <defs>
  <style type="text/css">
*{stroke-linecap:butt;stroke-linejoin:round;}
  </style>
 </defs>
 <g id="figure_1">
  <g id="patch_1">
   <path d="M 0 324 
L 432 324 
L 432 0 
L 0 0 
z
" style="fill:#ffffff;"/>
  </g>
  <g id="axes_1">
   <g id="patch_2">
    <path d="M 41.768158 277.458056 
L 419.04 277.458056 
L 419.04 44.065817 
L 41.768158 44.065817 
z
" style="fill:#ffffff;"/>
   </g>
   <g id="matplotlib.axis_1">
    <g id="xtick_1">
     <g id="line2d_1">
      <defs>
       <path d="M 0 0 
L 0 3.5 
" id="mcae1a2eb98" style="stroke:#000000;stroke-width:0.8;"/>
      </defs>
      <g>
       <use style="stroke:#000000;stroke-width:0.8;" x="41.768158" xlink:href="#mcae1a2eb98" y="277.458056"/>
      </g>
     </g>
     <g id="text_1">
      <!-- $0$ -->
      <defs>
       <path d="M 42 31.640625 
C 42 37.75 41.90625 48.125 37.703125 56.109375 
C 34 63.109375 28.09375 65.59375 22.90625 65.59375 
C 18.09375 65.59375 12 63.40625 8.203125 56.203125 
C 4.203125 48.71875 3.796875 39.4375 3.796875 31.640625 
C 3.796875 25.953125 3.90625 17.28125 7 9.671875 
C 11.296875 -0.609375 19 -2 22.90625 -2 
C 27.5 -2 34.5 -0.109375 38.59375 9.375 
C 41.59375 16.28125 42 24.359375 42 31.640625 
z
M 22.90625 -0.40625 
C 16.5 -0.40625 12.703125 5.078125 11.296875 12.6875 
C 10.203125 18.5625 10.203125 27.15625 10.203125 32.75 
C 10.203125 40.4375 10.203125 46.828125 11.5 52.921875 
C 13.40625 61.390625 19 64 22.90625 64 
C 27 64 32.296875 61.296875 34.203125 53.125 
C 35.5 47.4375 35.59375 40.734375 35.59375 32.75 
C 35.59375 26.25 35.59375 18.265625 34.40625 12.375 
C 32.296875 1.484375 26.40625 -0.40625 22.90625 -0.40625 
z
" id="CMR17-48"/>
      </defs>
      <g transform="translate(38.841663 292.760236)scale(0.12 -0.12)">
       <use transform="scale(0.996264)" xlink:href="#CMR17-48"/>
      </g>
     </g>
    </g>
    <g id="xtick_2">
     <g id="line2d_2">
      <g>
       <use style="stroke:#000000;stroke-width:0.8;" x="90.84417" xlink:href="#mcae1a2eb98" y="277.458056"/>
      </g>
     </g>
     <g id="text_2">
      <!-- $20$ -->
      <defs>
       <path d="M 41.703125 15.453125 
L 39.90625 15.453125 
C 38.90625 8.375 38.09375 7.171875 37.703125 6.5625 
C 37.203125 5.765625 30 5.765625 28.59375 5.765625 
L 9.40625 5.765625 
C 13 9.671875 20 16.75 28.5 24.953125 
C 34.59375 30.734375 41.703125 37.53125 41.703125 47.421875 
C 41.703125 59.21875 32.296875 66 21.796875 66 
C 10.796875 66 4.09375 56.3125 4.09375 47.34375 
C 4.09375 43.4375 7 42.9375 8.203125 42.9375 
C 9.203125 42.9375 12.203125 43.546875 12.203125 47.03125 
C 12.203125 50.109375 9.59375 51 8.203125 51 
C 7.59375 51 7 50.90625 6.59375 50.703125 
C 8.5 59.21875 14.296875 63.40625 20.40625 63.40625 
C 29.09375 63.40625 34.796875 56.515625 34.796875 47.421875 
C 34.796875 38.734375 29.703125 31.25 24 24.75 
L 4.09375 2.28125 
L 4.09375 0 
L 39.296875 0 
z
" id="CMR17-50"/>
      </defs>
      <g transform="translate(84.99118 292.760236)scale(0.12 -0.12)">
       <use transform="scale(0.996264)" xlink:href="#CMR17-50"/>
       <use transform="translate(45.690477 0)scale(0.996264)" xlink:href="#CMR17-48"/>
      </g>
     </g>
    </g>
    <g id="xtick_3">
     <g id="line2d_3">
      <g>
       <use style="stroke:#000000;stroke-width:0.8;" x="139.920182" xlink:href="#mcae1a2eb98" y="277.458056"/>
      </g>
     </g>
     <g id="text_3">
      <!-- $40$ -->
      <defs>
       <path d="M 33.59375 64.40625 
C 33.59375 66.5 33.5 66.5 31.703125 66.5 
L 2 19.59375 
L 2 17 
L 27.796875 17 
L 27.796875 7.140625 
C 27.796875 3.5 27.59375 2.5 20.59375 2.5 
L 18.703125 2.5 
L 18.703125 0 
C 21.90625 0 27.296875 0 30.703125 0 
C 34.09375 0 39.5 0 42.703125 0 
L 42.703125 2.5 
L 40.796875 2.5 
C 33.796875 2.5 33.59375 3.5 33.59375 7.140625 
L 33.59375 17 
L 43.796875 17 
L 43.796875 19.59375 
L 33.59375 19.59375 
z
M 28.09375 57.859375 
L 28.09375 19.59375 
L 4 19.59375 
z
" id="CMR17-52"/>
      </defs>
      <g transform="translate(134.067192 292.760236)scale(0.12 -0.12)">
       <use transform="scale(0.996264)" xlink:href="#CMR17-52"/>
       <use transform="translate(45.690477 0)scale(0.996264)" xlink:href="#CMR17-48"/>
      </g>
     </g>
    </g>
    <g id="xtick_4">
     <g id="line2d_4">
      <g>
       <use style="stroke:#000000;stroke-width:0.8;" x="188.996194" xlink:href="#mcae1a2eb98" y="277.458056"/>
      </g>
     </g>
     <g id="text_4">
      <!-- $60$ -->
      <defs>
       <path d="M 10.59375 34 
C 10.59375 57.65625 21.796875 63 28.296875 63 
C 30.40625 63 35.5 62.640625 37.5 59 
C 35.90625 59 32.90625 59 32.90625 55.515625 
C 32.90625 52.828125 35.09375 51.921875 36.5 51.921875 
C 37.40625 51.921875 40.09375 52.3125 40.09375 55.625 
C 40.09375 61.78125 35.09375 65.296875 28.203125 65.296875 
C 16.296875 65.296875 3.796875 52.96875 3.796875 31 
C 3.796875 3.953125 15.09375 -2 23.09375 -2 
C 32.796875 -2 42 6.671875 42 20.046875 
C 42 32.515625 33.90625 41.59375 23.703125 41.59375 
C 17.59375 41.59375 13.09375 37.609375 10.59375 30.625 
z
M 23.09375 0.390625 
C 10.796875 0.390625 10.796875 18.75 10.796875 22.4375 
C 10.796875 29.625 14.203125 40 23.5 40 
C 25.203125 40 30.09375 40 33.40625 33.125 
C 35.203125 29.21875 35.203125 25.140625 35.203125 20.140625 
C 35.203125 14.75 35.203125 10.78125 33.09375 6.78125 
C 30.90625 2.671875 27.703125 0.390625 23.09375 0.390625 
z
" id="CMR17-54"/>
      </defs>
      <g transform="translate(183.143204 292.760236)scale(0.12 -0.12)">
       <use transform="scale(0.996264)" xlink:href="#CMR17-54"/>
       <use transform="translate(45.690477 0)scale(0.996264)" xlink:href="#CMR17-48"/>
      </g>
     </g>
    </g>
    <g id="xtick_5">
     <g id="line2d_5">
      <g>
       <use style="stroke:#000000;stroke-width:0.8;" x="238.072206" xlink:href="#mcae1a2eb98" y="277.458056"/>
      </g>
     </g>
     <g id="text_5">
      <!-- $80$ -->
      <defs>
       <path d="M 27.203125 35.375 
C 33.5 38.546875 39.90625 43.328125 39.90625 50.984375 
C 39.90625 60.015625 31.09375 65.296875 23 65.296875 
C 13.90625 65.296875 5.90625 58.734375 5.90625 49.6875 
C 5.90625 47.203125 6.5 42.921875 10.40625 39.140625 
C 11.40625 38.15625 15.59375 35.171875 18.296875 33.28125 
C 13.796875 30.984375 3.296875 25.53125 3.296875 14.59375 
C 3.296875 4.359375 13.09375 -2 22.796875 -2 
C 33.5 -2 42.5 5.65625 42.5 15.78125 
C 42.5 24.84375 36.40625 29.015625 32.40625 31.703125 
z
M 14.09375 44.09375 
C 13.296875 44.59375 9.296875 47.671875 9.296875 52.359375 
C 9.296875 58.421875 15.59375 63 22.796875 63 
C 30.703125 63 36.5 57.4375 36.5 50.96875 
C 36.5 41.703125 26.09375 36.421875 25.59375 36.421875 
C 25.5 36.421875 25.40625 36.421875 24.59375 37.03125 
z
M 32.5 23.734375 
C 34 22.640625 38.796875 19.375 38.796875 13.296875 
C 38.796875 5.953125 31.40625 0.390625 23 0.390625 
C 13.90625 0.390625 7 6.84375 7 14.6875 
C 7 22.546875 13.09375 29.09375 20 32.1875 
z
" id="CMR17-56"/>
      </defs>
      <g transform="translate(232.219216 292.760236)scale(0.12 -0.12)">
       <use transform="scale(0.996264)" xlink:href="#CMR17-56"/>
       <use transform="translate(45.690477 0)scale(0.996264)" xlink:href="#CMR17-48"/>
      </g>
     </g>
    </g>
    <g id="xtick_6">
     <g id="line2d_6">
      <g>
       <use style="stroke:#000000;stroke-width:0.8;" x="287.148218" xlink:href="#mcae1a2eb98" y="277.458056"/>
      </g>
     </g>
     <g id="text_6">
      <!-- $100$ -->
      <defs>
       <path d="M 26.59375 63.40625 
C 26.59375 65.5 26.5 65.5 25.09375 65.5 
C 21.203125 61.1875 15.296875 59.796875 9.703125 59.796875 
C 9.40625 59.796875 8.90625 59.796875 8.796875 59.5 
C 8.703125 59.296875 8.703125 59.09375 8.703125 57 
C 11.796875 57 17 57.59375 21 59.984375 
L 21 7.203125 
C 21 3.6875 20.796875 2.5 12.203125 2.5 
L 9.203125 2.5 
L 9.203125 0 
C 14 0 19 0 23.796875 0 
C 28.59375 0 33.59375 0 38.40625 0 
L 38.40625 2.5 
L 35.40625 2.5 
C 26.796875 2.5 26.59375 3.59375 26.59375 7.15625 
z
" id="CMR17-49"/>
      </defs>
      <g transform="translate(278.368733 292.760236)scale(0.12 -0.12)">
       <use transform="scale(0.996264)" xlink:href="#CMR17-49"/>
       <use transform="translate(45.690477 0)scale(0.996264)" xlink:href="#CMR17-48"/>
       <use transform="translate(91.380954 0)scale(0.996264)" xlink:href="#CMR17-48"/>
      </g>
     </g>
    </g>
    <g id="xtick_7">
     <g id="line2d_7">
      <g>
       <use style="stroke:#000000;stroke-width:0.8;" x="336.22423" xlink:href="#mcae1a2eb98" y="277.458056"/>
      </g>
     </g>
     <g id="text_7">
      <!-- $120$ -->
      <g transform="translate(327.444745 292.760236)scale(0.12 -0.12)">
       <use transform="scale(0.996264)" xlink:href="#CMR17-49"/>
       <use transform="translate(45.690477 0)scale(0.996264)" xlink:href="#CMR17-50"/>
       <use transform="translate(91.380954 0)scale(0.996264)" xlink:href="#CMR17-48"/>
      </g>
     </g>
    </g>
    <g id="xtick_8">
     <g id="line2d_8">
      <g>
       <use style="stroke:#000000;stroke-width:0.8;" x="385.300242" xlink:href="#mcae1a2eb98" y="277.458056"/>
      </g>
     </g>
     <g id="text_8">
      <!-- $140$ -->
      <g transform="translate(376.520756 292.760236)scale(0.12 -0.12)">
       <use transform="scale(0.996264)" xlink:href="#CMR17-49"/>
       <use transform="translate(45.690477 0)scale(0.996264)" xlink:href="#CMR17-52"/>
       <use transform="translate(91.380954 0)scale(0.996264)" xlink:href="#CMR17-48"/>
      </g>
     </g>
    </g>
    <g id="text_9">
     <!-- Image size [pixels] -->
     <defs>
      <path d="M 19.703125 61.015625 
C 19.703125 65.5 20.90625 65.5 28.09375 65.5 
L 28.09375 68 
C 24.90625 68 19.796875 68 16.40625 68 
C 13 68 7.90625 68 4.703125 68 
L 4.703125 65.5 
C 11.90625 65.5 13.09375 65.5 13.09375 61.015625 
L 13.09375 6.984375 
C 13.09375 2.5 11.90625 2.5 4.703125 2.5 
L 4.703125 0 
C 7.90625 0 13 0 16.40625 0 
C 19.796875 0 24.90625 0 28.09375 0 
L 28.09375 2.5 
C 20.90625 2.5 19.703125 2.5 19.703125 6.984375 
z
" id="CMR17-73"/>
      <path d="M 67.59375 30.203125 
C 67.59375 35.1875 66.703125 43.59375 54.796875 43.59375 
C 48 43.59375 43.296875 39 41.5 33.609375 
L 41.40625 33.609375 
C 40.203125 41.8125 34.296875 43.59375 28.703125 43.59375 
C 20.796875 43.59375 16.703125 37.5 15.203125 33.5 
L 15.09375 33.5 
L 15.09375 43.59375 
L 3.296875 42.5 
L 3.296875 39.90625 
C 9.203125 39.90625 10.09375 39.296875 10.09375 34.5 
L 10.09375 6.6875 
C 10.09375 2.875 9.703125 2.390625 3.296875 2.390625 
L 3.296875 -0.203125 
C 5.703125 0 10.09375 0 12.703125 0 
C 15.296875 0 19.796875 0 22.203125 -0.203125 
L 22.203125 2.390625 
C 15.796875 2.390625 15.40625 2.78125 15.40625 6.6875 
L 15.40625 25.90625 
C 15.40625 35.109375 21 42 28 42 
C 35.40625 42 36.203125 35.40625 36.203125 30.59375 
L 36.203125 6.6875 
C 36.203125 2.875 35.796875 2.390625 29.40625 2.390625 
L 29.40625 -0.203125 
C 31.796875 0 36.203125 0 38.796875 0 
C 41.40625 0 45.90625 0 48.296875 -0.203125 
L 48.296875 2.390625 
C 41.90625 2.390625 41.5 2.78125 41.5 6.6875 
L 41.5 25.90625 
C 41.5 35.109375 47.09375 42 54.09375 42 
C 61.5 42 62.296875 35.40625 62.296875 30.59375 
L 62.296875 6.6875 
C 62.296875 2.875 61.90625 2.390625 55.5 2.390625 
L 55.5 -0.203125 
C 57.90625 0 62.296875 0 64.90625 0 
C 67.5 0 72 0 74.40625 -0.203125 
L 74.40625 2.390625 
C 68 2.390625 67.59375 2.78125 67.59375 6.6875 
z
" id="CMR17-109"/>
      <path d="M 36 25.828125 
C 36 32.375 36 35.84375 31.796875 39.734375 
C 28.09375 43 23.796875 44 20.40625 44 
C 12.5 44 6.796875 37.609375 6.796875 30.796875 
C 6.796875 27 9.796875 27 10.40625 27 
C 11.703125 27 14 27.78125 14 30.53125 
C 14 33 12.09375 34.078125 10.40625 34.078125 
C 10 34.078125 9.5 33.96875 9.203125 33.875 
C 11.296875 40.5 16.703125 42.40625 20.203125 42.40625 
C 25.203125 42.40625 30.703125 37.953125 30.703125 29.453125 
L 30.703125 25 
C 24.796875 25 17.703125 24.203125 12.09375 21.203125 
C 5.796875 17.703125 4 12.703125 4 8.90625 
C 4 1.203125 13 -1 18.296875 -1 
C 23.796875 -1 28.90625 2.171875 31.09375 7.984375 
C 31.296875 3.640625 34.09375 -0.28125 38.5 -0.28125 
C 40.59375 -0.28125 45.90625 1.09375 45.90625 8.859375 
L 45.90625 14.375 
L 44.09375 14.375 
L 44.09375 8.78125 
C 44.09375 2.78125 41.40625 2 40.09375 2 
C 36 2 36 7.15625 36 11.53125 
z
M 30.703125 13.59375 
C 30.703125 4.953125 24.5 0.59375 19 0.59375 
C 14 0.59375 10.09375 4.296875 10.09375 8.90625 
C 10.09375 11.890625 11.40625 17.1875 17.203125 20.390625 
C 22 23.09375 27.5 23.5 30.703125 23.5 
z
" id="CMR17-97"/>
      <path d="M 11.09375 18.1875 
C 13 16.6875 16.296875 15 20.296875 15 
C 28.203125 15 35 21.203125 35 29.5 
C 35 32.09375 34.203125 36.09375 31.203125 39.203125 
C 34 42.0625 38.09375 43 40.40625 43 
C 40.796875 43 41.40625 43 41.90625 42.71875 
C 41.5 42.625 40.59375 42.234375 40.59375 40.703125 
C 40.59375 39.484375 41.5 38.609375 42.796875 38.609375 
C 44.296875 38.609375 45.09375 39.578125 45.09375 40.84375 
C 45.09375 42.671875 43.59375 44.59375 40.40625 44.59375 
C 36.40625 44.59375 32.90625 42.78125 30.09375 40.3125 
C 27.09375 43.015625 23.5 44 20.296875 44 
C 12.40625 44 5.59375 37.796875 5.59375 29.5 
C 5.59375 23.78125 8.90625 20.1875 9.90625 19.1875 
C 6.90625 15.6875 6.90625 11.609375 6.90625 11.109375 
C 6.90625 8.515625 7.90625 4.71875 11.296875 2.625 
C 6.09375 1.328125 2 -2.640625 2 -7.59375 
C 2 -14.734375 11.5 -20 22.90625 -20 
C 33.90625 -20 43.796875 -14.9375 43.796875 -7.484375 
C 43.796875 6 29 6 21.296875 6 
C 19 6 14.90625 6 14.40625 6.109375 
C 11.296875 6.609375 9.203125 9.40625 9.203125 12.90625 
C 9.203125 13.796875 9.203125 16 11.09375 18.1875 
z
M 20.296875 16.6875 
C 11.5 16.6875 11.5 27.5 11.5 29.515625 
C 11.5 31.5 11.5 42.3125 20.296875 42.3125 
C 29.09375 42.3125 29.09375 31.5 29.09375 29.515625 
C 29.09375 27.5 29.09375 16.6875 20.296875 16.6875 
z
M 22.90625 -18.296875 
C 12.90625 -18.296875 6 -13.046875 6 -7.59375 
C 6 -4.515625 7.703125 -1.640625 9.90625 -0.0625 
C 12.40625 1.625 13.40625 1.625 20.203125 1.625 
C 28.40625 1.625 39.796875 1.625 39.796875 -7.59375 
C 39.796875 -13.046875 32.90625 -18.296875 22.90625 -18.296875 
z
" id="CMR17-103"/>
      <path d="M 38.09375 23 
C 38.5 23.40625 38.5 23.609375 38.5 24.625 
C 38.5 34.96875 33.09375 44 21.703125 44 
C 11.09375 44 2.703125 33.890625 2.703125 21.609375 
C 2.703125 8.609375 12.203125 -1 22.796875 -1 
C 34 -1 38.40625 9.484375 38.40625 11.5625 
C 38.40625 12.25 37.796875 12.25 37.59375 12.25 
C 36.90625 12.25 36.796875 12.046875 36.40625 10.875 
C 34.203125 4.140625 28.703125 0.796875 23.5 0.796875 
C 19.203125 0.796875 14.90625 3.171875 12.203125 7.5 
C 9.09375 12.546875 9.09375 18.375 9.09375 23 
z
M 9.203125 24.5 
C 9.90625 39.140625 17.59375 42.40625 21.59375 42.40625 
C 28.40625 42.40625 33 35.890625 33.09375 24.5 
z
" id="CMR17-101"/>
      <path d="M 30.90625 42.140625 
C 30.90625 43.953125 30.796875 44.046875 30.203125 44.046875 
C 29.796875 44.046875 29.703125 43.953125 28.5 42.453125 
C 28.203125 42.046875 27.296875 41.03125 27 40.640625 
C 23.796875 44.046875 19.296875 44.046875 17.59375 44.046875 
C 6.5 44.046875 2.5 38.234375 2.5 32.4375 
C 2.5 23.40625 12.703125 21.328125 15.59375 20.703125 
C 21.90625 19.421875 24.09375 19.015625 26.203125 17.203125 
C 27.5 16.015625 29.703125 13.8125 29.703125 10.21875 
C 29.703125 6 27.296875 0.59375 18.09375 0.59375 
C 9.40625 0.59375 6.296875 7.1875 4.5 15.953125 
C 4.203125 17.34375 4.203125 17.453125 3.40625 17.453125 
C 2.59375 17.453125 2.5 17.34375 2.5 15.359375 
L 2.5 0.984375 
C 2.5 -0.796875 2.59375 -0.90625 3.203125 -0.90625 
C 3.703125 -0.90625 3.796875 -0.796875 4.296875 0 
C 4.90625 0.890625 6.40625 3.296875 7 4.3125 
C 9 1.609375 12.5 -1 18.09375 -1 
C 28 -1 33.296875 4.421875 33.296875 12.25 
C 33.296875 17.375 30.59375 20.078125 29.296875 21.28125 
C 26.296875 24.390625 22.796875 25.09375 18.59375 25.890625 
C 13.09375 27.109375 6.09375 28.515625 6.09375 34.640625 
C 6.09375 37.234375 7.5 42.765625 17.59375 42.765625 
C 28.296875 42.765625 28.90625 32.71875 29.09375 29.5 
C 29.203125 29 29.703125 28.890625 30 28.890625 
C 30.90625 28.890625 30.90625 29.203125 30.90625 30.90625 
z
" id="CMR17-115"/>
      <path d="M 15.5 61.078125 
C 15.5 63.265625 13.703125 65.15625 11.40625 65.15625 
C 9.203125 65.15625 7.296875 63.375 7.296875 61.078125 
C 7.296875 58.890625 9.09375 57 11.40625 57 
C 13.59375 57 15.5 58.796875 15.5 61.078125 
z
M 3.796875 42.28125 
L 3.796875 39.703125 
C 9.40625 39.703125 10.203125 39.09375 10.203125 34.328125 
L 10.203125 6.671875 
C 10.203125 2.875 9.796875 2.390625 3.40625 2.390625 
L 3.40625 -0.203125 
C 5.796875 0 10.09375 0 12.59375 0 
C 15 0 19.09375 0 21.40625 -0.203125 
L 21.40625 2.390625 
C 15.5 2.390625 15.296875 2.984375 15.296875 6.5625 
L 15.296875 43.375 
z
" id="CMR17-105"/>
      <path d="M 36.09375 40.703125 
C 36.90625 41.71875 36.90625 41.90625 36.90625 42.109375 
C 36.90625 43 36.5 43 34.703125 43 
L 4.296875 43 
L 3.296875 27.5 
L 5.09375 27.5 
C 5.796875 37.203125 6.90625 41.40625 18.40625 41.40625 
L 30.59375 41.40625 
L 2 1.5 
C 2 0 2.09375 0 4.203125 0 
L 35.796875 0 
L 37.203125 18 
L 35.40625 18 
C 34.59375 6.90625 33.296875 1.796875 21.09375 1.796875 
L 8.296875 1.796875 
z
" id="CMR17-122"/>
      <path d="M 23.5 -25 
L 23.5 -21.515625 
L 14.09375 -21.515625 
L 14.09375 71 
L 23.5 71 
L 23.5 74.484375 
L 10.59375 74.484375 
L 10.59375 -25 
z
" id="CMR17-91"/>
      <path d="M 22 -16.609375 
C 15.59375 -16.609375 15.203125 -16.203125 15.203125 -12.328125 
L 15.203125 6.28125 
C 18.09375 2.09375 22.296875 -0.59375 27.59375 -0.59375 
C 37.59375 -0.59375 47.703125 8.171875 47.703125 21.6875 
C 47.703125 34.234375 39 43.78125 28.703125 43.78125 
C 22.703125 43.78125 17.796875 40.5 15 36.53125 
L 15 43.78125 
L 3.09375 42.6875 
L 3.09375 40.109375 
C 9 40.109375 9.90625 39.5 9.90625 34.734375 
L 9.90625 -12.328125 
C 9.90625 -16.109375 9.5 -16.609375 3.09375 -16.609375 
L 3.09375 -19.1875 
C 5.5 -19 9.90625 -19 12.5 -19 
C 15.09375 -19 19.59375 -19 22 -19.1875 
z
M 15.203125 31.4375 
C 15.203125 32.84375 15.203125 34.921875 19.09375 38.609375 
C 19.59375 39.015625 23 42 28 42 
C 35.296875 42 41.296875 32.9375 41.296875 21.59375 
C 41.296875 10.25 34.90625 1 27 1 
C 23.40625 1 19.5 2.6875 16.5 7.375 
C 15.203125 9.5625 15.203125 10.15625 15.203125 11.75 
z
" id="CMR17-112"/>
      <path d="M 26 23.078125 
C 29 26.96875 32.40625 31.34375 35.203125 34.625 
C 38.5 38.40625 42.296875 40 46.703125 40 
L 46.703125 42.59375 
C 45 42.59375 41.5 42.59375 39.703125 42.59375 
C 37 42.59375 33.90625 42.59375 31.59375 42.6875 
L 31.59375 40.09375 
C 33 39.890625 33.796875 38.890625 33.796875 37.5 
C 33.796875 35.703125 32.796875 34.609375 32.296875 33.921875 
L 24.90625 24.578125 
L 16.09375 36.03125 
C 15.203125 37.125 15.203125 37.3125 15.203125 37.8125 
C 15.203125 39.015625 16.203125 40 17.90625 40 
L 17.90625 42.6875 
C 15.5 42.59375 11.203125 42.59375 8.703125 42.59375 
C 6 42.59375 2.796875 42.59375 0.59375 42.6875 
L 0.59375 40 
C 6 40 7.203125 39.59375 9.59375 36.609375 
L 21.09375 21.796875 
C 21.296875 21.59375 21.796875 21 21.796875 20.703125 
C 21.796875 20.296875 13.09375 9.671875 12 8.28125 
C 7.5 2.890625 2.796875 2.5 0.09375 2.5 
L 0.09375 0 
C 1.796875 0 5.296875 0 7.09375 0 
C 9.09375 0 13.5 0 15.296875 -0.09375 
L 15.296875 2.5 
C 14.703125 2.59375 13.09375 2.796875 13.09375 5.078125 
C 13.09375 6.875 13.90625 7.96875 14.796875 9.15625 
L 23.09375 19.3125 
L 31.796875 8 
C 32.59375 6.90625 33.796875 5.40625 33.796875 4.703125 
C 33.796875 3.296875 32.59375 2.5 31 2.5 
L 31 -0.09375 
C 33.40625 0 37.703125 0 40.203125 0 
C 42.90625 0 46.09375 0 48.296875 -0.09375 
L 48.296875 2.5 
C 43.296875 2.5 41.796875 2.6875 39.40625 5.78125 
z
" id="CMR17-120"/>
      <path d="M 15.296875 68.6875 
L 3.40625 67.59375 
L 3.40625 65 
C 9.296875 65 10.203125 64.40625 10.203125 59.640625 
L 10.203125 6.65625 
C 10.203125 2.875 9.796875 2.390625 3.40625 2.390625 
L 3.40625 -0.203125 
C 5.796875 0 10.203125 0 12.703125 0 
C 15.296875 0 19.703125 0 22.09375 -0.203125 
L 22.09375 2.390625 
C 15.703125 2.390625 15.296875 2.78125 15.296875 6.65625 
z
" id="CMR17-108"/>
      <path d="M 14.296875 74.484375 
L 1.40625 74.484375 
L 1.40625 71 
L 10.796875 71 
L 10.796875 -21.515625 
L 1.40625 -21.515625 
L 1.40625 -25 
L 14.296875 -25 
z
" id="CMR17-93"/>
     </defs>
     <g transform="translate(184.167531 308.051208)scale(0.12 -0.12)">
      <use transform="scale(0.996264)" xlink:href="#CMR17-73"/>
      <use transform="translate(32.638409 0)scale(0.996264)" xlink:href="#CMR17-109"/>
      <use transform="translate(109.557999 0)scale(0.996264)" xlink:href="#CMR17-97"/>
      <use transform="translate(155.248476 0)scale(0.996264)" xlink:href="#CMR17-103"/>
      <use transform="translate(200.938953 0)scale(0.996264)" xlink:href="#CMR17-101"/>
      <use transform="translate(271.50058 0)scale(0.996264)" xlink:href="#CMR17-115"/>
      <use transform="translate(307.301918 0)scale(0.996264)" xlink:href="#CMR17-105"/>
      <use transform="translate(332.172976 0)scale(0.996264)" xlink:href="#CMR17-122"/>
      <use transform="translate(372.658637 0)scale(0.996264)" xlink:href="#CMR17-101"/>
      <use transform="translate(443.220263 0)scale(0.996264)" xlink:href="#CMR17-91"/>
      <use transform="translate(468.091322 0)scale(0.996264)" xlink:href="#CMR17-112"/>
      <use transform="translate(518.986692 0)scale(0.996264)" xlink:href="#CMR17-105"/>
      <use transform="translate(543.85775 0)scale(0.996264)" xlink:href="#CMR17-120"/>
      <use transform="translate(592.150666 0)scale(0.996264)" xlink:href="#CMR17-101"/>
      <use transform="translate(632.636327 0)scale(0.996264)" xlink:href="#CMR17-108"/>
      <use transform="translate(657.507385 0)scale(0.996264)" xlink:href="#CMR17-115"/>
      <use transform="translate(693.308723 0)scale(0.996264)" xlink:href="#CMR17-93"/>
     </g>
    </g>
   </g>
   <g id="matplotlib.axis_2">
    <g id="ytick_1">
     <g id="line2d_9">
      <defs>
       <path d="M 0 0 
L -3.5 0 
" id="m6b6e4104cf" style="stroke:#000000;stroke-width:0.8;"/>
      </defs>
      <g>
       <use style="stroke:#000000;stroke-width:0.8;" x="41.768158" xlink:href="#m6b6e4104cf" y="277.458056"/>
      </g>
     </g>
     <g id="text_10">
      <!-- $0$ -->
      <g transform="translate(28.915168 281.609146)scale(0.12 -0.12)">
       <use transform="scale(0.996264)" xlink:href="#CMR17-48"/>
      </g>
     </g>
    </g>
    <g id="ytick_2">
     <g id="line2d_10">
      <g>
       <use style="stroke:#000000;stroke-width:0.8;" x="41.768158" xlink:href="#m6b6e4104cf" y="243.830264"/>
      </g>
     </g>
     <g id="text_11">
      <!-- $1$ -->
      <g transform="translate(28.915168 247.981354)scale(0.12 -0.12)">
       <use transform="scale(0.996264)" xlink:href="#CMR17-49"/>
      </g>
     </g>
    </g>
    <g id="ytick_3">
     <g id="line2d_11">
      <g>
       <use style="stroke:#000000;stroke-width:0.8;" x="41.768158" xlink:href="#m6b6e4104cf" y="210.202472"/>
      </g>
     </g>
     <g id="text_12">
      <!-- $2$ -->
      <g transform="translate(28.915168 214.353562)scale(0.12 -0.12)">
       <use transform="scale(0.996264)" xlink:href="#CMR17-50"/>
      </g>
     </g>
    </g>
    <g id="ytick_4">
     <g id="line2d_12">
      <g>
       <use style="stroke:#000000;stroke-width:0.8;" x="41.768158" xlink:href="#m6b6e4104cf" y="176.57468"/>
      </g>
     </g>
     <g id="text_13">
      <!-- $3$ -->
      <defs>
       <path d="M 22.09375 33.703125 
C 31 33.703125 34.90625 25.96875 34.90625 17.03125 
C 34.90625 5 28.5 0.390625 22.703125 0.390625 
C 17.40625 0.390625 8.796875 3.03125 6.09375 10.828125 
C 6.59375 10.625 7.09375 10.625 7.59375 10.625 
C 10 10.625 11.796875 12.21875 11.796875 14.8125 
C 11.796875 17.703125 9.59375 19 7.59375 19 
C 5.90625 19 3.296875 18.203125 3.296875 14.46875 
C 3.296875 5.234375 12.296875 -2 22.90625 -2 
C 34 -2 42.5 6.71875 42.5 16.953125 
C 42.5 26.671875 34.5 33.703125 25 34.796875 
C 32.59375 36.375 39.90625 43.0625 39.90625 52.015625 
C 39.90625 59.6875 32 65.296875 23 65.296875 
C 13.90625 65.296875 5.90625 59.828125 5.90625 52.015625 
C 5.90625 48.59375 8.5 48 9.796875 48 
C 11.90625 48 13.703125 49.296875 13.703125 51.890625 
C 13.703125 54.46875 11.90625 55.765625 9.796875 55.765625 
C 9.40625 55.765625 8.90625 55.765625 8.5 55.578125 
C 11.40625 61.859375 19.296875 63 22.796875 63 
C 26.296875 63 32.90625 61.328125 32.90625 51.875 
C 32.90625 49.109375 32.5 44.1875 29.09375 39.84375 
C 26.09375 36 22.703125 36 19.40625 35.6875 
C 18.90625 35.6875 16.59375 35.453125 16.203125 35.453125 
C 15.5 35.359375 15.09375 35.265625 15.09375 34.5 
C 15.09375 33.796875 15.203125 33.703125 17.203125 33.703125 
z
" id="CMR17-51"/>
      </defs>
      <g transform="translate(28.915168 180.72577)scale(0.12 -0.12)">
       <use transform="scale(0.996264)" xlink:href="#CMR17-51"/>
      </g>
     </g>
    </g>
    <g id="ytick_5">
     <g id="line2d_13">
      <g>
       <use style="stroke:#000000;stroke-width:0.8;" x="41.768158" xlink:href="#m6b6e4104cf" y="142.946888"/>
      </g>
     </g>
     <g id="text_14">
      <!-- $4$ -->
      <g transform="translate(28.915168 147.097978)scale(0.12 -0.12)">
       <use transform="scale(0.996264)" xlink:href="#CMR17-52"/>
      </g>
     </g>
    </g>
    <g id="ytick_6">
     <g id="line2d_14">
      <g>
       <use style="stroke:#000000;stroke-width:0.8;" x="41.768158" xlink:href="#m6b6e4104cf" y="109.319095"/>
      </g>
     </g>
     <g id="text_15">
      <!-- $5$ -->
      <defs>
       <path d="M 11.40625 57.6875 
C 12.40625 57.28125 16.5 56 20.703125 56 
C 30 56 35.09375 61.109375 38 64.0625 
C 38 64.953125 38 65.5 37.40625 65.5 
C 37.296875 65.5 37.09375 65.5 36.296875 65.046875 
C 32.796875 63.40625 28.703125 62.078125 23.703125 62.078125 
C 20.703125 62.078125 16.203125 62.484375 11.296875 64.671875 
C 10.203125 65.171875 10 65.171875 9.90625 65.171875 
C 9.40625 65.171875 9.296875 65.0625 9.296875 63.078125 
L 9.296875 34.421875 
C 9.296875 32.640625 9.296875 32.140625 10.296875 32.140625 
C 10.796875 32.140625 11 32.34375 11.5 33.03125 
C 14.703125 37.515625 19.09375 39.40625 24.09375 39.40625 
C 27.59375 39.40625 35.09375 37.21875 35.09375 20.140625 
C 35.09375 16.953125 35.09375 11.171875 32.09375 6.578125 
C 29.59375 2.484375 25.703125 0.390625 21.40625 0.390625 
C 14.796875 0.390625 8.09375 5 6.296875 12.71875 
C 6.703125 12.609375 7.5 12.421875 7.90625 12.421875 
C 9.203125 12.421875 11.703125 13.125 11.703125 16.21875 
C 11.703125 18.90625 9.796875 20 7.90625 20 
C 5.59375 20 4.09375 18.59375 4.09375 15.796875 
C 4.09375 7.09375 11 -2 21.59375 -2 
C 31.90625 -2 41.703125 6.875 41.703125 19.75 
C 41.703125 31.71875 33.90625 41 24.203125 41 
C 19.09375 41 14.796875 39.109375 11.40625 35.53125 
z
" id="CMR17-53"/>
      </defs>
      <g transform="translate(28.915168 113.470185)scale(0.12 -0.12)">
       <use transform="scale(0.996264)" xlink:href="#CMR17-53"/>
      </g>
     </g>
    </g>
    <g id="ytick_7">
     <g id="line2d_15">
      <g>
       <use style="stroke:#000000;stroke-width:0.8;" x="41.768158" xlink:href="#m6b6e4104cf" y="75.691303"/>
      </g>
     </g>
     <g id="text_16">
      <!-- $6$ -->
      <g transform="translate(28.915168 79.842393)scale(0.12 -0.12)">
       <use transform="scale(0.996264)" xlink:href="#CMR17-54"/>
      </g>
     </g>
    </g>
    <g id="text_17">
     <!-- Time [s] -->
     <defs>
      <path d="M 62.203125 67.59375 
L 4.5 67.59375 
L 2.796875 45.59375 
L 4.59375 45.59375 
C 5.90625 62.125 7.296875 65 22.703125 65 
C 24.5 65 27.40625 65 28.203125 64.90625 
C 30.09375 64.609375 30.09375 63.40625 30.09375 61.125 
L 30.09375 7.171875 
C 30.09375 3.59375 29.796875 2.5 21.5 2.5 
L 18.703125 2.5 
L 18.703125 0 
C 23.5 0 28.5 0 33.40625 0 
C 38.296875 0 43.296875 0 48.09375 0 
L 48.09375 2.5 
L 45.296875 2.5 
C 37 2.5 36.703125 3.59375 36.703125 7.171875 
L 36.703125 61.125 
C 36.703125 63.3125 36.703125 64.515625 38.5 64.90625 
C 39.296875 65 42.203125 65 44 65 
C 59.296875 65 60.796875 62.125 62.09375 45.59375 
L 63.90625 45.59375 
z
" id="CMR17-84"/>
     </defs>
     <g transform="translate(21.926376 181.605085)rotate(-90)scale(0.12 -0.12)">
      <use transform="scale(0.996264)" xlink:href="#CMR17-84"/>
      <use transform="translate(66.509881 0)scale(0.996264)" xlink:href="#CMR17-105"/>
      <use transform="translate(91.380939 0)scale(0.996264)" xlink:href="#CMR17-109"/>
      <use transform="translate(168.300529 0)scale(0.996264)" xlink:href="#CMR17-101"/>
      <use transform="translate(238.862156 0)scale(0.996264)" xlink:href="#CMR17-91"/>
      <use transform="translate(263.733214 0)scale(0.996264)" xlink:href="#CMR17-115"/>
      <use transform="translate(299.534552 0)scale(0.996264)" xlink:href="#CMR17-93"/>
     </g>
    </g>
    <g id="text_18">
     <!-- $\times10^{-5}$ -->
     <defs>
      <path d="M 38.90625 27.890625 
L 18.90625 47.796875 
C 17.703125 49 17.5 49.1875 16.703125 49.1875 
C 15.703125 49.1875 14.703125 48.296875 14.703125 47.1875 
C 14.703125 46.5 14.90625 46.296875 16 45.1875 
L 36 25.09375 
L 16 5 
C 14.90625 3.890625 14.703125 3.6875 14.703125 3 
C 14.703125 1.890625 15.703125 1 16.703125 1 
C 17.5 1 17.703125 1.1875 18.90625 2.390625 
L 38.796875 22.296875 
L 59.5 1.59375 
C 59.703125 1.5 60.40625 1 61 1 
C 62.203125 1 63 1.890625 63 3 
C 63 3.1875 63 3.59375 62.703125 4.09375 
C 62.59375 4.296875 46.703125 20 41.703125 25.09375 
L 60 43.390625 
C 60.5 44 62 45.296875 62.5 45.890625 
C 62.59375 46.09375 63 46.5 63 47.1875 
C 63 48.296875 62.203125 49.1875 61 49.1875 
C 60.203125 49.1875 59.796875 48.796875 58.703125 47.6875 
z
" id="CMSY10-2"/>
      <path d="M 65.90625 23 
C 67.59375 23 69.40625 23 69.40625 25 
C 69.40625 27 67.59375 27 65.90625 27 
L 11.796875 27 
C 10.09375 27 8.296875 27 8.296875 25 
C 8.296875 23 10.09375 23 11.796875 23 
z
" id="CMSY10-0"/>
     </defs>
     <g transform="translate(41.768158 41.065817)scale(0.12 -0.12)">
      <use transform="scale(0.996264)" xlink:href="#CMSY10-2"/>
      <use transform="translate(77.487468 0)scale(0.996264)" xlink:href="#CMR17-49"/>
      <use transform="translate(123.177945 0)scale(0.996264)" xlink:href="#CMR17-48"/>
      <use transform="translate(168.868422 36.153639)scale(0.697382)" xlink:href="#CMSY10-0"/>
      <use transform="translate(223.109415 36.153639)scale(0.697382)" xlink:href="#CMR17-53"/>
     </g>
    </g>
   </g>
   <g id="line2d_16">
    <path clip-path="url(#p37f203b8fd)" d="M 44.221959 209.444879 
L 49.12956 209.952547 
L 51.583361 210.444317 
L 54.037161 210.029195 
L 58.944763 209.813532 
L 61.398563 210.306421 
L 63.852364 208.854625 
L 66.306164 208.800207 
L 68.759965 208.488569 
L 71.213766 208.670411 
L 73.667566 207.752885 
L 76.121367 208.208625 
L 78.575167 207.560901 
L 81.028968 207.989117 
L 83.482769 206.154774 
L 85.936569 206.823033 
L 88.39037 206.566872 
L 90.84417 206.702748 
L 93.297971 205.002946 
L 95.751771 205.400456 
L 98.205572 205.230443 
L 100.659373 206.591287 
L 103.113173 203.914815 
L 105.566974 203.821993 
L 108.020774 202.827616 
L 110.474575 203.65088 
L 112.928376 202.015506 
L 115.382176 202.94861 
L 117.835977 202.404868 
L 120.289777 203.228607 
L 122.743578 199.529428 
L 125.197379 200.621865 
L 127.651179 200.204376 
L 130.10498 200.116164 
L 132.55878 198.117849 
L 135.012581 197.143008 
L 137.466382 198.429423 
L 139.920182 200.255404 
L 142.373983 194.953778 
L 144.827783 194.946484 
L 147.281584 194.741263 
L 149.735385 196.273172 
L 152.189185 193.502023 
L 154.642986 194.276575 
L 157.096786 192.569341 
L 159.550587 196.201383 
L 162.004388 189.710902 
L 164.458188 190.575941 
L 166.911989 188.998 
L 169.365789 190.795818 
L 171.81959 188.18123 
L 174.273391 188.168602 
L 176.727191 187.410434 
L 179.180992 189.884323 
L 181.634792 182.308311 
L 184.088593 184.552027 
L 186.542394 182.261158 
L 188.996194 183.776374 
L 191.449995 180.707083 
L 193.903795 182.761761 
L 196.357596 180.391261 
L 198.811397 184.047452 
L 201.265197 173.932002 
L 203.718998 175.612675 
L 206.172798 174.594681 
L 208.626599 176.538517 
L 211.080399 172.059366 
L 213.5342 174.389352 
L 215.988001 171.863092 
L 218.441801 176.731791 
L 220.895602 166.369761 
L 223.349402 169.25318 
L 225.803203 166.024559 
L 228.257004 169.151785 
L 230.710804 163.491025 
L 233.164605 165.432147 
L 235.618405 163.787976 
L 238.072206 169.020182 
L 240.526007 157.141949 
L 242.979807 159.745409 
L 245.433608 157.72873 
L 247.887408 160.752068 
L 250.341209 154.230684 
L 252.79501 156.261352 
L 255.24881 152.941507 
L 257.702611 160.297138 
L 260.156411 146.932152 
L 262.610212 151.053781 
L 265.064013 146.536663 
L 267.517813 151.214714 
L 269.971614 143.745543 
L 272.425414 148.031431 
L 274.879215 143.821809 
L 277.333016 151.224106 
L 279.786816 136.355337 
L 282.240617 140.91446 
L 284.694417 136.404336 
L 287.148218 140.114121 
L 289.602019 132.310954 
L 292.055819 137.90051 
L 294.50962 133.17758 
L 296.96342 142.547834 
L 299.417221 126.980896 
L 301.871022 130.131239 
L 304.324822 123.661407 
L 306.778623 129.712174 
L 309.232423 120.602941 
L 311.686224 126.372549 
L 314.140025 119.788172 
L 316.593825 131.025341 
L 319.047626 112.349286 
L 321.501426 119.251349 
L 323.955227 113.167249 
L 326.409028 119.31922 
L 328.862828 109.669895 
L 331.316629 115.660429 
L 333.770429 108.278211 
L 336.22423 119.48215 
L 338.67803 100.117545 
L 341.131831 106.985918 
L 343.585632 100.743272 
L 346.039432 106.725072 
L 348.493233 96.259258 
L 350.947033 102.548263 
L 353.400834 95.018733 
L 355.854635 104.944364 
L 358.308435 80.855896 
L 360.762236 93.672639 
L 363.216036 85.827426 
L 365.669837 88.930934 
L 368.123638 82.137245 
L 370.577438 90.699839 
L 373.031239 82.078558 
L 375.485039 94.713664 
L 377.93884 71.763088 
L 380.392641 80.081726 
L 382.846441 71.947429 
L 385.300242 81.492719 
L 387.754042 66.137723 
L 390.207843 77.039106 
L 392.661644 66.391881 
L 395.115444 82.179907 
L 397.569245 57.722363 
L 400.023045 66.688104 
L 402.476846 55.735322 
L 404.930647 65.597386 
L 407.384447 51.988602 
L 409.838248 59.552547 
L 409.838248 59.552547 
" style="fill:none;stroke:#1f77b4;stroke-linecap:square;stroke-width:1.5;"/>
   </g>
   <g id="line2d_17">
    <path clip-path="url(#p37f203b8fd)" d="M 44.221959 208.803286 
L 46.67576 209.404593 
L 51.583361 209.666082 
L 54.037161 209.09904 
L 56.490962 209.319987 
L 58.944763 209.374514 
L 61.398563 209.693307 
L 63.852364 207.826634 
L 66.306164 208.006081 
L 68.759965 207.444318 
L 71.213766 207.929347 
L 73.667566 206.518757 
L 76.121367 206.802793 
L 78.575167 207.211758 
L 81.028968 208.212669 
L 83.482769 206.051436 
L 85.936569 206.010854 
L 88.39037 206.098437 
L 90.84417 206.489251 
L 93.297971 205.155547 
L 95.751771 205.579197 
L 98.205572 205.274375 
L 100.659373 206.203161 
L 103.113173 202.848631 
L 108.020774 202.994245 
L 110.474575 203.289759 
L 112.928376 201.915939 
L 115.382176 202.367751 
L 117.835977 201.939076 
L 120.289777 202.772042 
L 122.743578 199.35019 
L 125.197379 199.778394 
L 127.651179 199.365784 
L 130.10498 199.913182 
L 132.55878 198.046894 
L 135.012581 198.85048 
L 137.466382 197.882812 
L 139.920182 200.211976 
L 142.373983 195.133127 
L 144.827783 195.57963 
L 147.281584 194.390174 
L 149.735385 195.824182 
L 152.189185 193.065462 
L 154.642986 194.055668 
L 157.096786 192.601393 
L 159.550587 195.565699 
L 162.004388 189.037714 
L 164.458188 189.960729 
L 166.911989 189.309074 
L 169.365789 190.498561 
L 171.81959 187.938544 
L 174.273391 188.896993 
L 176.727191 187.445585 
L 179.180992 189.875659 
L 181.634792 182.96086 
L 184.088593 184.873903 
L 186.542394 182.882339 
L 188.996194 185.047937 
L 191.449995 180.548359 
L 193.903795 183.068057 
L 196.357596 180.161733 
L 198.811397 183.330555 
L 201.265197 176.071521 
L 203.718998 178.423042 
L 206.172798 175.899639 
L 208.626599 178.641893 
L 211.080399 173.723754 
L 213.5342 175.902299 
L 215.988001 173.272033 
L 218.441801 177.870817 
L 220.895602 168.18449 
L 223.349402 171.070881 
L 225.803203 168.074395 
L 228.257004 170.843831 
L 230.710804 165.776553 
L 233.164605 167.984913 
L 235.618405 165.244466 
L 238.072206 171.183685 
L 240.526007 159.920451 
L 242.979807 163.085864 
L 245.433608 160.498571 
L 247.887408 162.189399 
L 250.341209 156.353969 
L 252.79501 159.666844 
L 255.24881 157.085514 
L 257.702611 163.487961 
L 260.156411 150.726573 
L 262.610212 154.433285 
L 265.064013 150.760283 
L 267.517813 154.908686 
L 269.971614 146.981699 
L 272.425414 151.774658 
L 274.879215 147.865478 
L 277.333016 153.898794 
L 279.786816 141.402692 
L 282.240617 144.798191 
L 284.694417 141.702086 
L 287.148218 145.288226 
L 289.602019 137.959397 
L 292.055819 142.755024 
L 294.50962 138.773746 
L 296.96342 146.399024 
L 299.417221 129.539752 
L 301.871022 133.813817 
L 304.324822 129.413369 
L 306.778623 136.550572 
L 309.232423 126.253595 
L 311.686224 132.436276 
L 314.140025 125.865003 
L 316.593825 135.54584 
L 319.047626 119.733392 
L 321.501426 124.076806 
L 323.955227 119.334843 
L 326.409028 124.986287 
L 328.862828 116.147339 
L 331.316629 121.869746 
L 333.770429 114.386096 
L 336.22423 125.228509 
L 338.67803 106.109922 
L 341.131831 112.928477 
L 343.585632 106.056977 
L 346.039432 112.797371 
L 348.493233 102.798049 
L 350.947033 108.420445 
L 353.400834 103.037994 
L 355.854635 109.497671 
L 358.308435 93.148454 
L 360.762236 100.442633 
L 363.216036 90.560498 
L 365.669837 99.976465 
L 368.123638 89.138471 
L 370.577438 98.466654 
L 373.031239 88.874065 
L 375.485039 102.149963 
L 377.93884 79.947604 
L 380.392641 87.754534 
L 382.846441 79.92308 
L 385.300242 88.422786 
L 387.754042 71.938749 
L 390.207843 83.634884 
L 392.661644 74.305838 
L 395.115444 88.645376 
L 397.569245 63.949867 
L 400.023045 74.903879 
L 402.476846 64.261304 
L 404.930647 69.718475 
L 407.384447 60.207066 
L 409.838248 69.93891 
L 409.838248 69.93891 
" style="fill:none;stroke:#ff7f0e;stroke-linecap:square;stroke-width:1.5;"/>
   </g>
   <g id="line2d_18">
    <path clip-path="url(#p37f203b8fd)" d="M 44.221959 208.998946 
L 46.67576 209.46849 
L 49.12956 209.291267 
L 51.583361 209.871438 
L 54.037161 209.281827 
L 56.490962 209.347197 
L 58.944763 209.148659 
L 61.398563 209.862687 
L 63.852364 207.992563 
L 66.306164 208.318404 
L 68.759965 207.79399 
L 71.213766 208.143908 
L 73.667566 206.776425 
L 76.121367 207.264262 
L 78.575167 207.035651 
L 81.028968 208.01491 
L 83.482769 206.337159 
L 85.936569 206.539818 
L 88.39037 206.324005 
L 90.84417 206.481102 
L 93.297971 205.038165 
L 98.205572 205.027228 
L 100.659373 206.554469 
L 103.113173 202.962691 
L 105.566974 203.046888 
L 108.020774 202.819759 
L 110.474575 202.755844 
L 112.928376 202.127702 
L 115.382176 202.719962 
L 117.835977 201.979156 
L 120.289777 202.840797 
L 122.743578 199.346674 
L 125.197379 200.21595 
L 127.651179 199.71019 
L 130.10498 200.622356 
L 132.55878 197.776818 
L 135.012581 198.888767 
L 137.466382 198.42175 
L 139.920182 200.600956 
L 142.373983 194.921129 
L 144.827783 195.303647 
L 147.281584 194.200439 
L 149.735385 196.542098 
L 152.189185 193.116524 
L 154.642986 194.504749 
L 157.096786 193.195333 
L 159.550587 195.593897 
L 162.004388 189.097244 
L 164.458188 191.795984 
L 166.911989 190.11792 
L 169.365789 191.097241 
L 171.81959 188.483036 
L 174.273391 188.368758 
L 176.727191 188.143131 
L 179.180992 191.467366 
L 181.634792 183.215948 
L 184.088593 185.215349 
L 186.542394 184.193141 
L 188.996194 184.258471 
L 191.449995 182.085032 
L 193.903795 182.178973 
L 196.357596 180.420296 
L 198.811397 185.451307 
L 201.265197 176.449091 
L 203.718998 179.774778 
L 206.172798 177.557964 
L 208.626599 179.509 
L 211.080399 174.32291 
L 213.5342 176.644048 
L 215.988001 174.648094 
L 218.441801 179.183882 
L 220.895602 170.044587 
L 223.349402 171.88644 
L 225.803203 168.97808 
L 228.257004 172.019608 
L 230.710804 167.077327 
L 233.164605 170.216174 
L 235.618405 167.325533 
L 238.072206 172.389256 
L 240.526007 161.00135 
L 242.979807 164.241687 
L 245.433608 160.100399 
L 247.887408 163.170569 
L 250.341209 157.329525 
L 252.79501 161.541597 
L 255.24881 158.332102 
L 257.702611 163.999605 
L 260.156411 152.033242 
L 262.610212 155.182202 
L 265.064013 151.675549 
L 267.517813 155.674276 
L 269.971614 149.311759 
L 272.425414 153.075653 
L 274.879215 148.230429 
L 277.333016 155.759404 
L 279.786816 141.566937 
L 282.240617 146.022234 
L 284.694417 141.841279 
L 287.148218 146.949041 
L 289.602019 137.82602 
L 292.055819 143.383358 
L 294.50962 137.97013 
L 296.96342 146.00211 
L 299.417221 130.164637 
L 301.871022 135.128702 
L 304.324822 130.578209 
L 306.778623 135.009534 
L 309.232423 127.515625 
L 311.686224 132.857417 
L 314.140025 126.134369 
L 316.593825 136.850171 
L 319.047626 119.25187 
L 321.501426 126.029835 
L 323.955227 118.992934 
L 326.409028 125.733514 
L 328.862828 115.65475 
L 331.316629 121.97077 
L 333.770429 115.462698 
L 336.22423 126.24514 
L 338.67803 107.882055 
L 341.131831 113.953768 
L 343.585632 108.382256 
L 346.039432 114.34475 
L 348.493233 103.498019 
L 350.947033 109.801923 
L 353.400834 104.256598 
L 355.854635 112.871524 
L 358.308435 94.599291 
L 360.762236 101.86016 
L 363.216036 94.278343 
L 365.669837 101.344463 
L 368.123638 91.355722 
L 370.577438 98.079918 
L 373.031239 90.701617 
L 375.485039 102.710659 
L 377.93884 82.010439 
L 380.392641 90.028781 
L 382.846441 81.511334 
L 385.300242 90.192126 
L 387.754042 77.085849 
L 390.207843 86.514668 
L 392.661644 76.290775 
L 395.115444 91.746541 
L 397.569245 68.150875 
L 400.023045 76.351279 
L 402.476846 65.984851 
L 404.930647 77.542801 
L 407.384447 63.122604 
L 409.838248 71.53859 
L 409.838248 71.53859 
" style="fill:none;stroke:#2ca02c;stroke-linecap:square;stroke-width:1.5;"/>
   </g>
   <g id="line2d_19">
    <path clip-path="url(#p37f203b8fd)" d="M 44.221959 209.324747 
L 46.67576 209.419474 
L 49.12956 209.323063 
L 51.583361 209.982592 
L 54.037161 209.676591 
L 56.490962 209.647673 
L 58.944763 209.419995 
L 61.398563 209.813207 
L 63.852364 208.402278 
L 66.306164 208.359404 
L 68.759965 207.730662 
L 71.213766 208.680901 
L 73.667566 207.851337 
L 76.121367 207.249489 
L 78.575167 208.019686 
L 81.028968 208.464778 
L 83.482769 207.43391 
L 85.936569 207.700056 
L 88.39037 206.916585 
L 90.84417 207.309294 
L 93.297971 206.261026 
L 95.751771 206.569901 
L 98.205572 206.494941 
L 100.659373 208.09726 
L 103.113173 205.377379 
L 105.566974 205.234664 
L 108.020774 204.881866 
L 110.474575 205.648241 
L 112.928376 204.144926 
L 117.835977 203.498594 
L 120.289777 205.420754 
L 122.743578 201.636201 
L 125.197379 202.539851 
L 127.651179 202.403687 
L 130.10498 202.718208 
L 132.55878 200.523575 
L 135.012581 201.401244 
L 137.466382 200.529872 
L 139.920182 201.912852 
L 142.373983 198.601974 
L 147.281584 198.15407 
L 149.735385 198.836614 
L 152.189185 196.282677 
L 154.642986 197.69155 
L 157.096786 196.2483 
L 159.550587 199.252861 
L 162.004388 193.232246 
L 164.458188 194.416877 
L 166.911989 193.92647 
L 169.365789 195.171063 
L 171.81959 192.271592 
L 174.273391 193.563557 
L 176.727191 193.075856 
L 179.180992 196.016139 
L 181.634792 188.611789 
L 184.088593 190.361433 
L 186.542394 188.3301 
L 188.996194 190.31002 
L 191.449995 185.95513 
L 193.903795 187.578567 
L 196.357596 186.422757 
L 198.811397 190.749042 
L 201.265197 182.890607 
L 203.718998 184.893313 
L 206.172798 183.12563 
L 208.626599 184.646136 
L 211.080399 181.223989 
L 213.5342 183.240917 
L 215.988001 180.508428 
L 218.441801 185.485468 
L 220.895602 176.442082 
L 223.349402 179.706319 
L 225.803203 176.497157 
L 228.257004 179.705272 
L 230.710804 174.418633 
L 233.164605 177.046244 
L 235.618405 172.989558 
L 238.072206 179.532424 
L 240.526007 170.411411 
L 242.979807 172.437803 
L 245.433608 169.056107 
L 247.887408 173.557118 
L 250.341209 168.122689 
L 252.79501 171.248211 
L 255.24881 167.34852 
L 257.702611 174.755758 
L 260.156411 162.729509 
L 262.610212 166.856797 
L 265.064013 157.28714 
L 267.517813 166.860518 
L 269.971614 160.845153 
L 272.425414 164.143695 
L 274.879215 160.032998 
L 277.333016 166.729054 
L 279.786816 154.607076 
L 282.240617 158.205664 
L 284.694417 154.003053 
L 287.148218 159.416649 
L 289.602019 151.434324 
L 292.055819 156.638919 
L 294.50962 149.583547 
L 296.96342 159.679513 
L 299.417221 146.259353 
L 301.871022 150.552343 
L 304.324822 145.75849 
L 306.778623 151.397534 
L 309.232423 143.694851 
L 311.686224 148.894219 
L 314.140025 142.650994 
L 316.593825 152.713233 
L 319.047626 136.450768 
L 321.501426 142.168667 
L 323.955227 136.374625 
L 326.409028 143.566355 
L 328.862828 134.585121 
L 331.316629 140.626537 
L 333.770429 133.584259 
L 336.22423 144.175015 
L 338.67803 126.841783 
L 341.131831 133.854674 
L 343.585632 127.489705 
L 346.039432 134.090567 
L 348.493233 124.118085 
L 350.947033 131.718158 
L 353.400834 124.552642 
L 355.854635 133.713763 
L 358.308435 117.245423 
L 360.762236 124.785222 
L 363.216036 117.310272 
L 365.669837 124.188229 
L 368.123638 114.270346 
L 370.577438 122.944415 
L 373.031239 113.802012 
L 375.485039 126.56288 
L 377.93884 106.827126 
L 380.392641 115.773334 
L 382.846441 106.632675 
L 385.300242 114.869831 
L 387.754042 104.044752 
L 390.207843 112.654622 
L 392.661644 102.05156 
L 395.115444 117.957499 
L 397.569245 94.917965 
L 400.023045 103.825631 
L 402.476846 94.973896 
L 404.930647 106.490532 
L 407.384447 93.36226 
L 409.838248 102.098631 
L 409.838248 102.098631 
" style="fill:none;stroke:#d62728;stroke-linecap:square;stroke-width:1.5;"/>
   </g>
   <g id="line2d_20">
    <path clip-path="url(#p37f203b8fd)" d="M 44.221959 209.460836 
L 46.67576 209.874385 
L 49.12956 209.762727 
L 51.583361 210.269631 
L 54.037161 209.612843 
L 61.398563 209.897088 
L 63.852364 208.996401 
L 68.759965 208.77829 
L 71.213766 209.145498 
L 73.667566 208.579383 
L 76.121367 208.520546 
L 78.575167 207.795012 
L 81.028968 208.517437 
L 83.482769 206.995297 
L 85.936569 207.950449 
L 88.39037 207.544307 
L 90.84417 207.502414 
L 93.297971 206.38295 
L 95.751771 207.152186 
L 98.205572 206.584867 
L 100.659373 208.250758 
L 103.113173 205.082621 
L 105.566974 205.623884 
L 108.020774 205.09158 
L 110.474575 205.320168 
L 112.928376 204.213893 
L 115.382176 204.110672 
L 117.835977 204.175187 
L 120.289777 204.753465 
L 122.743578 201.723645 
L 125.197379 201.80328 
L 127.651179 201.692498 
L 130.10498 202.636397 
L 132.55878 200.432347 
L 135.012581 201.490105 
L 137.466382 200.449079 
L 139.920182 202.975872 
L 142.373983 198.062761 
L 144.827783 199.465662 
L 147.281584 198.373226 
L 149.735385 199.789042 
L 152.189185 197.283975 
L 154.642986 197.679066 
L 157.096786 196.856184 
L 159.550587 199.166033 
L 162.004388 194.001904 
L 164.458188 194.80503 
L 166.911989 193.958339 
L 169.365789 195.572135 
L 171.81959 192.774635 
L 174.273391 193.399092 
L 176.727191 192.245639 
L 179.180992 195.330283 
L 181.634792 188.957591 
L 184.088593 190.806249 
L 186.542394 189.276241 
L 188.996194 190.587869 
L 191.449995 188.121367 
L 193.903795 189.609242 
L 196.357596 187.835079 
L 198.811397 190.967885 
L 201.265197 177.674593 
L 203.718998 184.468705 
L 206.172798 183.681494 
L 208.626599 185.718886 
L 211.080399 181.899447 
L 213.5342 183.258194 
L 215.988001 181.495159 
L 218.441801 186.266363 
L 220.895602 176.6661 
L 223.349402 179.569502 
L 225.803203 177.200992 
L 228.257004 180.088057 
L 230.710804 175.229008 
L 233.164605 177.348206 
L 235.618405 174.423145 
L 238.072206 180.320919 
L 240.526007 169.946507 
L 242.979807 172.864346 
L 245.433608 170.485717 
L 247.887408 173.485835 
L 250.341209 168.965779 
L 252.79501 170.343265 
L 255.24881 168.003021 
L 257.702611 174.168776 
L 260.156411 163.383904 
L 262.610212 166.46964 
L 265.064013 163.035187 
L 267.517813 167.458204 
L 269.971614 160.587723 
L 272.425414 164.429755 
L 274.879215 160.880546 
L 277.333016 167.834962 
L 279.786816 155.316737 
L 282.240617 159.238611 
L 284.694417 154.633998 
L 287.148218 159.955112 
L 289.602019 151.99629 
L 292.055819 156.929539 
L 294.50962 153.70885 
L 296.96342 160.858581 
L 299.417221 146.803543 
L 301.871022 150.34947 
L 304.324822 146.936198 
L 306.778623 151.764923 
L 309.232423 144.060232 
L 311.686224 149.211651 
L 314.140025 142.530385 
L 316.593825 153.609488 
L 319.047626 137.366944 
L 321.501426 143.684377 
L 323.955227 137.817567 
L 326.409028 144.680713 
L 328.862828 134.932786 
L 331.316629 141.742518 
L 333.770429 134.505914 
L 336.22423 144.75187 
L 338.67803 128.843963 
L 341.131831 135.27295 
L 343.585632 128.568202 
L 346.039432 135.373771 
L 348.493233 126.128015 
L 350.947033 131.974282 
L 353.400834 125.581415 
L 355.854635 131.519475 
L 358.308435 117.526756 
L 360.762236 125.493966 
L 363.216036 118.744193 
L 365.669837 125.725105 
L 368.123638 116.463706 
L 370.577438 122.760319 
L 373.031239 115.566193 
L 375.485039 126.154346 
L 377.93884 107.708895 
L 380.392641 116.515191 
L 382.846441 107.780104 
L 385.300242 116.988795 
L 387.754042 105.998935 
L 390.207843 112.919857 
L 392.661644 102.617731 
L 395.115444 119.297348 
L 397.569245 97.103039 
L 400.023045 106.863471 
L 402.476846 96.189815 
L 404.930647 108.257943 
L 407.384447 93.689202 
L 409.838248 101.65786 
L 409.838248 101.65786 
" style="fill:none;stroke:#9467bd;stroke-linecap:square;stroke-width:1.5;"/>
   </g>
   <g id="patch_3">
    <path d="M 41.768158 277.458056 
L 41.768158 44.065817 
" style="fill:none;stroke:#000000;stroke-linecap:square;stroke-linejoin:miter;stroke-width:0.8;"/>
   </g>
   <g id="patch_4">
    <path d="M 419.04 277.458056 
L 419.04 44.065817 
" style="fill:none;stroke:#000000;stroke-linecap:square;stroke-linejoin:miter;stroke-width:0.8;"/>
   </g>
   <g id="patch_5">
    <path d="M 41.768158 277.458056 
L 419.04 277.458056 
" style="fill:none;stroke:#000000;stroke-linecap:square;stroke-linejoin:miter;stroke-width:0.8;"/>
   </g>
   <g id="patch_6">
    <path d="M 41.768158 44.065817 
L 419.04 44.065817 
" style="fill:none;stroke:#000000;stroke-linecap:square;stroke-linejoin:miter;stroke-width:0.8;"/>
   </g>
   <g id="text_19">
    <!-- Comparison of \verb|alpha_overlay_stride| -->
    <defs>
     <path d="M 62.09375 67.015625 
C 62.09375 68.796875 62 68.90625 61.40625 68.90625 
C 61 68.90625 60.90625 68.796875 60.203125 67.609375 
L 55.796875 59.25 
C 50.90625 65.421875 44.90625 69 37.203125 69 
C 20.09375 69 4.59375 54 4.59375 33.5625 
C 4.59375 12.90625 20.09375 -2 37.296875 -2 
C 52.59375 -2 62.09375 11.40625 62.09375 22.828125 
C 62.09375 23.8125 62.09375 24.21875 61.203125 24.21875 
C 60.40625 24.21875 60.40625 23.921875 60.296875 23.03125 
C 59.5 9.140625 49.5 0.59375 38.703125 0.59375 
C 28.5 0.59375 12.203125 7.734375 12.203125 33.546875 
C 12.203125 59.453125 28.796875 66.40625 38.5 66.40625 
C 49.796875 66.40625 58 56.6875 59.90625 42.890625 
C 60.09375 41.6875 60.09375 41.484375 61 41.484375 
C 62.09375 41.484375 62.09375 41.6875 62.09375 43.484375 
z
" id="CMR17-67"/>
     <path d="M 43.09375 21.1875 
C 43.09375 34 33.796875 44 22.90625 44 
C 12 44 2.703125 34 2.703125 21.1875 
C 2.703125 8.609375 12 -1 22.90625 -1 
C 33.796875 -1 43.09375 8.609375 43.09375 21.1875 
z
M 22.90625 0.796875 
C 18.203125 0.796875 14.203125 3.59375 11.90625 7.5 
C 9.40625 11.984375 9.09375 17.59375 9.09375 22 
C 9.09375 26.203125 9.296875 31.40625 11.90625 35.90625 
C 13.90625 39.203125 17.796875 42.40625 22.90625 42.40625 
C 27.40625 42.40625 31.203125 39.90625 33.59375 36.40625 
C 36.703125 31.703125 36.703125 25.109375 36.703125 22 
C 36.703125 18.09375 36.5 12.109375 33.796875 7.296875 
C 31 2.703125 26.703125 0.796875 22.90625 0.796875 
z
" id="CMR17-111"/>
     <path d="M 15 23.390625 
C 15 33 19.09375 42 26.59375 42 
C 27.296875 42 28 41.90625 28.703125 41.59375 
C 28.703125 41.59375 26.5 40.890625 26.5 38.3125 
C 26.5 35.90625 28.40625 34.90625 29.90625 34.90625 
C 31.09375 34.90625 33.296875 35.609375 33.296875 38.40625 
C 33.296875 41.609375 30.09375 43.59375 26.703125 43.59375 
C 19.09375 43.59375 15.796875 36.203125 14.796875 32.703125 
L 14.703125 32.703125 
L 14.703125 43.59375 
L 3.09375 42.5 
L 3.09375 39.90625 
C 9 39.90625 9.90625 39.296875 9.90625 34.5 
L 9.90625 6.6875 
C 9.90625 2.875 9.5 2.390625 3.09375 2.390625 
L 3.09375 -0.203125 
C 5.5 0 10.09375 0 12.703125 0 
C 15.59375 0 20.703125 0 23.40625 -0.203125 
L 23.40625 2.390625 
C 16.203125 2.390625 15 2.390625 15 6.875 
z
" id="CMR17-114"/>
     <path d="M 41.5 30.203125 
C 41.5 35.296875 40.5 43.59375 28.703125 43.59375 
C 20.796875 43.59375 16.703125 37.5 15.203125 33.5 
L 15.09375 33.5 
L 15.09375 43.59375 
L 3.296875 42.5 
L 3.296875 39.90625 
C 9.203125 39.90625 10.09375 39.296875 10.09375 34.5 
L 10.09375 6.6875 
C 10.09375 2.875 9.703125 2.390625 3.296875 2.390625 
L 3.296875 -0.203125 
C 5.703125 0 10.09375 0 12.703125 0 
C 15.296875 0 19.796875 0 22.203125 -0.203125 
L 22.203125 2.390625 
C 15.796875 2.390625 15.40625 2.78125 15.40625 6.6875 
L 15.40625 25.90625 
C 15.40625 35.109375 21 42 28 42 
C 35.40625 42 36.203125 35.40625 36.203125 30.59375 
L 36.203125 6.6875 
C 36.203125 2.875 35.796875 2.390625 29.40625 2.390625 
L 29.40625 -0.203125 
C 31.796875 0 36.203125 0 38.796875 0 
C 41.40625 0 45.90625 0 48.296875 -0.203125 
L 48.296875 2.390625 
C 41.90625 2.390625 41.5 2.78125 41.5 6.6875 
z
" id="CMR17-110"/>
     <path d="M 15.296875 40 
L 26.703125 40 
L 26.703125 42.578125 
L 15.09375 42.578125 
L 15.09375 54.59375 
C 15.09375 62.84375 19.296875 68 23.59375 68 
C 24.90625 68 26.40625 67.609375 27.40625 66.90625 
C 26.59375 66.703125 24.5 66.015625 24.5 63.546875 
C 24.5 60.953125 26.5 60.15625 27.90625 60.15625 
C 29.296875 60.15625 31.296875 60.953125 31.296875 63.546875 
C 31.296875 67.3125 27.703125 69.59375 23.703125 69.59375 
C 18 69.59375 10.203125 64.9375 10.203125 54.390625 
L 10.203125 42.578125 
L 2.203125 42.578125 
L 2.203125 40 
L 10.203125 40 
L 10.203125 6.671875 
C 10.203125 2.875 9.796875 2.390625 3.40625 2.390625 
L 3.40625 -0.203125 
C 5.796875 0 10.40625 0 13 0 
C 15.90625 0 21 0 23.703125 -0.203125 
L 23.703125 2.390625 
C 16.5 2.390625 15.296875 2.390625 15.296875 6.859375 
z
" id="CMR17-102"/>
     <path d="M 41.40625 28.375 
C 41.40625 35.984375 35.703125 44 22.203125 44 
C 18 44 8.296875 44 8.296875 37.1875 
C 8.296875 34.53125 10.203125 33.046875 12.40625 33.046875 
C 13 33.046875 16.296875 33.046875 16.40625 37.3125 
C 16.40625 37.796875 16.5 37.90625 18.59375 38.09375 
C 19.796875 38.203125 21.09375 38.203125 22.296875 38.203125 
C 24.59375 38.203125 28 38.203125 31.296875 35.65625 
C 34.90625 32.8125 34.90625 29.9375 34.90625 27 
C 29 27 23.203125 27 17 24.984375 
C 12 23.265625 5.59375 19.625 5.59375 12.75 
C 5.59375 5.5625 11.90625 -0.5 21.203125 -0.5 
C 24.40625 -0.5 30.59375 0 35.796875 3.53125 
C 37.796875 0 42.796875 0 46.59375 0 
C 49 0 51.40625 0 51.40625 2.859375 
C 51.40625 5.703125 48.796875 5.703125 47.40625 5.703125 
C 44.796875 5.703125 42.796875 5.90625 41.40625 6.515625 
z
M 34.90625 13.296875 
C 34.90625 11 34.90625 8.890625 30.796875 7 
C 27.296875 5.296875 22.59375 5.296875 22.296875 5.296875 
C 16.40625 5.296875 12.09375 8.5 12.09375 12.59375 
C 12.09375 18.5 22.796875 21.890625 34.90625 21.890625 
z
" id="CMTT12-97"/>
     <path d="M 29 56.90625 
C 29 60 28.40625 61 25 61 
L 10.296875 61 
C 8.90625 61 6.296875 61 6.296875 58.109375 
C 6.296875 55.203125 8.90625 55.203125 10.296875 55.203125 
L 22.5 55.203125 
L 22.5 5.796875 
L 10.296875 5.796875 
C 8.90625 5.796875 6.296875 5.796875 6.296875 2.90625 
C 6.296875 0 8.90625 0 10.296875 0 
L 41.203125 0 
C 42.59375 0 45.203125 0 45.203125 2.90625 
C 45.203125 5.796875 42.59375 5.796875 41.203125 5.796875 
L 29 5.796875 
z
" id="CMTT12-108"/>
     <path d="M 20.203125 -22 
C 21.59375 -22 24.203125 -22 24.203125 -19.09375 
C 24.203125 -16.203125 21.59375 -16.203125 20.203125 -16.203125 
L 16.09375 -16.203125 
L 16.09375 5.09375 
C 18.5 2.390625 22.203125 -0.5 27.796875 -0.5 
C 38.40625 -0.5 47.703125 9.046875 47.703125 21.796875 
C 47.703125 34.15625 39.296875 44 28.90625 44 
C 21.59375 44 17 39.578125 16.09375 38.578125 
C 16.09375 41.625 16.09375 43 12.09375 43 
L 5.5 43 
C 4.09375 43 1.5 43 1.5 40.109375 
C 1.5 37.203125 4.09375 37.203125 5.5 37.203125 
L 9.59375 37.203125 
L 9.59375 -16.203125 
L 5.5 -16.203125 
C 4.09375 -16.203125 1.5 -16.203125 1.5 -19.09375 
C 1.5 -22 4.09375 -22 5.5 -22 
z
M 16.09375 26.828125 
C 16.09375 32.5625 21.703125 38.203125 28.203125 38.203125 
C 35.40625 38.203125 41.203125 30.84375 41.203125 21.796875 
C 41.203125 12.140625 34.40625 5.296875 27.296875 5.296875 
C 19.796875 5.296875 16.09375 13.84375 16.09375 18.875 
z
" id="CMTT12-112"/>
     <path d="M 41.796875 29.359375 
C 41.796875 39.171875 37.203125 43.796875 29 43.796875 
C 22.203125 43.796875 17.796875 40 16.09375 38.09375 
L 16.09375 56.9375 
C 16.09375 60.015625 15.5 61 12.09375 61 
L 5.5 61 
C 4.09375 61 1.5 61 1.5 58.109375 
C 1.5 55.203125 4.09375 55.203125 5.5 55.203125 
L 9.59375 55.203125 
L 9.59375 5.796875 
L 5.5 5.796875 
C 4.09375 5.796875 1.5 5.796875 1.5 2.90625 
C 1.5 0 4.09375 0 5.5 0 
L 20.203125 0 
C 21.59375 0 24.203125 0 24.203125 2.90625 
C 24.203125 5.796875 21.59375 5.796875 20.203125 5.796875 
L 16.09375 5.796875 
L 16.09375 23.953125 
C 16.09375 33.671875 22.90625 38 28.296875 38 
C 34.09375 38 35.296875 34.671875 35.296875 28.96875 
L 35.296875 5.796875 
L 31.203125 5.796875 
C 29.796875 5.796875 27.203125 5.796875 27.203125 2.90625 
C 27.203125 0 29.796875 0 31.203125 0 
L 45.90625 0 
C 47.296875 0 49.90625 0 49.90625 2.90625 
C 49.90625 5.796875 47.296875 5.796875 45.90625 5.796875 
L 41.796875 5.796875 
z
" id="CMTT12-104"/>
     <path d="M 41.40625 -9 
C 42.703125 -9 45.90625 -9 45.90625 -5.796875 
C 45.90625 -2.5 42.796875 -2.5 41.40625 -2.5 
L 10 -2.5 
C 8.703125 -2.5 5.5 -2.5 5.5 -5.703125 
C 5.5 -9 8.59375 -9 10 -9 
z
" id="CMTT12-95"/>
     <path d="M 45.59375 21.640625 
C 45.59375 34.109375 36.5 44 25.703125 44 
C 14.90625 44 5.796875 34.109375 5.796875 21.640625 
C 5.796875 9.078125 15 -0.5 25.703125 -0.5 
C 36.40625 -0.5 45.59375 9.078125 45.59375 21.640625 
z
M 25.703125 5.296875 
C 18.5 5.296875 12.296875 12.875 12.296875 22.34375 
C 12.296875 31.609375 18.703125 38.203125 25.703125 38.203125 
C 32.703125 38.203125 39.09375 31.609375 39.09375 22.34375 
C 39.09375 12.78125 32.90625 5.296875 25.703125 5.296875 
z
" id="CMTT12-111"/>
     <path d="M 42.40625 37.203125 
L 45 37.203125 
C 46.40625 37.203125 49.09375 37.203125 49.09375 40.109375 
C 49.09375 43 46.40625 43 45 43 
L 34 43 
C 32.59375 43 29.90625 43 29.90625 40.109375 
C 29.90625 37.203125 32.59375 37.203125 34 37.203125 
L 36.5 37.203125 
L 25.703125 5.078125 
L 14.90625 37.203125 
L 17.40625 37.203125 
C 18.796875 37.203125 21.5 37.203125 21.5 40.109375 
C 21.5 43 18.796875 43 17.40625 43 
L 6.40625 43 
C 5 43 2.296875 43 2.296875 40.109375 
C 2.296875 37.203125 5 37.203125 6.40625 37.203125 
L 9 37.203125 
L 20.5 2.890625 
C 21.59375 -0.5 23.796875 -0.5 25.703125 -0.5 
C 27.59375 -0.5 29.796875 -0.5 30.90625 2.890625 
z
" id="CMTT12-118"/>
     <path d="M 41.59375 19.5 
C 43.703125 19.5 45.59375 19.5 45.59375 23.15625 
C 45.59375 34.703125 39 44 26.5 44 
C 14.90625 44 5.59375 34.015625 5.59375 21.84375 
C 5.59375 9.28125 15.703125 -0.5 28 -0.5 
C 40.90625 -0.5 45.59375 8.453125 45.59375 11.078125 
C 45.59375 11.6875 45.40625 13.921875 42.296875 13.921875 
C 40.40625 13.921875 39.796875 13.203125 39.203125 11.6875 
C 36.703125 5.796875 30.203125 5.296875 28.296875 5.296875 
C 20 5.296875 13.40625 11.6875 12.296875 19.5 
z
M 12.40625 25 
C 13.703125 33.3125 20.203125 38.203125 26.5 38.203125 
C 36.5 38.203125 38.59375 29.890625 39 25 
z
" id="CMTT12-101"/>
     <path d="M 21.59375 18.9375 
C 21.59375 30.875 30 38 38.5 38 
C 39 38 39.59375 38 40.09375 37.890625 
C 40.40625 34.140625 43.203125 33.828125 43.90625 33.828125 
C 46.203125 33.828125 47.796875 35.546875 47.796875 37.78125 
C 47.796875 42.15625 43.59375 43.796875 38.59375 43.796875 
C 31.90625 43.796875 26.203125 40.734375 21.59375 35.015625 
L 21.59375 38.921875 
C 21.59375 42 21 43 17.59375 43 
L 7.5 43 
C 6.09375 43 3.5 43 3.5 40.109375 
C 3.5 37.203125 6.09375 37.203125 7.5 37.203125 
L 15.09375 37.203125 
L 15.09375 5.796875 
L 7.5 5.796875 
C 6.09375 5.796875 3.5 5.796875 3.5 2.90625 
C 3.5 0 6.09375 0 7.5 0 
L 32.09375 0 
C 33.5 0 36.09375 0 36.09375 2.90625 
C 36.09375 5.796875 33.5 5.796875 32.09375 5.796875 
L 21.59375 5.796875 
z
" id="CMTT12-114"/>
     <path d="M 42.40625 37.203125 
L 45 37.203125 
C 46.40625 37.203125 49.09375 37.203125 49.09375 40.109375 
C 49.09375 43 46.40625 43 45 43 
L 34 43 
C 32.59375 43 29.90625 43 29.90625 40.109375 
C 29.90625 37.203125 32.59375 37.203125 34 37.203125 
L 36.5 37.203125 
C 33.703125 29.0625 28 12.515625 26.59375 6.859375 
L 26.5 6.859375 
C 26 9.046875 25.59375 10.125 24.59375 12.8125 
L 15.296875 37.203125 
L 17.59375 37.203125 
C 19 37.203125 21.703125 37.203125 21.703125 40.109375 
C 21.703125 43 19 43 17.59375 43 
L 6.59375 43 
C 5.203125 43 2.5 43 2.5 40.109375 
C 2.5 37.203125 5.203125 37.203125 6.59375 37.203125 
L 9.296875 37.203125 
L 23.296875 1.46875 
C 23.703125 0.46875 23.703125 0.265625 23.703125 0.171875 
C 23.703125 -0.03125 21.09375 -8.671875 19.59375 -11.4375 
C 19 -12.4375 16.5 -17.109375 11.703125 -16.609375 
C 11.796875 -16.296875 12.09375 -15.703125 12.09375 -14.609375 
C 12.09375 -12.296875 10.5 -10.703125 8.203125 -10.703125 
C 5.703125 -10.703125 4.203125 -12.40625 4.203125 -14.703125 
C 4.203125 -18.5 7.40625 -22.5 12.40625 -22.5 
C 22.09375 -22.5 26.40625 -9.6875 26.703125 -8.890625 
z
" id="CMTT12-121"/>
     <path d="M 42 40.203125 
C 42 41.796875 42 44 39.203125 44 
C 36.796875 44 36.203125 41.703125 36.203125 41.59375 
C 32.203125 44 27.59375 44 25.59375 44 
C 9.296875 44 7.09375 35.71875 7.09375 32.328125 
C 7.09375 28.234375 9.5 25.453125 12.90625 23.546875 
C 16.09375 21.75 19 21.265625 27.203125 19.96875 
C 31.09375 19.265625 39.09375 17.96875 39.09375 12.484375 
C 39.09375 8.78125 35.703125 5.296875 26.40625 5.296875 
C 20 5.296875 15.796875 7.796875 13.703125 15 
C 13.203125 16.390625 12.90625 17.5 10.40625 17.5 
C 7.09375 17.5 7.09375 15.59375 7.09375 13.59375 
L 7.09375 3.296875 
C 7.09375 1.6875 7.09375 -0.5 9.90625 -0.5 
C 11.09375 -0.5 12 -0.5 13.5 3.59375 
C 18.09375 -0.5 23.296875 -0.5 26.40625 -0.5 
C 44.90625 -0.5 44.90625 11.46875 44.90625 12.46875 
C 44.90625 22.828125 32.5 24.9375 27.703125 25.625 
C 18.90625 27.125 12.90625 28.125 12.90625 32.3125 
C 12.90625 35.015625 16 38.203125 25.40625 38.203125 
C 34.90625 38.203125 35.296875 33.703125 35.5 31.09375 
C 35.703125 29.09375 37.5 28.796875 38.703125 28.796875 
C 42 28.796875 42 30.59375 42 32.59375 
z
" id="CMTT12-115"/>
     <path d="M 21.59375 37.203125 
L 37.796875 37.203125 
C 39.203125 37.203125 41.796875 37.203125 41.796875 40.109375 
C 41.796875 43 39.203125 43 37.796875 43 
L 21.59375 43 
L 21.59375 51.328125 
C 21.59375 53.15625 21.59375 55.5 18.40625 55.5 
C 15.09375 55.5 15.09375 53.15625 15.09375 51.328125 
L 15.09375 43 
L 6.59375 43 
C 5.203125 43 2.5 43 2.5 40.109375 
C 2.5 37.203125 5.09375 37.203125 6.5 37.203125 
L 15.09375 37.203125 
L 15.09375 12.125 
C 15.09375 2.875 21.5 -0.5 28.703125 -0.5 
C 34.09375 -0.5 44 2.171875 44 12.34375 
C 44 14.34375 44 16.53125 40.703125 16.53125 
C 37.5 16.53125 37.5 14.34375 37.5 12.265625 
C 37.40625 6.296875 31.703125 5.296875 29.40625 5.296875 
C 21.59375 5.296875 21.59375 10.265625 21.59375 12.640625 
z
" id="CMTT12-116"/>
     <path d="M 30.203125 56.5 
C 30.203125 59 28.203125 61 25.703125 61 
C 23.203125 61 21.203125 59 21.203125 56.5 
C 21.203125 54 23.203125 52 25.703125 52 
C 28.203125 52 30.203125 54 30.203125 56.5 
z
M 13 43 
C 11.59375 43 9 43 9 40.109375 
C 9 37.203125 11.59375 37.203125 13 37.203125 
L 23.703125 37.203125 
L 23.703125 5.796875 
L 12.296875 5.796875 
C 10.90625 5.796875 8.203125 5.796875 8.203125 2.90625 
C 8.203125 0 10.90625 0 12.296875 0 
L 40.09375 0 
C 41.5 0 44.09375 0 44.09375 2.90625 
C 44.09375 5.796875 41.5 5.796875 40.09375 5.796875 
L 30.203125 5.796875 
L 30.203125 38.921875 
C 30.203125 42 29.59375 43 26.203125 43 
z
" id="CMTT12-105"/>
     <path d="M 41.796875 56.90625 
C 41.796875 60 41.203125 61 37.796875 61 
L 31.203125 61 
C 29.796875 61 27.203125 61 27.203125 58.109375 
C 27.203125 55.203125 29.796875 55.203125 31.203125 55.203125 
L 35.296875 55.203125 
L 35.296875 38.796875 
C 33.703125 40.390625 29.59375 43.796875 23.5 43.796875 
C 12.90625 43.796875 3.703125 34.1875 3.703125 21.59375 
C 3.703125 9.296875 12.296875 -0.5 22.59375 -0.5 
C 29.09375 -0.5 33.40625 3.359375 35.296875 5.546875 
C 35.296875 1.3125 35.296875 0 39.296875 0 
L 45.90625 0 
C 47.296875 0 49.90625 0 49.90625 2.90625 
C 49.90625 5.796875 47.296875 5.796875 45.90625 5.796875 
L 41.796875 5.796875 
z
M 35.296875 19.09375 
C 35.296875 13.5 30.703125 5.296875 23.203125 5.296875 
C 16 5.296875 10.203125 12.59375 10.203125 21.59375 
C 10.203125 31.1875 17 38 24.09375 38 
C 30.59375 38 35.296875 32.09375 35.296875 26.890625 
z
" id="CMTT12-100"/>
    </defs>
    <g transform="translate(109.523093 22.922625)scale(0.144 -0.144)">
     <use transform="scale(0.996264)" xlink:href="#CMR17-67"/>
     <use transform="translate(66.509881 0)scale(0.996264)" xlink:href="#CMR17-111"/>
     <use transform="translate(112.200358 0)scale(0.996264)" xlink:href="#CMR17-109"/>
     <use transform="translate(189.119948 0)scale(0.996264)" xlink:href="#CMR17-112"/>
     <use transform="translate(240.015317 0)scale(0.996264)" xlink:href="#CMR17-97"/>
     <use transform="translate(285.705794 0)scale(0.996264)" xlink:href="#CMR17-114"/>
     <use transform="translate(320.986562 0)scale(0.996264)" xlink:href="#CMR17-105"/>
     <use transform="translate(345.857621 0)scale(0.996264)" xlink:href="#CMR17-115"/>
     <use transform="translate(381.658958 0)scale(0.996264)" xlink:href="#CMR17-111"/>
     <use transform="translate(427.349435 0)scale(0.996264)" xlink:href="#CMR17-110"/>
     <use transform="translate(508.320772 0)scale(0.996264)" xlink:href="#CMR17-111"/>
     <use transform="translate(554.011249 0)scale(0.996264)" xlink:href="#CMR17-102"/>
     <use transform="translate(611.560727 0)scale(0.996264)" xlink:href="#CMTT12-97"/>
     <use transform="translate(662.826838 0)scale(0.996264)" xlink:href="#CMTT12-108"/>
     <use transform="translate(714.092949 0)scale(0.996264)" xlink:href="#CMTT12-112"/>
     <use transform="translate(765.35906 0)scale(0.996264)" xlink:href="#CMTT12-104"/>
     <use transform="translate(816.625171 0)scale(0.996264)" xlink:href="#CMTT12-97"/>
     <use transform="translate(867.891282 0)scale(0.996264)" xlink:href="#CMTT12-95"/>
     <use transform="translate(919.157393 0)scale(0.996264)" xlink:href="#CMTT12-111"/>
     <use transform="translate(970.423503 0)scale(0.996264)" xlink:href="#CMTT12-118"/>
     <use transform="translate(1021.689614 0)scale(0.996264)" xlink:href="#CMTT12-101"/>
     <use transform="translate(1072.955725 0)scale(0.996264)" xlink:href="#CMTT12-114"/>
     <use transform="translate(1124.221836 0)scale(0.996264)" xlink:href="#CMTT12-108"/>
     <use transform="translate(1175.487947 0)scale(0.996264)" xlink:href="#CMTT12-97"/>
     <use transform="translate(1226.754058 0)scale(0.996264)" xlink:href="#CMTT12-121"/>
     <use transform="translate(1278.020169 0)scale(0.996264)" xlink:href="#CMTT12-95"/>
     <use transform="translate(1329.286279 0)scale(0.996264)" xlink:href="#CMTT12-115"/>
     <use transform="translate(1380.55239 0)scale(0.996264)" xlink:href="#CMTT12-116"/>
     <use transform="translate(1431.818501 0)scale(0.996264)" xlink:href="#CMTT12-114"/>
     <use transform="translate(1483.084612 0)scale(0.996264)" xlink:href="#CMTT12-105"/>
     <use transform="translate(1534.350723 0)scale(0.996264)" xlink:href="#CMTT12-100"/>
     <use transform="translate(1585.616834 0)scale(0.996264)" xlink:href="#CMTT12-101"/>
    </g>
    <!-- with different scaling methods -->
    <defs>
     <path d="M 58.203125 34.109375 
C 60.203125 40 64.203125 40 65.703125 40 
L 65.703125 42.6875 
C 63.703125 42.6875 61.703125 42.6875 59.703125 42.6875 
C 57.796875 42.6875 53.5 42.6875 51.796875 42.78125 
L 51.796875 40 
C 54.90625 40 56.59375 38.203125 56.59375 35.71875 
C 56.59375 35.015625 56.40625 34.125 56.203125 33.4375 
L 46.796875 6.359375 
L 36.59375 35.546875 
C 36.40625 36.234375 36.09375 37.03125 36.09375 37.421875 
C 36.09375 40 39.5 40 41.09375 40 
L 41.09375 42.78125 
C 38.796875 42.6875 34.59375 42.6875 32.203125 42.6875 
C 29.703125 42.6875 27.09375 42.6875 24.796875 42.78125 
L 24.796875 40 
C 30.296875 40 30.296875 39.796875 32.40625 33.578125 
L 23.203125 7.046875 
L 13.296875 35.640625 
C 12.796875 36.921875 12.796875 37.125 12.796875 37.421875 
C 12.796875 40 16.203125 40 17.796875 40 
L 17.796875 42.78125 
C 15.40625 42.6875 11.203125 42.6875 8.703125 42.6875 
C 6.5 42.6875 3.09375 42.6875 1 42.78125 
L 1 40 
C 5.40625 40 6.5 39.703125 7.59375 36.421875 
L 19.90625 0.765625 
C 20.296875 -0.515625 20.59375 -0.8125 21.40625 -0.8125 
C 22.09375 -0.8125 22.5 -0.609375 23 0.875 
L 33.296875 30.9375 
L 43.703125 0.875 
C 44.203125 -0.609375 44.59375 -0.8125 45.296875 -0.8125 
C 46.09375 -0.8125 46.40625 -0.515625 46.796875 0.78125 
z
" id="CMR17-119"/>
     <path d="M 15.09375 40 
L 29.09375 40 
L 29.09375 42.578125 
L 15.09375 42.578125 
L 15.09375 61 
L 13.296875 61 
C 13.09375 50.703125 9.59375 41.6875 1.09375 41.6875 
L 1.09375 40 
L 9.796875 40 
L 9.796875 12.046875 
C 9.796875 10.15625 9.796875 -1 21.40625 -1 
C 27.296875 -1 30.703125 4.78125 30.703125 12.140625 
L 30.703125 17.8125 
L 28.90625 17.8125 
L 28.90625 12.234375 
C 28.90625 5.375 26.203125 0.796875 22 0.796875 
C 19.09375 0.796875 15.09375 2.78125 15.09375 11.84375 
z
" id="CMR17-116"/>
     <path d="M 41.5 30.203125 
C 41.5 35.296875 40.5 43.59375 28.703125 43.59375 
C 20.5 43.59375 16.5 37 15.296875 33.703125 
L 15.203125 33.703125 
L 15.203125 68.6875 
L 3.296875 67.59375 
L 3.296875 65 
C 9.203125 65 10.09375 64.40625 10.09375 59.640625 
L 10.09375 6.65625 
C 10.09375 2.875 9.703125 2.390625 3.296875 2.390625 
L 3.296875 -0.203125 
C 5.703125 0 10.09375 0 12.703125 0 
C 15.296875 0 19.796875 0 22.203125 -0.203125 
L 22.203125 2.390625 
C 15.796875 2.390625 15.40625 2.78125 15.40625 6.6875 
L 15.40625 25.90625 
C 15.40625 35.109375 21 42 28 42 
C 35.40625 42 36.203125 35.40625 36.203125 30.59375 
L 36.203125 6.6875 
C 36.203125 2.875 35.796875 2.390625 29.40625 2.390625 
L 29.40625 -0.203125 
C 31.796875 0 36.203125 0 38.796875 0 
C 41.40625 0 45.90625 0 48.296875 -0.203125 
L 48.296875 2.390625 
C 41.90625 2.390625 41.5 2.78125 41.5 6.6875 
z
" id="CMR17-104"/>
     <path d="M 29.203125 67.59375 
L 29.203125 65 
C 35.09375 65 36 64.40625 36 59.6875 
L 36 36.640625 
C 35.59375 37.140625 31.5 43.59375 23.40625 43.59375 
C 13.203125 43.59375 3.296875 34.5 3.296875 21.3125 
C 3.296875 8.203125 12.59375 -1 22.40625 -1 
C 30.90625 -1 35.296875 5.265625 35.796875 5.9375 
L 35.796875 -0.984375 
L 47.90625 -0.984375 
L 47.90625 2 
C 42 2 41.09375 2.59375 41.09375 7.390625 
L 41.09375 68.6875 
z
M 35.796875 11.796875 
C 35.796875 8.796875 34 6.09375 31.703125 4.09375 
C 28.296875 1.09375 24.90625 0.59375 23 0.59375 
C 20.09375 0.59375 9.703125 2.09375 9.703125 21.1875 
C 9.703125 40.8125 21.296875 42 23.90625 42 
C 28.5 42 32.203125 39.40625 34.5 35.796875 
C 35.796875 33.703125 35.796875 33.40625 35.796875 31.609375 
z
" id="CMR17-100"/>
     <path d="M 39.90625 40 
L 51.296875 40 
L 51.296875 42.578125 
L 39.703125 42.578125 
L 39.703125 54.59375 
C 39.703125 62.84375 43.90625 68 48.203125 68 
C 49.5 68 51 67.609375 52 66.90625 
C 51.203125 66.703125 49.09375 66.015625 49.09375 63.546875 
C 49.09375 60.953125 51.09375 60.15625 52.5 60.15625 
C 53.90625 60.15625 55.90625 60.953125 55.90625 63.546875 
C 55.90625 67.3125 52.296875 69.59375 48.296875 69.59375 
C 44.40625 69.59375 41.203125 67.703125 38.703125 65.328125 
C 36.40625 68.59375 32.59375 69.59375 28.703125 69.59375 
C 20.90625 69.59375 9.90625 65.125 9.90625 54.203125 
L 9.90625 42.578125 
L 1.90625 42.578125 
L 1.90625 40 
L 9.90625 40 
L 9.90625 6.671875 
C 9.90625 2.875 9.5 2.390625 3.09375 2.390625 
L 3.09375 -0.203125 
C 5.5 0 9.90625 0 12.40625 0 
C 15 0 19.40625 0 21.796875 -0.203125 
L 21.796875 2.390625 
C 15.40625 2.390625 15 2.78125 15 6.671875 
L 15 40 
L 34.796875 40 
L 34.796875 6.671875 
C 34.796875 2.875 34.40625 2.390625 28 2.390625 
L 28 -0.203125 
C 30.40625 0 35 0 37.59375 0 
C 40.5 0 45.59375 0 48.296875 -0.203125 
L 48.296875 2.390625 
C 41.09375 2.390625 39.90625 2.390625 39.90625 6.859375 
z
M 14.796875 42.578125 
L 14.796875 54.203125 
C 14.796875 63.234375 21.796875 68 28.5 68 
C 30 68 33.90625 67.6875 36.296875 65.421875 
C 34.5 65.421875 32.796875 64.625 32.796875 62.140625 
C 32.796875 59.5625 35.09375 58.859375 35.296875 58.859375 
C 34.796875 57.0625 34.796875 55.09375 34.796875 54.390625 
L 34.796875 42.578125 
z
" id="CMR17-11"/>
     <path d="M 34.90625 35 
C 33 35 30.203125 35 30.203125 31.515625 
C 30.203125 28.71875 32.5 27.921875 33.796875 27.921875 
C 34.5 27.921875 37.40625 28.234375 37.40625 31.625 
C 37.40625 38.546875 30.59375 43.796875 22.90625 43.796875 
C 12.296875 43.796875 3.296875 34.03125 3.296875 21.296875 
C 3.296875 8.0625 12.703125 -1 22.90625 -1 
C 35.296875 -1 38.40625 10.578125 38.40625 11.6875 
C 38.40625 12.09375 38.296875 12.390625 37.59375 12.390625 
C 36.90625 12.390625 36.796875 12.296875 36.40625 10.984375 
C 33.796875 2.8125 28.09375 0.796875 23.796875 0.796875 
C 17.40625 0.796875 9.703125 6.671875 9.703125 21.390625 
C 9.703125 36.53125 17.09375 42 23 42 
C 26.90625 42 32.703125 40.203125 34.90625 35 
z
" id="CMR17-99"/>
    </defs>
    <g transform="translate(137.653916 38.065817)scale(0.144 -0.144)">
     <use transform="scale(0.996264)" xlink:href="#CMR17-119"/>
     <use transform="translate(66.509881 0)scale(0.996264)" xlink:href="#CMR17-105"/>
     <use transform="translate(91.380939 0)scale(0.996264)" xlink:href="#CMR17-116"/>
     <use transform="translate(126.661707 0)scale(0.996264)" xlink:href="#CMR17-104"/>
     <use transform="translate(207.633043 0)scale(0.996264)" xlink:href="#CMR17-100"/>
     <use transform="translate(258.528413 0)scale(0.996264)" xlink:href="#CMR17-105"/>
     <use transform="translate(283.399471 0)scale(0.996264)" xlink:href="#CMR17-11"/>
     <use transform="translate(335.744149 0)scale(0.996264)" xlink:href="#CMR17-101"/>
     <use transform="translate(376.229809 0)scale(0.996264)" xlink:href="#CMR17-114"/>
     <use transform="translate(411.510577 0)scale(0.996264)" xlink:href="#CMR17-101"/>
     <use transform="translate(451.996237 0)scale(0.996264)" xlink:href="#CMR17-110"/>
     <use transform="translate(500.289153 0)scale(0.996264)" xlink:href="#CMR17-116"/>
     <use transform="translate(565.645887 0)scale(0.996264)" xlink:href="#CMR17-115"/>
     <use transform="translate(601.447225 0)scale(0.996264)" xlink:href="#CMR17-99"/>
     <use transform="translate(641.932885 0)scale(0.996264)" xlink:href="#CMR17-97"/>
     <use transform="translate(687.623362 0)scale(0.996264)" xlink:href="#CMR17-108"/>
     <use transform="translate(712.494421 0)scale(0.996264)" xlink:href="#CMR17-105"/>
     <use transform="translate(737.365479 0)scale(0.996264)" xlink:href="#CMR17-110"/>
     <use transform="translate(788.260849 0)scale(0.996264)" xlink:href="#CMR17-103"/>
     <use transform="translate(864.027293 0)scale(0.996264)" xlink:href="#CMR17-109"/>
     <use transform="translate(940.946883 0)scale(0.996264)" xlink:href="#CMR17-101"/>
     <use transform="translate(981.432543 0)scale(0.996264)" xlink:href="#CMR17-116"/>
     <use transform="translate(1016.713311 0)scale(0.996264)" xlink:href="#CMR17-104"/>
     <use transform="translate(1067.608681 0)scale(0.996264)" xlink:href="#CMR17-111"/>
     <use transform="translate(1115.901596 0)scale(0.996264)" xlink:href="#CMR17-100"/>
     <use transform="translate(1166.796966 0)scale(0.996264)" xlink:href="#CMR17-115"/>
    </g>
   </g>
   <g id="legend_1">
    <g id="patch_7">
     <path d="M 50.168158 137.620893 
L 205.454891 137.620893 
Q 207.854891 137.620893 207.854891 135.220893 
L 207.854891 52.465817 
Q 207.854891 50.065817 205.454891 50.065817 
L 50.168158 50.065817 
Q 47.768158 50.065817 47.768158 52.465817 
L 47.768158 135.220893 
Q 47.768158 137.620893 50.168158 137.620893 
z
" style="fill:#ffffff;opacity:0.8;stroke:#cccccc;stroke-linejoin:miter;"/>
    </g>
    <g id="line2d_21">
     <path d="M 52.568158 59.065817 
L 76.568158 59.065817 
" style="fill:none;stroke:#1f77b4;stroke-linecap:square;stroke-width:1.5;"/>
    </g>
    <g id="line2d_22"/>
    <g id="text_20">
     <!-- \verb|div255_round| -->
     <defs>
      <path d="M 34.796875 21.921875 
C 36.203125 23.109375 46.296875 31.65625 46.296875 42.71875 
C 46.296875 54.046875 36.90625 62 24.40625 62 
C 12.796875 62 5.09375 53.328125 5.09375 44.984375 
C 5.09375 40.796875 8.59375 40.5 9.203125 40.5 
C 11 40.5 13.203125 41.875 13.203125 44.5625 
C 13.203125 46.453125 12.5 47.046875 12 47.453125 
C 13.40625 52.71875 18 56.203125 23.796875 56.203125 
C 32.296875 56.203125 39.796875 51.328125 39.796875 42.6875 
C 39.796875 34.90625 33.90625 28.9375 28.5 24.28125 
L 6.5 5.265625 
C 5.40625 4.375 5.09375 4.078125 5.09375 2.890625 
C 5.09375 0 7.796875 0 9.203125 0 
L 44.09375 0 
C 46.296875 0.59375 46.296875 2.578125 46.296875 4.078125 
L 46.296875 6.1875 
C 46.296875 7.96875 46.296875 10.265625 43.09375 10.265625 
C 39.796875 10.265625 39.796875 8.1875 39.796875 5.796875 
L 15.703125 5.796875 
z
" id="CMTT12-50"/>
      <path d="M 38.796875 55.203125 
C 40.203125 55.203125 42.796875 55.203125 42.796875 58.109375 
C 42.796875 61 40.203125 61 38.796875 61 
L 12.796875 61 
C 9.59375 61 8.796875 60.203125 8.796875 57.125 
L 8.796875 30.53125 
C 8.796875 29.125 8.796875 26.640625 11.796875 26.640625 
C 13.40625 26.640625 13.796875 27.140625 14.59375 28.125 
C 17.59375 31.609375 22 33.203125 27.203125 33.203125 
C 35 33.203125 39.796875 26.140625 39.796875 19.09375 
C 39.796875 11.0625 32.796875 4.796875 24.40625 4.796875 
C 19.203125 4.796875 13.90625 7.28125 12.09375 11.953125 
C 12.5 12.359375 13.203125 13.0625 13.203125 14.84375 
C 13.203125 17.53125 10.90625 18.90625 9.203125 18.90625 
C 8.296875 18.90625 5.09375 18.40625 5.09375 14.53125 
C 5.09375 6.171875 13.40625 -1 24.40625 -1 
C 36.5 -1 46.296875 7.953125 46.296875 19.09375 
C 46.296875 29.140625 38.796875 39 27.203125 39 
C 23.90625 39 19.5 38.40625 15.296875 36.09375 
L 15.296875 55.203125 
z
" id="CMTT12-53"/>
      <path d="M 41.796875 38.921875 
C 41.796875 42 41.203125 43 37.796875 43 
L 31.203125 43 
C 29.796875 43 27.203125 43 27.203125 40.109375 
C 27.203125 37.203125 29.796875 37.203125 31.203125 37.203125 
L 35.296875 37.203125 
L 35.296875 15.625 
C 35.296875 7.484375 28.5 5.296875 24 5.296875 
C 16.09375 5.296875 16.09375 8.875 16.09375 11.96875 
L 16.09375 38.921875 
C 16.09375 42 15.5 43 12.09375 43 
L 5.5 43 
C 4.09375 43 1.5 43 1.5 40.109375 
C 1.5 37.203125 4.09375 37.203125 5.5 37.203125 
L 9.59375 37.203125 
L 9.59375 11.4375 
C 9.59375 2.28125 15.59375 -0.5 23.296875 -0.5 
C 29.40625 -0.5 33.203125 1.984375 35.203125 3.671875 
C 35.203125 0 37.59375 0 39.296875 0 
L 45.90625 0 
C 47.296875 0 49.90625 0 49.90625 2.90625 
C 49.90625 5.796875 47.296875 5.796875 45.90625 5.796875 
L 41.796875 5.796875 
z
" id="CMTT12-117"/>
      <path d="M 41.796875 29.359375 
C 41.796875 39.171875 37.203125 43.796875 29 43.796875 
C 22.203125 43.796875 17.796875 40 16.09375 38.09375 
C 16.09375 41.65625 16.09375 43 12.09375 43 
L 5.5 43 
C 4.09375 43 1.5 43 1.5 40.109375 
C 1.5 37.203125 4.09375 37.203125 5.5 37.203125 
L 9.59375 37.203125 
L 9.59375 5.796875 
L 5.5 5.796875 
C 4.09375 5.796875 1.5 5.796875 1.5 2.90625 
C 1.5 0 4.09375 0 5.5 0 
L 20.203125 0 
C 21.59375 0 24.203125 0 24.203125 2.90625 
C 24.203125 5.796875 21.59375 5.796875 20.203125 5.796875 
L 16.09375 5.796875 
L 16.09375 23.953125 
C 16.09375 33.671875 22.90625 38 28.296875 38 
C 34.09375 38 35.296875 34.671875 35.296875 28.96875 
L 35.296875 5.796875 
L 31.203125 5.796875 
C 29.796875 5.796875 27.203125 5.796875 27.203125 2.90625 
C 27.203125 0 29.796875 0 31.203125 0 
L 45.90625 0 
C 47.296875 0 49.90625 0 49.90625 2.90625 
C 49.90625 5.796875 47.296875 5.796875 45.90625 5.796875 
L 41.796875 5.796875 
z
" id="CMTT12-110"/>
     </defs>
     <g transform="translate(86.168158 63.265817)scale(0.12 -0.12)">
      <use transform="scale(0.996264)" xlink:href="#CMTT12-100"/>
      <use transform="translate(51.266111 0)scale(0.996264)" xlink:href="#CMTT12-105"/>
      <use transform="translate(102.532222 0)scale(0.996264)" xlink:href="#CMTT12-118"/>
      <use transform="translate(153.798333 0)scale(0.996264)" xlink:href="#CMTT12-50"/>
      <use transform="translate(205.064443 0)scale(0.996264)" xlink:href="#CMTT12-53"/>
      <use transform="translate(256.330554 0)scale(0.996264)" xlink:href="#CMTT12-53"/>
      <use transform="translate(307.596665 0)scale(0.996264)" xlink:href="#CMTT12-95"/>
      <use transform="translate(358.862776 0)scale(0.996264)" xlink:href="#CMTT12-114"/>
      <use transform="translate(410.128887 0)scale(0.996264)" xlink:href="#CMTT12-111"/>
      <use transform="translate(461.394998 0)scale(0.996264)" xlink:href="#CMTT12-117"/>
      <use transform="translate(512.661108 0)scale(0.996264)" xlink:href="#CMTT12-110"/>
      <use transform="translate(563.927219 0)scale(0.996264)" xlink:href="#CMTT12-100"/>
     </g>
    </g>
    <g id="line2d_23">
     <path d="M 52.568158 75.790412 
L 76.568158 75.790412 
" style="fill:none;stroke:#ff7f0e;stroke-linecap:square;stroke-width:1.5;"/>
    </g>
    <g id="line2d_24"/>
    <g id="text_21">
     <!-- \verb|div255_round_approx| -->
     <defs>
      <path d="M 28.203125 22.15625 
L 39.703125 37.203125 
L 43.203125 37.203125 
C 44.59375 37.203125 47.203125 37.203125 47.203125 40.109375 
C 47.203125 43 44.59375 43 43.203125 43 
L 32.09375 43 
C 30.703125 43 28.09375 43 28.09375 40.109375 
C 28.09375 37.203125 30.5 37.203125 32.90625 37.203125 
L 25.40625 26.9375 
L 17.703125 37.203125 
C 20 37.203125 22.40625 37.203125 22.40625 40.109375 
C 22.40625 43 19.796875 43 18.40625 43 
L 7.296875 43 
C 5.90625 43 3.296875 43 3.296875 40.109375 
C 3.296875 37.203125 5.90625 37.203125 7.296875 37.203125 
L 10.796875 37.203125 
L 22.703125 22.140625 
L 10.203125 5.796875 
L 6.796875 5.796875 
C 5.40625 5.796875 2.703125 5.796875 2.703125 2.90625 
C 2.703125 0 5.40625 0 6.796875 0 
L 17.796875 0 
C 19.203125 0 21.796875 0 21.796875 2.90625 
C 21.796875 5.796875 19.5 5.796875 16.796875 5.796875 
L 25.40625 18.359375 
L 34.40625 5.796875 
C 31.90625 5.796875 29.5 5.796875 29.5 2.90625 
C 29.5 0 32.09375 0 33.5 0 
L 44.59375 0 
C 46 0 48.59375 0 48.59375 2.90625 
C 48.59375 5.796875 46 5.796875 44.59375 5.796875 
L 41.09375 5.796875 
z
" id="CMTT12-120"/>
     </defs>
     <g transform="translate(86.168158 79.990412)scale(0.12 -0.12)">
      <use transform="scale(0.996264)" xlink:href="#CMTT12-100"/>
      <use transform="translate(51.266111 0)scale(0.996264)" xlink:href="#CMTT12-105"/>
      <use transform="translate(102.532222 0)scale(0.996264)" xlink:href="#CMTT12-118"/>
      <use transform="translate(153.798333 0)scale(0.996264)" xlink:href="#CMTT12-50"/>
      <use transform="translate(205.064443 0)scale(0.996264)" xlink:href="#CMTT12-53"/>
      <use transform="translate(256.330554 0)scale(0.996264)" xlink:href="#CMTT12-53"/>
      <use transform="translate(307.596665 0)scale(0.996264)" xlink:href="#CMTT12-95"/>
      <use transform="translate(358.862776 0)scale(0.996264)" xlink:href="#CMTT12-114"/>
      <use transform="translate(410.128887 0)scale(0.996264)" xlink:href="#CMTT12-111"/>
      <use transform="translate(461.394998 0)scale(0.996264)" xlink:href="#CMTT12-117"/>
      <use transform="translate(512.661108 0)scale(0.996264)" xlink:href="#CMTT12-110"/>
      <use transform="translate(563.927219 0)scale(0.996264)" xlink:href="#CMTT12-100"/>
      <use transform="translate(615.19333 0)scale(0.996264)" xlink:href="#CMTT12-95"/>
      <use transform="translate(666.459441 0)scale(0.996264)" xlink:href="#CMTT12-97"/>
      <use transform="translate(717.725552 0)scale(0.996264)" xlink:href="#CMTT12-112"/>
      <use transform="translate(768.991663 0)scale(0.996264)" xlink:href="#CMTT12-112"/>
      <use transform="translate(820.257774 0)scale(0.996264)" xlink:href="#CMTT12-114"/>
      <use transform="translate(871.523884 0)scale(0.996264)" xlink:href="#CMTT12-111"/>
      <use transform="translate(922.789995 0)scale(0.996264)" xlink:href="#CMTT12-120"/>
     </g>
    </g>
    <g id="line2d_25">
     <path d="M 52.568158 92.847106 
L 76.568158 92.847106 
" style="fill:none;stroke:#2ca02c;stroke-linecap:square;stroke-width:1.5;"/>
    </g>
    <g id="line2d_26"/>
    <g id="text_22">
     <!-- \verb|div255_floor| -->
     <defs>
      <path d="M 24.703125 37.203125 
L 36.796875 37.203125 
C 38.203125 37.203125 40.796875 37.203125 40.796875 40.109375 
C 40.796875 43 38.203125 43 36.796875 43 
L 24.703125 43 
L 24.703125 48.078125 
C 24.703125 56 31.703125 56 34.90625 56 
C 34.90625 55.796875 35.703125 52.03125 39 52.03125 
C 40.59375 52.03125 42.90625 53.234375 42.90625 56.0625 
C 42.90625 61.796875 35.296875 61.796875 33.796875 61.796875 
C 26.203125 61.796875 18.203125 57.453125 18.203125 48.453125 
L 18.203125 43 
L 8.296875 43 
C 6.90625 43 4.203125 43 4.203125 40.109375 
C 4.203125 37.203125 6.796875 37.203125 8.203125 37.203125 
L 18.203125 37.203125 
L 18.203125 5.796875 
L 8.703125 5.796875 
C 7.296875 5.796875 4.703125 5.796875 4.703125 2.90625 
C 4.703125 0 7.296875 0 8.703125 0 
L 34.203125 0 
C 35.59375 0 38.203125 0 38.203125 2.90625 
C 38.203125 5.796875 35.59375 5.796875 34.203125 5.796875 
L 24.703125 5.796875 
z
" id="CMTT12-102"/>
     </defs>
     <g transform="translate(86.168158 97.047106)scale(0.12 -0.12)">
      <use transform="scale(0.996264)" xlink:href="#CMTT12-100"/>
      <use transform="translate(51.266111 0)scale(0.996264)" xlink:href="#CMTT12-105"/>
      <use transform="translate(102.532222 0)scale(0.996264)" xlink:href="#CMTT12-118"/>
      <use transform="translate(153.798333 0)scale(0.996264)" xlink:href="#CMTT12-50"/>
      <use transform="translate(205.064443 0)scale(0.996264)" xlink:href="#CMTT12-53"/>
      <use transform="translate(256.330554 0)scale(0.996264)" xlink:href="#CMTT12-53"/>
      <use transform="translate(307.596665 0)scale(0.996264)" xlink:href="#CMTT12-95"/>
      <use transform="translate(358.862776 0)scale(0.996264)" xlink:href="#CMTT12-102"/>
      <use transform="translate(410.128887 0)scale(0.996264)" xlink:href="#CMTT12-108"/>
      <use transform="translate(461.394998 0)scale(0.996264)" xlink:href="#CMTT12-111"/>
      <use transform="translate(512.661108 0)scale(0.996264)" xlink:href="#CMTT12-111"/>
      <use transform="translate(563.927219 0)scale(0.996264)" xlink:href="#CMTT12-114"/>
     </g>
    </g>
    <g id="line2d_27">
     <path d="M 52.568158 109.571702 
L 76.568158 109.571702 
" style="fill:none;stroke:#d62728;stroke-linecap:square;stroke-width:1.5;"/>
    </g>
    <g id="line2d_28"/>
    <g id="text_23">
     <!-- \verb|div256_round| -->
     <defs>
      <path d="M 11.90625 33.5 
C 12.90625 46.828125 21.59375 57 31.40625 57 
C 33.40625 57 35.703125 56.703125 37.203125 55.0625 
C 36.796875 54.546875 36.40625 54.046875 36.40625 52.515625 
C 36.40625 50.59375 37.796875 48.4375 40.40625 48.4375 
C 43 48.4375 44.5 50.359375 44.5 52.6875 
C 44.5 58.046875 40.40625 62.796875 31.5 62.796875 
C 18.40625 62.796875 5.296875 50.53125 5.296875 30.25 
C 5.296875 6.03125 16.40625 -1 25.90625 -1 
C 36.59375 -1 46.09375 7.5 46.09375 19.5 
C 46.09375 31.203125 37.40625 40 27 40 
C 21.90625 40 16.203125 38.109375 11.90625 33.5 
z
M 25.90625 4.796875 
C 15.203125 4.796875 13 18.40625 13 18.5 
C 13 18.609375 13.09375 19.109375 13.09375 19.40625 
C 13.09375 20 12.703125 21.296875 12.703125 22.5 
C 12.703125 28.296875 18.09375 34.109375 26.296875 34.109375 
C 34.09375 34.109375 39.59375 27.40625 39.59375 19.5 
C 39.59375 10.796875 33.09375 4.796875 25.90625 4.796875 
z
" id="CMTT12-54"/>
     </defs>
     <g transform="translate(86.168158 113.771702)scale(0.12 -0.12)">
      <use transform="scale(0.996264)" xlink:href="#CMTT12-100"/>
      <use transform="translate(51.266111 0)scale(0.996264)" xlink:href="#CMTT12-105"/>
      <use transform="translate(102.532222 0)scale(0.996264)" xlink:href="#CMTT12-118"/>
      <use transform="translate(153.798333 0)scale(0.996264)" xlink:href="#CMTT12-50"/>
      <use transform="translate(205.064443 0)scale(0.996264)" xlink:href="#CMTT12-53"/>
      <use transform="translate(256.330554 0)scale(0.996264)" xlink:href="#CMTT12-54"/>
      <use transform="translate(307.596665 0)scale(0.996264)" xlink:href="#CMTT12-95"/>
      <use transform="translate(358.862776 0)scale(0.996264)" xlink:href="#CMTT12-114"/>
      <use transform="translate(410.128887 0)scale(0.996264)" xlink:href="#CMTT12-111"/>
      <use transform="translate(461.394998 0)scale(0.996264)" xlink:href="#CMTT12-117"/>
      <use transform="translate(512.661108 0)scale(0.996264)" xlink:href="#CMTT12-110"/>
      <use transform="translate(563.927219 0)scale(0.996264)" xlink:href="#CMTT12-100"/>
     </g>
    </g>
    <g id="line2d_29">
     <path d="M 52.568158 126.296298 
L 76.568158 126.296298 
" style="fill:none;stroke:#9467bd;stroke-linecap:square;stroke-width:1.5;"/>
    </g>
    <g id="line2d_30"/>
    <g id="text_24">
     <!-- \verb|div256_floor| -->
     <g transform="translate(86.168158 130.496298)scale(0.12 -0.12)">
      <use transform="scale(0.996264)" xlink:href="#CMTT12-100"/>
      <use transform="translate(51.266111 0)scale(0.996264)" xlink:href="#CMTT12-105"/>
      <use transform="translate(102.532222 0)scale(0.996264)" xlink:href="#CMTT12-118"/>
      <use transform="translate(153.798333 0)scale(0.996264)" xlink:href="#CMTT12-50"/>
      <use transform="translate(205.064443 0)scale(0.996264)" xlink:href="#CMTT12-53"/>
      <use transform="translate(256.330554 0)scale(0.996264)" xlink:href="#CMTT12-54"/>
      <use transform="translate(307.596665 0)scale(0.996264)" xlink:href="#CMTT12-95"/>
      <use transform="translate(358.862776 0)scale(0.996264)" xlink:href="#CMTT12-102"/>
      <use transform="translate(410.128887 0)scale(0.996264)" xlink:href="#CMTT12-108"/>
      <use transform="translate(461.394998 0)scale(0.996264)" xlink:href="#CMTT12-111"/>
      <use transform="translate(512.661108 0)scale(0.996264)" xlink:href="#CMTT12-111"/>
      <use transform="translate(563.927219 0)scale(0.996264)" xlink:href="#CMTT12-114"/>
     </g>
    </g>
   </g>
  </g>
 </g>
 <defs>
  <clipPath id="p37f203b8fd">
   <rect height="233.39224" width="377.271842" x="41.768158" y="44.065817"/>
  </clipPath>
 </defs>
</svg>
