<?xml version="1.0" encoding="UTF-8" standalone="no"?>
<!DOCTYPE svg PUBLIC "-//W3C//DTD SVG 1.1//EN"
 "http://www.w3.org/Graphics/SVG/1.1/DTD/svg11.dtd">
<!-- Generated by graphviz version 2.40.1 (20161225.0304)
 -->
<!-- Title: Alpha Overlay Pages: 1 -->
<svg width="191pt" height="64pt"
 viewBox="0.00 0.00 191.00 64.00" xmlns="http://www.w3.org/2000/svg" xmlns:xlink="http://www.w3.org/1999/xlink">
<g id="graph0" class="graph" transform="scale(1 1) rotate(0) translate(4 60)">
<title>Alpha Overlay</title>
<polygon fill="#ffffff" stroke="transparent" points="-4,4 -4,-60 187,-60 187,4 -4,4"/>
<!-- Node1 -->
<g id="node1" class="node">
<title>Node1</title>
<g id="a_node1"><a xlink:title="Functions for overlaying a foreground image with an alpha channel on top of a background channel.">
<polygon fill="#bfbfbf" stroke="#000000" points="78,-37 0,-37 0,-18 78,-18 78,-37"/>
<text text-anchor="middle" x="39" y="-25" font-family="Helvetica,sans-Serif" font-size="10.00" fill="#000000">Alpha Overlay</text>
</a>
</g>
</g>
<!-- Node3 -->
<g id="node2" class="node">
<title>Node3</title>
<g id="a_node2"><a xlink:href="../../d4/d00/group__overlay__alpha__c.html" target="_top" xlink:title="C language wrappers for the alpha overlay functions.">
<polygon fill="#ffffff" stroke="#000000" points="183,-56 114,-56 114,-37 183,-37 183,-56"/>
<text text-anchor="middle" x="148.5" y="-44" font-family="Helvetica,sans-Serif" font-size="10.00" fill="#000000">C Wrappers</text>
</a>
</g>
</g>
<!-- Node1&#45;&gt;Node3 -->
<g id="edge2" class="edge">
<title>Node1&#45;&gt;Node3</title>
<path fill="none" stroke="#000000" d="M88.251,-36.0458C96.911,-37.5485 105.7564,-39.0833 113.9087,-40.4979"/>
<polygon fill="#000000" stroke="#000000" points="88.6739,-32.567 78.2227,-34.3058 87.4771,-39.4639 88.6739,-32.567"/>
</g>
<!-- Node2 -->
<g id="node3" class="node">
<title>Node2</title>
<g id="a_node3"><a xlink:href="../../d0/d6c/group__rescale255.html" target="_top" xlink:title="Functions to rescale the color values by dividing by 255.">
<polygon fill="#ffffff" stroke="#000000" points="175,-19 122,-19 122,0 175,0 175,-19"/>
<text text-anchor="middle" x="148.5" y="-7" font-family="Helvetica,sans-Serif" font-size="10.00" fill="#000000">Rescale</text>
</a>
</g>
</g>
<!-- Node1&#45;&gt;Node2 -->
<g id="edge1" class="edge">
<title>Node1&#45;&gt;Node2</title>
<path fill="none" stroke="#000000" d="M88.257,-19.403C99.8322,-17.5002 111.7382,-15.543 121.8774,-13.8763"/>
<polygon fill="#000000" stroke="#000000" points="87.5225,-15.9766 78.2227,-21.0524 88.658,-22.8839 87.5225,-15.9766"/>
</g>
</g>
</svg>
